<svg version="1.2" xmlns="http://www.w3.org/2000/svg" viewBox="0 0 883 883" width="883" height="883">
	<title>c-sharp-svg</title>
	<style>
		.s0 { fill: #325e64 } 
	</style>
	<g id="Layer_2">
		<path id="Layer" fill-rule="evenodd" class="s0" d="m159 213.3c0-11.7 2.7-14.3 14.4-14.3h433.5c12 0 14.5 2.6 14.5 14.8q0 137.6-0.1 275.2c0 5.2 1.6 7.6 6.2 9.9 54 28.5 85.7 72.8 93.3 133.6 10.5 85.8-46.8 169.5-137.5 186.9-50.1 9.6-95.9-1.9-136.6-32.7q-1.4-1.1-2.9-2.1-1.5-0.8-3.2-1.4-1.7-0.5-3.5-0.8-1.6-0.3-3.4-0.3-130.3 0.3-260.8 0.1c-11.2 0-13.9-2.8-13.9-14.1zm20.5 6.1v542.4h240.7c-1.5-2.1-2.5-3.5-3.7-5q-4.3-5.6-8.3-11.6-3.9-5.9-7.4-12.2-3.4-6.2-6.3-12.8-2.8-6.5-5.1-13.3c-1.4-4.3-3.4-5.2-7.5-5.2q-77.6 0.2-155.2 0h-6.9v-20.1h162.3c-0.9-13.6-1.7-26.7-2.6-40.4h-159.8v-19.8h9q74.1 0 148.2-0.1c2.2 0 5.8-1.4 6.4-2.9 3.9-12.2 7.2-24.6 10.9-37.6h-174.5v-19.7h7.7c54.2 0 108.5-0.4 162.8 0.2 11 0.2 18.2-1.9 24.5-11.9 6.6-10.4 16.1-18.8 24.8-28.7h-219.7v-20h8q117.5 0 235-0.1 1.8-0.1 3.7-0.2 1.8-0.3 3.6-0.7 1.8-0.5 3.6-1 1.7-0.7 3.4-1.4c29.5-13.8 60.4-19.5 92.7-15.6 10.5 1.3 20.8 3.5 31.2 5.4v-267.7zm220.7 431.7c-0.1 82.8 67.6 151.1 150.2 151.3 83 0.3 151-67.3 151.5-150.5 0.5-82.5-67.5-151-150.1-151.2-83.2-0.2-151.4 67.4-151.6 150.4z"/>
		<path id="Layer" fill-rule="evenodd" class="s0" d="m232.7 460.4c-10.4 0-13.4-3-13.4-13.5v-194.2c0-10.5 3-13.4 13.4-13.4h315.4c9.9 0 13 3.1 13 13.1q0 97.5 0 194.9c0 10.1-3.1 13.1-13 13.1zm7.1-20.4h300.9v-180.2h-300.9z"/>
		<path id="Layer" fill-rule="evenodd" class="s0" d="m458.5 749.9l-14.7-14.7c7-7.2 13.6-14.8 21.1-21.3 2.3-2 7.1-1.6 10.7-2 3.1-0.3 6.2 0 9.6 0-1.2-5.9-2.1-11.3-3.7-16.7q-0.2-0.8-0.8-1.3-0.5-0.6-1-1-0.7-0.4-1.3-0.7-0.8-0.3-1.5-0.5c-8.5-0.2-17.1-0.1-26-0.1v-19.9c8.2 0 16.4-0.3 24.6 0.1 4.7 0.2 6.2-1.4 6.6-5.9 0.6-4.7 2-9.4 3.4-15.3-21.7 7-29.4-11.3-42.1-21.8l16.3-14.5c3 3.5 7 8 10.7 12.6q0.9 1.3 2.1 2.2 1.2 1 2.7 1.6 1.4 0.7 3 0.8 1.6 0.1 3.1-0.1 0.8-0.1 1.5-0.2 0.8-0.1 1.6-0.1 0.8 0 1.6 0.1 0.7 0.1 1.6 0.2c8.3 2 11.9-4.1 15.9-9.3 0.7-1 0.3-3.1-0.2-4.6-5.7-18.7-2.4-35.6 10.8-50.2 2.4-2.6 1.9-4.4 0.1-6.9q-2.1-3-4.6-5.7-2.6-2.7-5.5-5-2.9-2.3-6-4.2-3.2-1.9-6.5-3.3c-3.3-1.3-4.2-2.8-2.9-6.2 1.9-4.5 3.3-9.3 5-14.5q5.6 1.6 10.7 4.2 5.2 2.6 9.8 6.1 4.7 3.4 8.7 7.6 4 4.1 7.2 8.9c3 4.3 5.4 4.9 10.5 4.2q2.8-0.4 5.7-0.6 2.9-0.2 5.8-0.1 2.8 0 5.7 0.3 2.9 0.2 5.7 0.7c3.5 0.4 5 0 7-2.8q3.3-5 7.5-9.5 4.1-4.4 8.9-8 4.7-3.6 10.1-6.4 5.4-2.8 11.1-4.6c1.9 5.6 4.1 10.8 5.4 16.2 0.2 1.2-2 3.7-3.6 4.5-10.9 5.4-18.7 12.2-23.9 21.6 3.6 5.7 7.9 11 10.7 16.9q2.1 4.2 3.2 8.7 1.2 4.4 1.5 9.1 0.3 4.6-0.3 9.3-0.6 4.5-2.1 8.9c-1.7 5.3 4.7 14.5 10.3 14.7q1.8 0 3.8 0.1 1.9 0 3.7 0 2 0 3.8-0.1 1.9 0 3.7-0.1 0.9-0.1 1.7-0.4 0.7-0.2 1.5-0.6 0.7-0.3 1.4-0.8 0.6-0.5 1.3-1.1c4.7-4.7 9.1-9.7 13.6-14.4l14.9 14.5c-7 6.9-13.5 14.2-20.7 20.3-2.6 2.2-7.3 2.2-11.2 2.6q-1.2 0.1-2.4 0.1-1.2 0.1-2.4 0.1-1.2 0-2.5 0-1.2-0.1-2.4-0.1c1.2 6 2 11.6 3.7 17.1 0.4 1.4 3.2 2.8 5 2.9 8.4 0.3 16.8 0.2 25.5 0.2v20c-8.4 0-16.7 0.2-24.9 0-3.9-0.1-5.7 0.9-6.2 5.1-0.5 5-2 9.7-3 14.7 7.9 2.2 17.1-2.7 23.9 5.4 5.4 6.3 11.8 11.8 17.8 17.9l-15.1 15c-4-4.5-8.1-8.6-11.8-13.2-3-3.8-6.7-4.4-11.4-4.7-9.1-0.7-15.2 1.7-21.8 9.1-27 30.6-74.9 27.8-99.6-4.9q-0.7-0.9-1.6-1.7-0.9-0.8-1.9-1.3-1.1-0.7-2.3-0.9-1.2-0.3-2.4-0.3c-11.3-1.6-20.3 1.6-26.9 11.1-1.8 2.2-3.5 4.3-5.6 6.9zm82.1-9.6v-78.8c-11.3 0-22.2 0.1-33-0.1-3.9-0.1-4.4 2.1-5 4.9-4.3 21.4-0.4 41.1 13.4 58.3q2.3 3 5.1 5.5 2.7 2.4 5.9 4.5 3.1 2 6.6 3.4 3.4 1.5 7 2.3zm20.7 0.2c3.2-1.2 6-1.9 8.5-3.2 25.9-12.6 36.5-46.9 29.1-72.8q-0.3-0.6-0.7-1.1-0.3-0.5-0.8-0.8-0.6-0.4-1.1-0.7-0.6-0.2-1.1-0.4c-11.1 0-22.1 0-33.9 0zm18.2-132.8c4-11-1.2-24.6-11.6-31.6-2.7-1.8-5.7-3.2-9-4.1-3.1-0.8-6.4-1.2-9.7-1-3.3 0.3-6.5 1-9.6 2.3-3 1.3-5.8 3.1-8.3 5.3-9 8-12.8 20.7-8.3 29.1 18.6-8.7 37.3-8.8 56.5 0.2zm-64.7 33.2q0.1 0 0.1 0h-0.1zm72.5-0.2c-15.2-25.5-57-25.5-72.4 0z"/>
		<path id="Layer" fill-rule="evenodd" class="s0" d="m409.8 329.7h-19.2v-19.9h19.7v-30h20v29.6h19.9v-29.4h20.1v29.4h20v20.1h-19.3v40.3h19.4v20h-19.7v30.1h-20v-29.5h-20v29.3h-20.1v-29.3h-20v-20.2h19.2zm21 40h19.3v-39.6h-19.3z"/>
		<path id="Layer" class="s0" d="m350.4 380.2h18.9c2.3 15.5-10.8 33.4-27.8 38.5-6.1 1.8-12.4 2.1-18.5 1-6.2-1-12-3.5-17-7.2-5-3.7-9.1-8.6-11.9-14.1-2.8-5.6-4.3-11.7-4.4-18.1q-0.2-30.7 0-61.5c0.3-10.4 4.7-20.3 12.1-27.6 7.5-7.4 17.5-11.5 27.9-11.5 10.5 0 20.6 4 28.1 11.3 7.5 7.3 11.9 17.2 12.3 27.7 0 3.3 0 6.6 0 10.5h-20.2c0-2.9 0.1-6 0-9-0.5-11.8-9.2-20.7-20.2-20.6-10.8 0-19.8 8.8-19.9 20.7-0.2 19.1-0.1 38.1 0 57.1 0 12.5 6.9 21.1 18.2 22.5 10 1.2 18.8-5.7 21.8-17.3 0.1-0.6 0.3-1.2 0.6-2.4z"/>
	</g>
</svg>