<svg version="1.2" xmlns="http://www.w3.org/2000/svg" viewBox="0 0 720 720" width="720" height="720">
	<title>graphics-3d-svg</title>
	<style>
		.s0 { fill: #325e64;stroke: #325e64;stroke-width: .6 } 
		.s1 { fill: #325e64 } 
	</style>
	<g id="Layer_2">
		<path id="Layer" class="s0" d="m608.7 188.7v315.1c0 3.3-0.7 6.7-1.9 9.8-1.3 3.1-3.2 5.9-5.6 8.3-2.4 2.4-5.2 4.3-8.3 5.6-3.1 1.3-6.5 1.9-9.9 1.9h-446.3c-3.4 0-6.7-0.6-9.9-1.9-3.1-1.3-5.9-3.2-8.3-5.6-2.4-2.4-4.2-5.2-5.5-8.3-1.3-3.1-2-6.5-2-9.8v-315.1c0-3.4 0.7-6.7 2-9.8 1.3-3.2 3.1-6 5.5-8.4 2.4-2.4 5.2-4.2 8.3-5.5 3.2-1.3 6.5-2 9.9-2h39.6v15h-39.6c-1.4 0-2.8 0.2-4.1 0.8-1.3 0.5-2.5 1.3-3.5 2.3-1 1-1.8 2.2-2.3 3.5-0.6 1.3-0.8 2.7-0.8 4.1v315.1c0 1.4 0.2 2.8 0.8 4.1 0.5 1.3 1.3 2.4 2.3 3.4 1 1 2.2 1.8 3.5 2.3 1.3 0.6 2.7 0.9 4.1 0.9h446.3c1.5 0 2.8-0.3 4.1-0.8 1.3-0.6 2.5-1.4 3.5-2.4 1-1 1.8-2.1 2.3-3.4 0.6-1.3 0.9-2.7 0.9-4.1v-315.1c0-1.4-0.3-2.8-0.9-4.1-0.5-1.3-1.3-2.5-2.3-3.5-1-1-2.2-1.8-3.5-2.3-1.3-0.6-2.6-0.8-4.1-0.8h-52l0.1-15h51.9c3.4 0 6.8 0.7 9.9 2 3.1 1.3 5.9 3.1 8.3 5.5 2.4 2.4 4.3 5.2 5.6 8.4 1.2 3.1 1.9 6.4 1.9 9.8z"/>
		<path id="Layer" fill-rule="evenodd" class="s0" d=""/>
		<path id="Layer" class="s0" d="m582.7 203.3v250h-445.7v-250l36.1 0.1v15l-21.1-0.2v220.1h36.6v3.1h357.8v-3.1h21.3v-220.1h-36.7v-14.9h51.7z"/>
		<path id="Layer" fill-rule="evenodd" class="s0" d="m279.5 604.2c-1.4 0-2.7-0.4-3.9-1.1-1.2-0.7-2.1-1.7-2.8-2.9-0.6-1.2-0.9-2.6-0.8-4 0.1-1.3 0.6-2.6 1.3-3.8l2.7-3.7c14.3-20.5 20.7-43.4 18.5-66-0.1-1 0-2.1 0.3-3.1 0.3-1 0.9-1.9 1.6-2.7 0.7-0.8 1.5-1.4 2.5-1.8 1-0.4 2-0.6 3-0.6h115.9c1.1 0 2.1 0.2 3.1 0.6 0.9 0.4 1.8 1.1 2.5 1.8 0.7 0.8 1.2 1.7 1.6 2.7 0.3 1 0.4 2.1 0.3 3.1-2.3 22.6 4.1 45.5 18.5 66l2.6 3.7c0.8 1.2 1.3 2.5 1.3 3.8 0.1 1.4-0.2 2.8-0.8 4-0.6 1.2-1.6 2.2-2.7 2.9-1.2 0.7-2.6 1.1-3.9 1.1zm30.4-74.8c0.4 20.6-5.2 41-16.5 59.8h132.9c-11.3-18.8-16.9-39.2-16.5-59.8z"/>
		<path id="Layer" fill-rule="evenodd" class="s0" d="m459.7 637.9h-199.7c-6.4 0-12.6-2.6-17.2-7.2-4.5-4.5-7.1-10.7-7.1-17.1 0-6.5 2.6-12.7 7.1-17.2 4.6-4.6 10.8-7.2 17.2-7.2h199.7c6.4 0 12.6 2.6 17.2 7.2 4.5 4.5 7.1 10.7 7.1 17.2 0 6.4-2.6 12.6-7.1 17.1-4.6 4.6-10.8 7.2-17.2 7.2zm-199.7-33.7c-2.5 0-4.8 1-6.6 2.7-1.7 1.8-2.7 4.2-2.7 6.7 0 2.4 1 4.8 2.7 6.6 1.8 1.7 4.1 2.7 6.6 2.7h199.7c2.5 0 4.8-1 6.6-2.7 1.7-1.8 2.7-4.2 2.7-6.6 0-2.5-1-4.9-2.7-6.7-1.8-1.7-4.1-2.7-6.6-2.7z"/>
		<path id="Layer" class="s0" d="m173.1 203.4h357.9v14.9h-357.9z"/>
		<path id="Layer" class="s0" d="m176.3 178v-15h354.8l-0.1 15h-354.7z"/>
		<path id="Layer" fill-rule="evenodd" class="s1" d="m416 331.5c0 6.9-0.1 13.8 0 20.6q0.1 1.1-0.1 2.1-0.3 1.1-0.8 2-0.6 1-1.3 1.7-0.8 0.7-1.8 1.2-27.1 15.1-54.3 30.2-0.9 0.5-1.8 0.8-1 0.3-2 0.3-1.1 0-2.1-0.2-1-0.2-1.9-0.7-26.9-12-53.9-24c-3.2-1.4-4.7-3.6-4.7-7.2q0.2-20.8 0-41.6 0-1 0.2-2 0.2-1 0.6-1.9 0.5-0.9 1.1-1.7 0.7-0.7 1.6-1.3c7.7-5.7 15.3-11.5 23-17.2q0.4-0.3 0.9-0.6 0.4-0.3 0.9-0.6 0.5-0.2 0.9-0.5 0.5-0.2 1-0.4 26.2-11.7 52.5-23.4c5.2-2.3 7.2-1.8 10.8 2.4 9.3 11.2 18.5 22.4 27.9 33.4q0.9 1 1.6 2.1 0.6 1.1 1.1 2.4 0.4 1.2 0.6 2.5 0.1 1.3 0.1 2.6c-0.2 6.3-0.1 12.7-0.1 19zm-16.5-24.1c-0.3-0.5-0.5-0.8-0.7-1.1-7-8.4-13.9-16.8-21-25.1q-0.3-0.2-0.6-0.3-0.3-0.2-0.6-0.2-0.3-0.1-0.7-0.1-0.3 0-0.6 0.1c-13.7 6-27.2 12-40.8 18-1.6 0.7-1.8 1.5-0.7 2.9 6.9 9.5 13.7 19.2 20.6 28.7 0.5 0.7 2.3 1.2 3 0.8 13.6-7.4 27.2-15 40.8-22.6q0.1-0.1 0.3-0.2 0.2-0.1 0.4-0.3 0.1-0.1 0.3-0.3 0.1-0.1 0.3-0.3zm-52.1 52.2c0-4.2 0.2-8.3 0-12.5-0.1-1.1-1-2.7-1.9-3.1-13-5.9-26-11.6-38.9-17.5-2.4-1-2.6-0.1-2.6 1.9 0.1 8.1 0 16.3 0.1 24.5q0.1 0.4 0.2 0.8 0.1 0.4 0.4 0.8 0.2 0.4 0.5 0.7 0.3 0.3 0.6 0.5c13.1 5.9 26.2 11.7 39.3 17.6 2.1 0.9 2.4 0.2 2.4-1.7-0.2-4-0.1-8-0.1-12zm56-24.4c0-3.9-0.1-7.8 0.1-11.6 0.1-2.9-0.7-3-3-1.7q-18.9 10.6-37.9 21c-2.1 1.1-2.7 2.5-2.6 4.6 0.1 7.4 0 14.8 0 22.2 0 3.5 0.1 3.6 3.2 1.8 11-6.1 21.7-12.6 33-18.1 5.9-2.9 8.3-6.5 7.3-12.8-0.4-1.7-0.1-3.6-0.1-5.4zm-69.6-11q0-0.1 0-0.2-0.1-0.1-0.1-0.2-0.1-0.2-0.1-0.3-0.1-0.1-0.2-0.2c-3.8-5.4-7.6-10.7-11.5-16-0.3-0.4-1.6-0.4-2.1-0.1-2.7 1.8-5.3 3.8-7.8 5.8-1.2 0.8-1.2 1.5 0.2 2.1 6.7 3 13.4 6 20.1 9q0.2 0 0.4 0 0.2 0.1 0.3 0.1 0.2 0 0.4 0 0.2 0 0.4 0z"/>
		<path id="Layer" class="s1" d="m274.9 310.5c0.7 0.9 1.5 2.1 2.5 3.2 1.9 2.1 5.6 4.3 5.4 6.2-0.2 2.3-3.5 4.4-5.5 6.6q-2.8 2.9-5.8 5.7c-3.3 3-6.5 3.2-9.6 0.2-3.7-3.5-7.2-7.2-10.8-10.7-1.4-1.3-1.3-2.2 0.1-3.4 1.7-1.6 3.3-3.3 4.9-5 1.2-1.1 2.2-2.9 4-0.8 0.6-0.6 1.5-1.2 1.7-2q0.9-4.9 2.3-9.6 1.4-4.8 3.4-9.3 1.9-4.6 4.3-8.9 2.5-4.3 5.4-8.3c16.1-22.3 37.8-35.7 65.3-39 28.5-3.3 53.4 5 74.8 24.1 2.2 2 2.6 3.3 0.1 5.3-2.2 1.8-4 5.1-6.3 5.4-1.8 0.3-4.2-2.9-6.2-4.5-46-37.1-114.8-14.7-129.2 42z"/>
		<path id="Layer" class="s1" d="m440.9 321.2c1.7 1 3.5 1.6 4.8 2.8 3.6 3.3 6.9 6.9 10.5 10.3 1.5 1.4 1.5 2.4 0 3.8-2 1.7-3.6 3.7-5.6 5.4-0.6 0.5-2.1 1.1-2.4 0.8-2.7-2.3-2.3 0.2-2.6 1.5-8.6 38.1-31.7 63.1-69.4 72.9-32 8.2-60.9 0.2-85.8-21.7-2.3-2.1-3-3.5-0.3-5.6 2.3-1.8 4.1-5.1 6.4-5.4 1.8-0.2 4.1 3 6.2 4.7 45.6 36.9 114.4 14.6 129-41.8 0.8-2.8 0.4-4.6-1.7-6.5-2.1-1.9-5.4-4.1-5.4-6.2 0.1-2 3.4-4.2 5.4-6.2q0.7-0.8 1.5-1.6 0.7-0.8 1.5-1.5 0.7-0.7 1.5-1.5 0.8-0.7 1.6-1.4c1.3-1.2 3-1.8 4.8-2.8z"/>
		<path id="Layer" class="s1" d="m333.5 323.3q0 0.1 0.1 0.2 0 0.1 0.1 0.3 0 0.1 0.1 0.2 0 0.1 0.1 0.2-0.2 0-0.4 0-0.2 0-0.4 0-0.2 0-0.4-0.1-0.2 0-0.3-0.1z"/>
		<path id="Layer" class="s1" d="m312.2 315.1c-1.4-0.7-1.3-1.3-0.2-2.1 2.6-2 5.1-4 7.8-5.8 0.5-0.3 1.9-0.3 2.1 0.1z"/>
	</g>
</svg>