<svg version="1.2" xmlns="http://www.w3.org/2000/svg" viewBox="0 0 720 720" width="720" height="720">
	<title>c-svg</title>
	<style>
		.s0 { fill: #325e64;stroke: #325e64;stroke-width: .6 } 
		.s1 { fill: #325e64 } 
	</style>
	<g id="Layer_2">
		<path id="Layer" class="s0" d="m609 188.6v314.7c0 3.3-0.7 6.7-2 9.8-1.3 3.1-3.1 5.9-5.5 8.3-2.4 2.4-5.2 4.2-8.3 5.5-3.2 1.3-6.5 2-9.8 2h-445.8c-3.3 0-6.7-0.7-9.8-2-3.1-1.3-5.9-3.1-8.3-5.5-2.4-2.4-4.3-5.2-5.5-8.3-1.3-3.1-2-6.5-2-9.8v-314.7c0-3.3 0.7-6.7 2-9.8 1.2-3.1 3.1-5.9 5.5-8.3 2.4-2.4 5.2-4.2 8.3-5.5 3.1-1.3 6.5-2 9.8-2h39.6v14.9h-39.6c-1.4 0-2.8 0.3-4.1 0.9-1.3 0.5-2.4 1.3-3.4 2.3-1 1-1.8 2.1-2.3 3.4-0.6 1.3-0.9 2.7-0.9 4.1v314.7c0 1.4 0.3 2.8 0.9 4.1 0.5 1.2 1.3 2.4 2.3 3.4 1 1 2.1 1.8 3.4 2.3 1.3 0.6 2.7 0.9 4.1 0.9h445.8c1.4 0 2.7-0.3 4-0.9 1.3-0.5 2.5-1.3 3.5-2.3 1-1 1.8-2.2 2.3-3.4 0.6-1.3 0.9-2.7 0.9-4.1v-314.7c0-1.4-0.3-2.8-0.9-4.1-0.5-1.3-1.3-2.4-2.3-3.4-1-1-2.2-1.8-3.5-2.3-1.3-0.6-2.6-0.9-4-0.9h-52l0.1-14.9h51.9c3.3 0 6.7 0.7 9.8 2 3.1 1.2 5.9 3.1 8.3 5.5 2.4 2.4 4.2 5.2 5.5 8.3 1.3 3.1 2 6.5 2 9.8z"/>
		<path id="Layer" fill-rule="evenodd" class="s0" d=""/>
		<path id="Layer" class="s0" d="m583 203.2v249.7h-445v-249.7l36 0.2v14.9l-21.1-0.2v219.8h36.5v3h357.3v-3h21.4v-219.8h-36.7v-14.9h51.6z"/>
		<path id="Layer" fill-rule="evenodd" class="s0" d="m280.2 603.6c-1.3 0-2.7-0.4-3.9-1.1-1.1-0.7-2.1-1.7-2.7-3-0.6-1.2-0.9-2.5-0.8-3.9 0.1-1.4 0.5-2.7 1.3-3.8l2.6-3.8c14.4-20.4 20.8-43.2 18.5-65.8-0.1-1.1 0-2.1 0.3-3.1 0.4-1 0.9-1.9 1.6-2.7 0.7-0.8 1.6-1.4 2.5-1.8 1-0.4 2-0.7 3.1-0.6h115.7c1 0 2.1 0.2 3 0.6 1 0.4 1.8 1 2.5 1.8 0.7 0.8 1.3 1.7 1.6 2.7 0.3 1 0.4 2 0.3 3.1-2.2 22.6 4.1 45.4 18.5 65.8l2.6 3.8c0.8 1.1 1.3 2.4 1.4 3.8 0 1.4-0.2 2.7-0.9 3.9-0.6 1.3-1.6 2.3-2.7 3-1.2 0.7-2.5 1.1-3.9 1.1zm30.3-74.7c0.5 20.5-5.1 40.9-16.4 59.7h132.7c-11.3-18.8-16.9-39.2-16.4-59.7z"/>
		<path id="Layer" fill-rule="evenodd" class="s0" d="m460.2 637.2h-199.4c-6.4 0-12.6-2.6-17.2-7.1-4.5-4.6-7.1-10.8-7.1-17.2 0-6.4 2.6-12.6 7.1-17.2 4.6-4.5 10.8-7.1 17.2-7.1h199.4c6.4 0 12.6 2.6 17.1 7.1 4.6 4.6 7.1 10.8 7.1 17.2 0 6.4-2.5 12.6-7.1 17.2-4.5 4.5-10.7 7.1-17.1 7.1zm-199.4-33.6c-2.5 0-4.8 0.9-6.6 2.7-1.7 1.7-2.7 4.1-2.7 6.6 0 2.5 1 4.8 2.7 6.6 1.8 1.7 4.1 2.7 6.6 2.7h199.4c2.5 0 4.8-1 6.6-2.7 1.7-1.8 2.7-4.1 2.7-6.6 0-2.5-1-4.9-2.7-6.6-1.8-1.8-4.1-2.7-6.6-2.7z"/>
		<path id="Layer" class="s0" d="m174 203.3h357.4v14.9h-357.4z"/>
		<path id="Layer" class="s0" d="m177.2 177.9v-14.9h354.3l-0.1 14.9h-354.2z"/>
		<path id="Layer" class="s1" d="m293.7 359h13.7c0.3 12.1-3.4 22.7-10.2 32.3-14.6 20.4-39.9 28.7-63.4 21-23.2-7.6-38.6-29.1-38.6-53.9q0-27.9 0-55.8c0-28.9 22.4-53.7 50.6-56.1 29.9-2.5 56 17.5 61 46.9 0.4 2.8 0.6 5.7 1 8.9h-12.5c-3.2-8.1-5.2-16.4-9.4-23.2-9.1-14.8-27.4-21.5-44-17.5-17.8 4.3-31.1 18.1-32.1 37.1q-0.5 8.4-0.7 16.7-0.2 8.4-0.1 16.8 0.1 8.4 0.4 16.8 0.3 8.4 0.9 16.7c1.4 20 20.7 35.3 41.1 35.3 20.4-0.1 38.4-15.4 41.4-35.4 0.3-2 0.6-4.1 0.9-6.6z"/>
		<path id="Layer" class="s1" d="m360.7 236.4h185.8v11h-185.8z"/>
		<path id="Layer" class="s1" d="m360.7 259.4h185.9v11h-185.9z"/>
		<path id="Layer" class="s1" d="m360.9 385.7h185.6v11h-185.6z"/>
		<path id="Layer" class="s1" d="m360.7 408.6h185.9v11h-185.9z"/>
		<path id="Layer" class="s1" d="m440.3 282.2h44.4c0 3.3 0.1 6.6-0.2 9.8 0 0.6-2.1 1.5-3.2 1.5q-18.8 0.2-37.6 0c-1.1 0-3.1-1.1-3.2-1.8-0.4-3.1-0.2-6.1-0.2-9.5z"/>
		<path id="Layer" class="s1" d="m502.5 282.2h44.3c0 3.3 0.2 6.6-0.1 9.9-0.1 0.5-2.1 1.4-3.3 1.4q-18.8 0.2-37.6 0c-1.1 0-3.1-1.1-3.2-1.8-0.3-3.1-0.1-6.1-0.1-9.5z"/>
		<path id="Layer" class="s1" d="m440.3 362.5h44.4c0 3.3 0.1 6.6-0.2 9.9 0 0.5-2.1 1.4-3.2 1.5q-18.8 0.1-37.6 0c-1.1 0-3.1-1.1-3.2-1.8-0.4-3.1-0.2-6.2-0.2-9.6z"/>
		<path id="Layer" class="s1" d="m502.5 373.7q-0.1-1.1-0.1-2.3 0-1.2 0-2.3 0-1.2 0.1-2.4 0-1.2 0.1-2.3c0.1-0.7 2.1-1.8 3.2-1.8q18.8-0.2 37.6 0c1.2 0 3.2 1.1 3.3 1.8q0 1.1 0.1 2.3 0.1 1.2 0.1 2.3 0 1.2 0 2.4 0 1.2-0.1 2.3z"/>
	</g>
</svg>