<svg version="1.2" xmlns="http://www.w3.org/2000/svg" viewBox="0 0 720 720" width="720" height="720">
	<title>english-svg</title>
	<style>
		.s0 { fill: #325e64;stroke: #325e64;stroke-width: .6 } 
		.s1 { fill: #325e64 } 
	</style>
	<g id="Layer_2">
		<path id="Layer" class="s0" d="m608 188.6v314c0 3.3-0.7 6.7-2 9.8-1.2 3.1-3.1 5.9-5.5 8.3-2.4 2.3-5.2 4.2-8.3 5.5-3.1 1.3-6.4 2-9.8 2h-444.8c-3.4 0-6.7-0.7-9.8-2-3.1-1.3-5.9-3.2-8.3-5.5-2.4-2.4-4.3-5.2-5.5-8.3-1.3-3.1-2-6.5-2-9.8v-314c0-3.4 0.7-6.7 2-9.8 1.2-3.1 3.1-5.9 5.5-8.3 2.4-2.4 5.2-4.3 8.3-5.5 3.1-1.3 6.4-2 9.8-2h39.5v14.9h-39.5c-1.4 0-2.8 0.3-4.1 0.8-1.3 0.6-2.5 1.3-3.5 2.3-1 1-1.7 2.2-2.3 3.5-0.5 1.3-0.8 2.7-0.8 4.1v314c0 1.4 0.3 2.8 0.8 4.1 0.6 1.3 1.3 2.4 2.3 3.4 1 1 2.2 1.8 3.5 2.3 1.3 0.6 2.7 0.9 4.1 0.9h444.8c1.4 0 2.8-0.3 4.1-0.9 1.3-0.5 2.5-1.3 3.5-2.3 1-1 1.7-2.1 2.3-3.4 0.5-1.3 0.8-2.7 0.8-4.1v-314c0-1.4-0.3-2.8-0.8-4.1-0.6-1.3-1.3-2.5-2.3-3.5-1-1-2.2-1.7-3.5-2.3-1.3-0.5-2.7-0.8-4.1-0.8h-51.8v-14.9h51.8c3.4 0 6.7 0.7 9.8 2 3.1 1.2 5.9 3.1 8.3 5.5 2.4 2.4 4.3 5.2 5.5 8.3 1.3 3.1 2 6.4 2 9.8z"/>
		<path id="Layer" fill-rule="evenodd" class="s0" d=""/>
		<path id="Layer" class="s0" d="m582.1 203.1v249.2h-444.2v-249.2l36 0.2v14.9l-21.1-0.2v219.4h36.5v3h356.6v-3h21.3v-219.4h-36.6v-14.9h51.5z"/>
		<path id="Layer" fill-rule="evenodd" class="s0" d="m279.9 602.7c-1.4 0-2.7-0.4-3.9-1.1-1.1-0.7-2.1-1.7-2.7-2.9-0.6-1.2-0.9-2.6-0.8-4 0-1.3 0.5-2.6 1.3-3.7l2.6-3.8c14.3-20.4 20.7-43.2 18.4-65.8-0.1-1 0-2 0.4-3 0.3-1 0.8-1.9 1.5-2.7 0.7-0.8 1.6-1.4 2.5-1.8 1-0.4 2-0.6 3-0.6h115.6c1 0 2.1 0.2 3 0.6 1 0.4 1.8 1 2.5 1.8 0.7 0.8 1.2 1.7 1.6 2.7 0.3 1 0.4 2 0.3 3-2.3 22.6 4.1 45.4 18.4 65.8l2.6 3.8c0.8 1.1 1.3 2.4 1.4 3.7 0.1 1.4-0.2 2.8-0.8 4-0.7 1.2-1.6 2.2-2.8 2.9-1.1 0.7-2.5 1.1-3.8 1.1zm30.2-74.5c0.5 20.4-5.1 40.8-16.3 59.6h132.4c-11.2-18.8-16.8-39.2-16.4-59.6z"/>
		<path id="Layer" fill-rule="evenodd" class="s0" d="m459.5 636.2h-199c-6.4 0-12.6-2.5-17.1-7.1-4.6-4.5-7.1-10.7-7.1-17.1 0-6.4 2.5-12.6 7.1-17.1 4.5-4.6 10.7-7.1 17.1-7.1h199c6.4 0 12.6 2.5 17.1 7.1 4.6 4.5 7.1 10.7 7.1 17.1 0 6.4-2.5 12.6-7.1 17.1-4.5 4.6-10.7 7.1-17.1 7.1zm-199-33.5c-2.5 0-4.8 1-6.6 2.7-1.7 1.8-2.7 4.1-2.7 6.6 0 2.5 1 4.8 2.7 6.6 1.8 1.7 4.1 2.7 6.6 2.7h199c2.5 0 4.8-1 6.6-2.7 1.7-1.8 2.7-4.1 2.7-6.6 0-2.5-1-4.8-2.7-6.6-1.8-1.7-4.1-2.7-6.6-2.7z"/>
		<path id="Layer" class="s0" d="m173.9 203.2h356.7v14.9h-356.7z"/>
		<path id="Layer" class="s0" d="m177.1 177.9v-14.9h353.5v14.9h-353.5z"/>
		<path id="Layer" class="s1" d="m318.5 289.3q0 53.6 0 107.2c0 5.5-2.3 8.6-6.7 8.6-4 0.1-6.4-2-7.1-5.9q0-0.5-0.1-0.9 0-0.5 0-0.9 0-0.5 0-1 0-0.4 0-0.9 0-67.7 0-135.5c0-1.1-0.4-2.4 0.1-3.2 1.4-2.2 2.8-5.3 4.8-5.9 2.1-0.7 5.1 0.9 7.4 2 1.2 0.6 1.7 2.5 2.5 3.8q33 55.1 66.1 110.1 0.3 0.6 0.7 1.2 0.4 0.6 0.9 1.1 0.4 0.5 1 1 0.5 0.5 1 0.9v-110.2q0-0.5 0-1 0-0.6 0-1.1 0-0.5 0-1 0.1-0.5 0.1-1.1c0.4-3.8 3.5-6.7 7.2-6.4 3.8 0.4 6.2 2.5 6.6 6.5q0 0.4 0.1 0.7 0 0.3 0 0.7 0 0.3 0 0.7 0 0.3 0 0.7 0 68.2 0 136.4c0 1.1 0.3 2.4-0.2 3.2-1.2 2-2.5 4.8-4.3 5.4-2.1 0.7-5-0.3-7.2-1.4-1.4-0.7-2.2-2.8-3.2-4.4q-33.1-55.2-66.2-110.4c-0.9-1.4-1.8-2.7-3.5-5.2z"/>
		<path id="Layer" class="s1" d="m185.2 260.8c0-8.6 2-10.6 10.6-10.6q39 0 78 0 0.5 0 0.9 0 0.5 0 0.9 0 0.5 0 1 0 0.4 0 0.9 0.1c3.8 0.4 6.8 3.6 6.5 7.1-0.4 3.8-2.4 6.4-6.5 6.7-1.7 0.1-3.4 0.1-5.1 0.1-22.6 0-45.1 0.1-67.7-0.1-3.9 0-5.4 0.8-5.3 5.1 0.3 15.7 0.2 31.5 0 47.3 0 3.5 1 4.3 4.4 4.3 24-0.1 48-0.1 72 0 4.9 0 8.1 2.7 8.2 6.8 0.1 4.1-3 6.9-8 7.1-1.2 0-2.5 0-3.7 0h-65.9q-0.4 0-0.7 0-0.4 0.1-0.7 0.1-0.4 0-0.7-0.1-0.4 0-0.7 0c-3.2-0.4-4.2 0.9-4.2 4.1 0.2 16.1 0.2 32.2 0 48.3 0 3.6 1.1 4.2 4.5 4.2 24-0.1 47.9-0.1 71.9 0 6.4 0 10.2 5.1 7.3 9.9-1.2 1.9-4.1 3.8-6.2 3.8-28.2 0.2-56.3 0.2-84.4 0.1-4.6 0-7.1-2.7-7.3-7.8-0.1-4.5 0-9 0-13.5q0-28.1 0-56.1 0-33.4 0-66.9z"/>
		<path id="Layer" class="s1" d="m438.2 359.4c1.1 18.2 17.5 32.4 35.8 31.8 18.5-0.6 33.5-15.4 34.1-33.8 0.3-8.6 0.3-8.6-8.4-8.6-8.2 0-16.4 0-24.6 0-6-0.1-8.9-2.3-8.9-6.9-0.1-4.7 3-7.2 8.8-7.2q19.5 0 39 0c4.4 0 7.9 1.8 8.2 6.4 0.7 12.1 1 24.1-4.4 35.5-9.9 21.1-32.4 32.3-55.3 27.5-21.6-4.4-38.2-24-38.7-46.7-0.5-19.8-0.6-39.6 0-59.4 0.6-25.4 20.8-46 45.6-47.7 6-0.4 12 0.2 17.8 2 5.7 1.7 11.1 4.5 15.8 8.1 4.8 3.7 8.9 8.2 12 13.3 3.2 5.1 5.4 10.7 6.5 16.6q0.2 1.1 0.3 2.1 0.2 1 0.3 2.1 0.1 1 0.2 2.1 0 1 0 2c0.2 4.5-2.8 7.8-6.7 8-3.6 0.2-6.7-2.7-7.4-6.9-0.5-3.7-0.6-7.4-1.7-10.9-4.9-15.7-20.8-26.2-36.4-24.3-17.9 2.1-30.9 14.8-31.9 32.3-0.7 10.3-0.2 20.7-0.2 31.1h0.1c0 10.5-0.5 21 0.1 31.5z"/>
		<path id="Layer" class="s1" d="m318.5 283.1v6.2q0 53.6 0 107.2c0 5.5-2.3 8.6-6.7 8.6-4 0.1-6.4-2-7.1-5.9q0-0.5-0.1-0.9 0-0.5 0-0.9 0-0.5 0-1 0-0.4 0-0.9 0-67.7 0-135.5c0-1.1-0.4-2.4 0.1-3.2 1.4-2.2 2.8-5.3 4.8-5.9 2.1-0.7 5.1 0.9 7.4 2 1.2 0.6 1.7 2.5 2.5 3.8q33 55 66.1 110.1 0.3 0.6 0.7 1.2 0.4 0.6 0.9 1.1 0.4 0.5 1 1 0.5 0.5 1 0.9v-110.2q0-0.5 0-1 0-0.5 0-1 0-0.6 0-1.1 0.1-0.5 0.1-1c0.4-3.9 3.5-6.7 7.2-6.4 3.8 0.3 6.2 2.5 6.6 6.4q0 0.4 0.1 0.7 0 0.4 0 0.7 0 0.4 0 0.7 0 0.4 0 0.7 0 68.2 0 136.4c0 1.1 0.3 2.4-0.2 3.2-1.2 2.1-2.4 4.8-4.3 5.4-2.1 0.7-5-0.3-7.2-1.3-1.4-0.8-2.2-2.9-3.2-4.5q-33.1-55.2-66.2-110.4c-0.9-1.4-1.8-2.7-3.5-5.2z"/>
		<path id="Layer" class="s1" d="m185.2 327.7q0-33.5 0-66.8c0-8.7 2-10.7 10.6-10.7q39 0 78 0 0.4 0 0.9 0 0.5 0 0.9 0 0.5 0 1 0 0.4 0.1 0.9 0.1c3.8 0.4 6.8 3.6 6.5 7.2-0.4 3.8-2.4 6.3-6.5 6.6-1.7 0.2-3.4 0.2-5.1 0.2-22.6 0-45.1 0.1-67.7-0.1-3.9-0.1-5.4 0.7-5.3 5 0.3 15.8 0.2 31.5 0 47.3 0 3.6 1 4.4 4.4 4.3 24-0.1 48-0.1 71.9 0 5 0 8.2 2.8 8.3 6.8 0.1 4.1-3.1 7-8 7.1-1.2 0.1-2.5 0-3.7 0h-65.9q-0.3 0.1-0.7 0.1-0.3 0-0.7 0-0.3 0-0.7 0-0.3 0-0.7-0.1c-3.2-0.4-4.2 0.9-4.2 4.1 0.2 16.1 0.2 32.2 0 48.3 0 3.6 1.2 4.3 4.5 4.3 24-0.2 47.9-0.1 71.9-0.1 6.4 0 10.2 5.1 7.3 9.9-1.2 1.9-4.1 3.8-6.2 3.8-28.1 0.3-56.3 0.2-84.4 0.2-4.6 0-7-2.8-7.2-7.9-0.2-4.5-0.1-9-0.1-13.5q0-28.1 0-56.1z"/>
		<path id="Layer" class="s1" d="m438.1 327.9c0 10.5-0.5 21 0.1 31.5 1.1 18.2 17.5 32.4 35.8 31.8 18.5-0.6 33.5-15.4 34.1-33.7 0.3-8.7 0.3-8.7-8.4-8.7-8.2 0-16.4 0.1-24.6 0-6.1 0-8.9-2.3-9-6.9 0-4.6 3.1-7.1 8.9-7.1 13-0.1 26 0 39 0 4.4 0 7.9 1.8 8.2 6.4 0.7 12 0.9 24.1-4.4 35.5-9.9 21-32.4 32.2-55.3 27.5-21.6-4.5-38.2-24-38.7-46.7-0.5-19.8-0.6-39.7 0-59.4 0.6-25.4 20.7-46 45.6-47.8 6-0.4 12 0.3 17.7 2 5.8 1.8 11.2 4.5 15.9 8.2 4.8 3.7 8.8 8.1 12 13.3 3.2 5.1 5.4 10.7 6.5 16.6q0.2 1 0.3 2.1 0.2 1 0.3 2 0.1 1.1 0.1 2.1 0.1 1.1 0.1 2.1c0.2 4.4-2.8 7.8-6.7 8-3.7 0.1-6.7-2.7-7.4-6.9-0.6-3.7-0.7-7.5-1.7-11-5-15.7-20.8-26.1-36.4-24.3-17.9 2.2-30.9 14.9-32 32.3-0.6 10.4-0.1 20.8-0.1 31.1z"/>
	</g>
</svg>