<svg version="1.2" xmlns="http://www.w3.org/2000/svg" viewBox="0 0 720 720" width="720" height="720">
	<title>scratch-svg</title>
	<style>
		.s0 { fill: #325e64 } 
	</style>
	<g id="Layer_2">
		<path id="Layer" fill-rule="evenodd" class="s0" d="m363.5 514.9q106.3 0 212.5 0c6.6 0 12.8-1 18.2-4.9 7.9-5.6 11.4-13.5 11.4-23.1 0-28 0-56 0.2-84q0-1.2 0.1-2.3 0.2-1.1 0.6-2.2 0.3-1.1 0.8-2.1 0.5-1 1.1-1.9c2.3-3 6-3.4 9.5-1.8 3.8 1.6 5.3 4.7 5.3 8.8q0 22.5 0 45c0 14.3 0.1 28.6 0 42.9-0.1 5.6-1.2 11.2-3.4 16.4-2.2 5.2-5.4 9.9-9.3 13.9-4 4-8.8 7.2-13.9 9.4-5.2 2.2-10.8 3.3-16.4 3.4-38.1 0.1-76.2 0-114.3 0-5.7 0-5.7 0-3 5q3.4 6.4 7.8 12.1 4.4 5.7 9.8 10.5 5.3 4.9 11.4 8.8 6.1 3.9 12.7 6.6c7.1 3.1 14.1 6.4 21.4 8.5 5.1 1.4 10.8 0.7 16.2 1.3 4.1 0.5 8.5 0.6 12.2 2.2 10.2 4.3 15.6 12.3 16 23.5 0.2 5.5 0 11 0 16.5 0 7.5-3.1 10.5-10.7 10.5-17.2 0-209.1 0-226.3 0-5.5 0-9-3.8-9-8.9 0-4.9 3.6-8.3 8.8-8.6 1.5-0.1 3 0 4.4 0q103.9 0 207.7-0.1c2.5 0 6.2 2.2 7.5-1.7 2-6-0.6-12.9-5.3-14.7q-0.7-0.3-1.4-0.5-0.7-0.2-1.4-0.3-0.8-0.1-1.5-0.2-0.8 0-1.5 0-182.1 0-364.1 0c-9 0-13.7 6.7-11.2 15.7q0.1 0.3 0.3 0.6 0.3 0.3 0.5 0.5 0.3 0.3 0.6 0.4 0.3 0.2 0.7 0.3 0.5 0.1 1.1 0.1 0.5 0 1.1 0.1 0.5 0 1.1-0.1 0.5 0 1.1 0h121.4c1.4 0 2.9-0.1 4.4 0 2.1 0.3 4 1.4 5.4 3 1.4 1.6 2.2 3.7 2.1 5.8 0 2.2-0.8 4.2-2.2 5.8-1.5 1.6-3.4 2.6-5.5 2.9-1.1 0-2.2 0-3.3 0h-134.8c-9.2 0-11.7-2.6-11.7-11.7v-13.2c0-16.9 10.9-28.1 27.7-27.9 32.5 0.7 69.2-24.6 79.3-46.8 0.6-1.2 1.2-2.3 1.8-3.4 1-1.7 0.7-2.7-1.4-2.5-1.3 0-2.6 0-3.9 0q-51.1 0-102.1 0c-31.2 0-54.1-22.9-54.1-54q0-134.9 0-269.7c0-26.4 18.9-45.4 45.2-45.4q72.8 0 145.5 0 0.8 0 1.5 0 0.8 0 1.5 0.1 0.7 0.1 1.5 0.2 0.7 0.2 1.4 0.4 1.4 0.5 2.5 1.4 1.2 0.9 1.9 2.2 0.7 1.3 1 2.7 0.2 1.5-0.1 2.9-0.1 1.4-0.7 2.8-0.6 1.3-1.6 2.3-1.1 1.1-2.4 1.7-1.3 0.6-2.8 0.7-0.6 0.1-1.2 0.1-0.6 0.1-1.2 0.1-0.6 0-1.3 0-0.6-0.1-1.2-0.1h-142.3c-18.9 0-29.7 10.7-29.7 29.5q0 133.4 0 266.9c0 17.7 9.3 31.3 25 35.8q1.7 0.5 3.5 0.8 1.7 0.3 3.5 0.5 1.7 0.3 3.5 0.4 1.8 0.1 3.6 0 105.4 0.1 210.9 0.1zm-4 70.3q59.5 0 119.1 0 0.5 0 1-0.1 0.5-0.1 1-0.2 0.5 0 1-0.2 0.5-0.1 0.9-0.2-0.3-0.3-0.6-0.6-0.4-0.3-0.7-0.6-0.4-0.3-0.8-0.6-0.3-0.3-0.7-0.6-6.1-4.1-11.6-9.1-5.5-5-10.2-10.8-4.6-5.7-8.4-12.1-3.8-6.4-6.7-13.3c-1.4-3.4-3.1-4.4-6.8-4.4q-76.4 0.2-152.7 0c-3.7 0-5.7 0.9-7.3 4.7q-2.8 6.7-6.5 13-3.7 6.3-8.3 11.9-4.6 5.7-9.9 10.6-5.3 5-11.3 9.1c-0.8 0.6-1.6 1-2.3 1.5q-0.2 0.2-0.3 0.4-0.2 0.2-0.3 0.4-0.2 0.2-0.3 0.4-0.1 0.2-0.3 0.4 0.3 0.1 0.5 0.1 0.3 0.1 0.5 0.1 0.3 0.1 0.5 0.1 0.3 0.1 0.5 0.1 2 0 3.9 0z"/>
		<path id="Layer" fill-rule="evenodd" class="s0" d="m394.8 276q0 0 0 0.1 0 0.1 0 0.1 0 0.1 0 0.2 0 0 0 0.1c-1.8 9.7 1.7 16 10.7 21 12.5 7.1 24.1 15.9 36.2 23.8q1.3 0.7 2.4 1.8 1 1 1.8 2.3 0.8 1.3 1.3 2.7 0.4 1.4 0.5 2.9c2 19.1 4.3 38.2 6.3 57.3q0 1.4 0.4 2.7 0.4 1.3 1.2 2.5 0.8 1.1 1.8 2.1 1.1 0.9 2.3 1.5c14.4 7.9 22.1 20.3 22.9 36.8 0.3 6.9-3 10.3-9.8 10.3q-29.7 0-59.3 0c-6.2 0-9.8-3.3-9.9-8.6-0.1-5.5 3.6-8.9 10.1-8.9q22.2 0 44.5 0 0.6 0 1.1-0.1 0.6-0.1 1.2-0.2 0.5-0.1 1.1-0.2 0.6-0.1 1.1-0.3-0.2-0.6-0.4-1.1-0.2-0.6-0.5-1.1-0.2-0.6-0.5-1.1-0.2-0.6-0.5-1.1c-5.3-8.2-13-12.1-22.6-12.3-8-0.2-16.1 0-24.2 0-6.6 0-9.3-2.1-10.5-8.6-2.5-14.4-5-28.8-7.3-43.2q0-0.9-0.3-1.7-0.3-0.8-0.8-1.5-0.5-0.8-1.2-1.3-0.6-0.5-1.4-0.9c-5.7-2.6-11.2-5.4-16.7-8.3-2.8-1.6-3.9-0.8-5.2 1.9-6.3 12.8-12.8 25.4-19 38.3-2.4 4.9-5.6 7.6-11.2 8.1-21 1.9-41.9 4.2-62.8 6.1-5.6 0.4-9.3 1.8-12.5 7.3-7.6 13.5-19.9 20.5-35.5 21.3-7.3 0.3-10.5-3-10.5-10.1q0-29.4 0-58.7c0-7 3-10.1 9.9-10.2q1.7 0 3.3 0c21.4 1.7 42.2-2.5 63-6.6 4.6-1 4.4-4.2 4.9-7.2 2.1-12.2 4-24.5 6.1-36.7 1.6-9.4 3.7-11 13.1-11 17.5 0 35.1-0.1 52.7 0.1 3.9 0.1 5.5-0.7 5.2-5-0.4-7.7 0.4-15.4-0.2-23-0.7-8.5 7.5-13.7 15.3-8.6 8.7 5.8 17.7 10.9 26.8 16.1q0.8 0.5 1.8 0.8 0.9 0.4 1.9 0.6 0.9 0.3 1.9 0.3 1 0.1 2 0.1c15.8-1.7 31.6-3.7 47.4-5.7 5.3-0.7 8.8-4.7 8.4-9.1-0.5-4.8-4.5-8.1-10.3-7.3q-18.5 2.2-36.9 5.1c-5.2 0.8-9.5 0.2-13.7-3.3-11.8-9.9-23.9-19.4-36-28.8q-0.7-0.6-1.6-1-0.8-0.5-1.7-0.8-0.8-0.3-1.7-0.5-1-0.1-1.9-0.2c-19.7-0.1-39.5-0.6-59.3 0.1-10.5 0.4-20.9 3-31.4 4.6-2.7 0.5-5.4 1.5-8 1.5-8.4-0.1-12.3 3.9-14.7 11.9-4.2 13.4-9.8 26.4-14.5 39.6q-0.2 0.9-0.3 1.9 0 0.9 0.1 1.9 0.2 0.9 0.5 1.8 0.3 0.9 0.8 1.7c1 1.5 4.6 2 6.3 1.5 1.8-0.5 3.3-2.7 4.4-4.5 6-9.6 11.9-19.3 17.5-29.1 2.7-4.7 6.2-6.8 11.6-6.5 7.7 0.3 15.4 0 23.1 0.1 6.2 0 9.3 3.2 9.4 9.5q0.2 4.1 0 8.2c0 2-0.7 3.9-1.9 5.4-1.3 1.5-3 2.6-5 3-1.9 0.4-3.9 0.1-5.7-0.8-1.7-0.8-3.2-2.3-4-4.1-1-2.2-1.5-4.4-4.7-3.7-3.6 0.8-7.9-1.9-10.6 3.1q-7.8 13.9-16.5 27.2c-2.9 4.3-7.2 7.6-12.1 9.3-5 1.7-10.4 1.7-15.4 0-4.9-1.7-9.2-5-12.1-9.4-2.9-4.3-4.3-9.5-4-14.7q0.1-1.3 0.3-2.5 0.3-1.2 0.6-2.4 0.3-1.2 0.6-2.3 0.4-1.2 0.9-2.4c6.1-16.6 12.5-33.1 18.5-49.7 2-5.6 5.2-8.7 11.3-9.5q6.9-1 13.8-2.1h0.4 0.5l0.6-0.1 0.8-0.2 2.7-0.4 1.9-0.3 1.5-0.2 15.2-2.4 4.2-0.7 3.1-0.4 2.8-0.5 1.3-0.2 0.5-0.1 1.1-0.1 2.7-0.4c1.4-0.2 2-0.5 2-1.2q0-0.2 0-0.4-0.1-0.2-0.1-0.3-0.1-0.2-0.2-0.4-0.1-0.1-0.2-0.3-0.8-1.8-1.5-3.6-0.6-1.8-1.1-3.8-0.4-1.9-0.7-3.8-0.2-2-0.2-3.9h17.6c0.1 4.5 2 8.9 5.3 12.1 3.2 3.2 7.6 5 12.2 5 4.5 0 8.9-1.7 12.2-4.9 3.3-3.1 5.2-7.5 5.4-12q0-0.2 0-0.3h17.2q-0.1 1.2-0.3 2.4c-0.1 0.2 0 0.4-0.1 0.5-0.1 0.2-0.1 0.4-0.1 0.6-0.5 2.7-1.1 5.5-1.7 8.2-0.1 0.3-0.3 0.6-0.3 0.9q0 0 0 0.1 0 0 0 0 0 0 0 0 0 0 0 0c-0.1 0.4-0.1 0.6-0.2 1.1-0.1 0.4-0.2 0.6-0.2 0.7-0.4 2-1.4 2.9 1.7 3.4 0.7 0.1 1.4 0.2 2.2 0.4 0.1 0 0.3 0.1 0.5 0.1q0.9 0.2 1.7 0.5 0.8 0.3 1.6 0.6 0.8 0.4 1.5 0.8 0.7 0.4 1.5 0.9l0.1 0.1 0.2 0.2c11.8 9 23.4 18.3 34.8 27.7q0.9 0.8 2 1.4 1 0.6 2.2 0.9 1.2 0.3 2.4 0.4 1.2 0 2.4-0.2c10.7-1.6 21.3-3 32-4.6 14.9-2.2 28.7 7.3 30.6 21.4 2.1 15.5-8.2 28.6-23.9 30.4-16.6 1.9-33.3 4.2-50 6.3q-1.6 0.3-3.2 0.3-1.7 0-3.3-0.3-1.6-0.3-3.1-0.9-1.5-0.7-2.9-1.6c-5-3.3-10.4-6.1-15.5-9.4-3-1.9-3.7-0.9-3.3 1.9zm-141.3 108.1q0.2-2.6 0.3-5.3 0.2-2.7 0.2-5.4 0-2.6 0-5.3c0.1-0.9-1.8-2.5-2.9-2.6-3.8-0.3-7.7 0-11.5-0.1-2.4-0.1-3.1 0.8-3.1 3.1 0.1 5.9 0 11.6 0 17.7 0 6 0.1 12 0 18.1-0.1 3.2 1.1 3.3 3.5 1.9 6.7-3.8 11.7-9.1 12.9-16.8q0.3-2.6 0.6-5.3zm132.4-78.2q-0.7-0.5-1.5-0.8-0.8-0.4-1.7-0.6-0.8-0.2-1.7-0.3-0.8-0.2-1.7-0.2c-8.4-0.2-16.6-0.1-25.2-0.1-8.6 0-17.3 0.3-25.9-0.1-4.4-0.2-5.5 1.6-6.1 5.5-1.9 13-4.3 25.9-6.3 38.9-0.8 5-3.5 7.8-8.4 8.7-8.1 1.5-16.2 3.1-24.2 4.8-11.5 2.3-11.5 2.4-11.5 14 0 5.6 0 5.6 5.8 5 17.9-1.8 35.7-3.6 53.5-5.3q1.2 0 2.4-0.4 1.2-0.3 2.2-1 1-0.7 1.7-1.6 0.8-1 1.3-2.1c6.9-14.3 14-28.5 21.2-42.7 3-5.9 7.4-7.6 13-4.9 11.4 5.5 22.6 11.2 33.9 16.9q1.2 0.5 2.2 1.4 1 0.8 1.7 1.9 0.8 1 1.2 2.3 0.5 1.2 0.6 2.5c1.6 10.4 3.7 20.8 5.3 31.3 2 13.7 1.9 13.6 15.5 12.9 2.7-0.1 3.4-0.8 3.1-3.5-1.9-16.3-3.5-32.7-5.6-49q-0.1-0.9-0.5-1.8-0.3-0.8-0.8-1.6-0.5-0.8-1.1-1.4-0.6-0.7-1.4-1.2c-13.5-9.3-27.2-18.5-41-27.5zm-67.9-165.6q0.6-2.1 1.5-4.1 0.9-2.1 2-4 1.1-1.9 2.4-3.7-1.2 1.8-2.3 3.8-1.1 1.9-1.9 3.9-0.9 2-1.6 4.1-0.7 2.1-1.1 4.3 0.4-2.2 1-4.3zm57.1-29.7h-16.5q8.4 0 16.5 0z"/>
		<path id="Layer" fill-rule="evenodd" class="s0" d="m421.6 479.7q-59.6 0-119.2 0c-3.8 0-6 0.7-8.1 4.4-2.2 4-5.5 7.3-9.4 9.7-4 2.3-8.5 3.6-13.1 3.6-4.6 0-9.1-1.2-13.1-3.5-3.9-2.3-7.2-5.6-9.5-9.6-2.2-3.8-4.6-4.7-8.6-4.6-15.7 0.1-31.5 0-47.2 0.1-4.4 0-7.5-1.7-9.1-5.8-1.4-3.7-0.6-7.5 2.8-9.8q0.8-0.4 1.6-0.8 0.9-0.4 1.8-0.6 0.9-0.3 1.8-0.4 1-0.1 1.9-0.1 23.9-0.3 47.8 0c3.3 0 5.1-0.8 6.8-3.9 1-2.1 2.3-4.1 3.9-5.8 1.6-1.7 3.4-3.2 5.4-4.4 2-1.2 4.2-2.1 6.5-2.7 2.2-0.6 4.6-0.9 6.9-0.8 10.3 0 18.2 4.5 22.9 13.4 2 3.8 4.3 4.2 7.7 4.2q118.9-0.1 237.9 0c1.6 0 3.3-0.1 4.9 0 2.1 0.2 4 1.3 5.4 2.8 1.4 1.6 2.1 3.6 2.2 5.7 0 2.1-0.7 4.2-2 5.8-1.4 1.6-3.2 2.7-5.3 3.1q-0.6 0-1.2 0-0.7 0-1.3 0-0.6 0-1.2 0-0.6 0-1.2 0zm-141.3-8.9c0-3.5-2.1-6.7-5.4-8.1-3.3-1.4-7.1-0.6-9.6 2-2.5 2.5-3.3 6.3-1.9 9.6 1.4 3.3 4.7 5.4 8.2 5.4q1.8-0.1 3.3-0.8 1.6-0.7 2.8-2 1.2-1.2 1.9-2.8 0.7-1.5 0.7-3.3z"/>
		<path id="Layer" fill-rule="evenodd" class="s0" d="m535.3 356.4q0-33.8 0-67.6c0-8.4 2.8-11.2 11.1-11.2q15.7 0 31.3 0c7.3 0 10.3 3.1 10.3 10.4q0 68.6 0 137.3c0 7.3-3 10.4-10.3 10.4q-16.2 0-32.4 0c-6.8 0-9.9-3.2-9.9-10.1q-0.1-34.6-0.1-69.2zm35.2-52.3c0-9 0-9-8.7-9-8.8 0-8.9 0-8.9 8.8 0 8.8 0 8.8 9 8.8 8.6 0.1 8.6 0.1 8.6-8.5zm-8.8 26.1c-8.8 0-8.8 0-8.8 8.5 0 9.1 0 9.1 9.1 9.1 8.5 0 8.5 0 8.5-8.7 0-8.7 0-8.9-8.9-8.9zm8.8 43.9c0-8.7 0-8.7-8.5-8.7h-0.5c-8.6 0-8.6 0-8.6 8.6 0 9 0 9 8.8 9 8.8 0 8.8 0.1 8.8-8.8zm-9 44c9 0 9 0 9-8.8v-0.5c0-8.4 0-8.4-8.3-8.4-9.3 0-9.3 0-9.3 9.1 0 8.7 0 8.7 8.6 8.7z"/>
		<path id="Layer" class="s0" d="m497.8 163.4q40.1 0 80.2 0c26.4 0 45.2 18.9 45.2 45.3q0 76.9 0 153.7 0 0.6 0 1.1 0 0.6 0 1.1 0 0.6-0.1 1.1 0 0.6 0 1.1c-0.4 2.1-1.5 3.9-3.1 5.2-1.6 1.3-3.6 2-5.7 2-2.1 0-4.1-0.8-5.7-2.1-1.5-1.4-2.6-3.2-2.9-5.3q0-0.6 0-1.2-0.1-0.6-0.1-1.3 0-0.6 0.1-1.2 0-0.6 0-1.2v-150.5c0-19.9-10.4-30.3-30.5-30.3h-159.3q-0.6 0-1.2 0-0.7 0-1.3 0-0.6 0-1.2 0-0.6 0-1.2-0.1c-2.1-0.3-3.9-1.4-5.3-3-1.3-1.6-2-3.6-2-5.7 0-2.1 0.7-4.1 2.1-5.7 1.3-1.6 3.2-2.6 5.2-3q0.6 0 1.1 0 0.6-0.1 1.2-0.1 0.5 0 1.1 0 0.5 0 1.1 0.1z"/>
		<path id="Layer" class="s0" d="m157.4 277.6q-8.5 0-17 0c-5.7 0-9.3-3.5-9.3-8.7-0.1-5.1 3.5-8.8 9-8.8q17.3-0.1 34.6 0c5.6 0 9.1 3.8 9 8.9-0.1 5.2-3.6 8.5-9.3 8.6-5.7 0.1-11.3 0-17 0z"/>
		<path id="Layer" class="s0" d="m157.8 295.2c5.4 0 10.9-0.1 16.4 0 6 0.1 9.7 3.6 9.5 8.9-0.1 5.1-3.6 8.5-9.3 8.6q-17.1 0.1-34.1 0c-5.6 0-9.2-3.6-9.2-8.7 0-5.1 3.5-8.7 9.1-8.8 5.8-0.1 11.7 0 17.6 0z"/>
		<path id="Layer" class="s0" d="m157.1 347.9q-8.2 0-16.5 0c-6-0.1-9.6-3.6-9.5-8.9 0-5.1 3.6-8.6 9.3-8.6q17-0.1 34.1 0c5.6 0 9.2 3.5 9.2 8.6 0 5.3-3.5 8.8-9.6 8.8-5.6 0.1-11.3 0.1-17 0.1z"/>
		<path id="Layer" class="s0" d="m152.8 383c-4.2 0-8.4 0.1-12.6 0-5.6-0.1-9.1-3.6-9.1-8.8 0-5.1 3.6-8.6 9.2-8.6q12.7-0.2 25.3 0c5.7 0 9.3 3.4 9.4 8.5 0.1 5.4-3.6 8.8-9.6 9-4.2 0-8.4-0.1-12.6-0.1z"/>
		<path id="Layer" class="s0" d="m148.3 418.2c-2.9 0-5.8 0.1-8.8 0-1.1 0-2.3-0.3-3.3-0.7-1.1-0.5-2-1.2-2.8-2-0.8-0.8-1.4-1.8-1.8-2.9-0.4-1.1-0.6-2.2-0.5-3.4-0.1-1.1 0.1-2.2 0.5-3.2 0.4-1 1-2 1.8-2.8 0.8-0.8 1.7-1.4 2.7-1.8 1-0.5 2.1-0.7 3.2-0.7q9.3-0.4 18.7 0c1.1 0 2.1 0.2 3.2 0.7 1 0.4 1.9 1.1 2.6 1.9 0.8 0.7 1.4 1.7 1.8 2.7 0.4 1 0.6 2.1 0.5 3.2 0.1 1.2-0.1 2.3-0.5 3.4-0.4 1.1-1 2-1.8 2.9-0.8 0.8-1.8 1.4-2.8 1.9-1.1 0.4-2.2 0.7-3.4 0.6-3 0.3-6.1 0.2-9.3 0.2z"/>
		<path id="Layer" class="s0" d="m333.1 166.7c0.2 4.7-0.1 9.4 0.1 14.2h-17.6q0-3.1 0-6.3c0.1-3.7 0.1-7.5 0.1-11.2h19.2c-1.2 0.3-1.9 1.2-1.8 3.3z"/>
		<path id="Layer" class="s0" d="m286.7 163.4h29.1c0 3.7 0 7.5-0.2 11.2 0 2.1-0.1 4.2 0 6.3h-30z"/>
		<path id="Layer" class="s0" d="m385.8 178.3c0 0.8-0.2 1.7-0.3 2.5h-17.2c0.2-4.6-0.1-9.3 0.1-14 0.1-2.1-0.5-3-1.8-3.4h19.4c0 5 0 10-0.2 14.9z"/>
		<path id="Layer" class="s0" d="m411.1 163.5l-0.1 17.3h-25.5q0.2-1.3 0.3-2.5c0.2-5 0.2-9.9 0.2-14.9z"/>
		<path id="Layer" class="s0" d="m605.6 361.7l17.6 0.7v39l-17.4 1.5-0.2-41.2z"/>
		<path id="Layer" class="s0" d="m295 637.9l-0.8-17.5h43.4l-4.2 17.4-38.4 0.1z"/>
		<path id="Layer" class="s0" d="m307.7 263.7l16.6-3.5 1 35-19.1 2.1 1.5-33.6z"/>
		<path id="Layer" class="s0" d="m418.9 386.2l4.6 49.7h-20l-0.1-35.1"/>
		<path id="Layer" fill-rule="evenodd" class="s0" d="m386 163.3h-19.3q-0.3-0.1-0.6-0.1-0.2-0.1-0.5-0.1-0.2 0-0.5 0-0.3 0-0.5 0c-4.6 0.1-9 0-13.7 0-4.8 0-9.5 0.1-14.3 0q-0.2 0-0.4 0-0.2 0-0.4 0-0.2 0-0.4 0-0.2 0.1-0.4 0.1h-19.2q-0.1-2.3 0-4.7 0-2.4 0.2-4.7 0.1-2.4 0.4-4.7 0.2-2.4 0.6-4.7 0.5-2.2 1.1-4.3 0.7-2.1 1.6-4.1 0.9-2 1.9-3.9 1.1-2 2.3-3.8l0.4-0.5q1.7-2.3 3.7-4.3 2-2 4.2-3.7 2.2-1.7 4.6-3.2 2.4-1.4 5-2.5h0.1q1.7-0.7 3.4-1.3 1.8-0.6 3.5-1 1.8-0.4 3.6-0.7 1.8-0.3 3.7-0.5h19.1c7.7 0.1 10.7 3 10.7 10.6 0 10.2 0 20.4 0 30.7 0 3.9 0.1 7.7 0.1 11.4zm-17.7-20.4c-0.1-4 0.1-8-0.1-12.1q-0.1-0.4-0.2-0.8-0.2-0.3-0.4-0.7-0.3-0.3-0.6-0.6-0.3-0.2-0.7-0.4c-10.7-2.8-25.6 4.4-30.2 14.3-1.1 2.4-0.8 3.2 2 3.2 4.5-0.1 9.3 0 13.7 0q6.6 0 13.2 0c2.1 0.1 3.5-0.3 3.3-2.9z"/>
		<path id="Layer" class="s0" d="m317 144.6q-0.4 2.3-0.6 4.7-0.3 2.3-0.5 4.7-0.1 2.3-0.2 4.7 0 2.3 0 4.7-0.2-2.3-0.2-4.7 0-2.4 0.2-4.8 0.1-2.3 0.4-4.7 0.4-2.3 0.9-4.6z"/>
		<path id="Layer" class="s0" d="m341.8 114.3q-2.6 1.1-5 2.5-2.4 1.5-4.7 3.2-2.2 1.7-4.1 3.7-2 2-3.7 4.2 1.6-2.3 3.6-4.3 1.9-2 4.1-3.8 2.2-1.7 4.7-3.1 2.4-1.4 5.1-2.4z"/>
		<path id="Layer" class="s0" d="m342 114.2q1.6-0.7 3.4-1.3 1.7-0.6 3.5-1 1.8-0.4 3.6-0.7 1.8-0.3 3.6-0.5c-3.6 0.3-10.1 1-14.1 3.5z"/>
		<path id="Layer" class="s0" d="m385.9 121.2c0-7.6-3-10.5-10.7-10.6 12-1.1 10.7 10.6 10.7 10.6z"/>
		<path id="Layer" class="s0" d="m385.9 151.9c0-10.3 0-20.5 0-30.7l0.1 42.2c0-3.8-0.1-7.6-0.1-11.5z"/>
		<path id="Layer" class="s0" d="m393.6 202.2l-3.9 12.7c0 0-39.7-3.1-42.1-4.2-2.4-1-67.6 8.8-67.6 8.8l-1.7-14.9h0.4 0.5l0.6-0.1 0.8-0.2 2.7-0.4 1.9-0.2 1.5-0.3 15.2-2.3 4.2-0.7 3.1-0.5 2.8-0.4 1.2-0.2 0.6-0.1 1-0.2 2.7-0.4c1.5-0.2 2-0.7 2.1-1.2q0-0.1 0-0.3-0.1-0.2-0.1-0.4-0.1-0.2-0.2-0.3-0.1-0.2-0.2-0.3c-3.7-4.8-3.5-15.1-3.5-15.1h17.6c0.1 4.5 2 8.9 5.2 12.1 3.3 3.2 7.7 5 12.2 5 4.6 0 9-1.7 12.3-4.9 3.3-3.2 5.2-7.5 5.4-12.1q0-0.1 0-0.2h17.2q0 0.3 0 0.6-0.1 0.3-0.1 0.6-0.1 0.3-0.1 0.6-0.1 0.3-0.1 0.6c0 0.2-0.1 0.3-0.1 0.5 0 0.2 0 0.4-0.1 0.6-0.5 2.5-1.3 5.8-1.8 8.2q-0.1 0.5-0.2 0.9 0 0 0 0 0 0 0 0.1 0 0 0 0 0 0 0 0-0.1 0.6-0.2 1c-0.1 0.3-0.2 0.7-0.2 0.8-0.2 0.8-3.3 2.8 1.7 3.4q0.3 0 0.5 0 0.3 0.1 0.6 0.1 0.2 0.1 0.5 0.1 0.3 0.1 0.5 0.2c0.2 0 0.4 0.1 0.6 0.1q0.8 0.2 1.6 0.5 0.8 0.3 1.6 0.7 0.8 0.3 1.5 0.7 0.8 0.4 1.5 0.9l0.2 0.1z"/>
		<path id="Layer" class="s0" d="m318.7 178.9q-0.1 0.3-0.3 0.6-0.2 0.3-0.5 0.5-0.3 0.2-0.6 0.4-0.3 0.2-0.7 0.3-0.3 0.1-0.7 0.2-0.3 0-0.7 0-0.4 0-0.7-0.1-0.4-0.1-0.7-0.3-0.3-0.1-0.6-0.4-0.3-0.2-0.5-0.4-0.2-0.3-0.4-0.6-0.2-0.3-0.3-0.7-0.1-0.3-0.2-0.7 0-0.4 0-0.7 0-0.4 0.1-0.7 0.1-0.7 0.3-1.4l-0.2 1q0.1-1.1 0.2-2.2 0.1-1.1 0.1-2.2 0-1.1 0-2.2-0.1-1.1-0.2-2.2c0-0.7 0.3-1.4 0.7-2.1 0.4-0.6 0.9-1 1.6-1.3 0.7-0.3 1.4-0.4 2.1-0.2 0.7 0.1 1.4 0.5 1.9 1q0.2 0.2 0.4 0.5 0.2 0.3 0.4 0.7 0.1 0.3 0.2 0.7 0.1 0.3 0.1 0.7 0.1 1.4 0.1 2.8 0 1.4 0 2.8-0.1 1.4-0.2 2.7-0.2 1.4-0.4 2.8-0.1 0.4-0.3 0.7z"/>
		<path id="Layer" class="s0" d="m382.4 168.2q0-0.4-0.1-0.8 0-0.3 0.1-0.7 0-0.3 0.1-0.7 0.1-0.3 0.3-0.7c0.4-0.6 0.9-1.1 1.6-1.4 0.6-0.3 1.3-0.5 2-0.4 0.8 0.1 1.4 0.4 2 0.9 0.5 0.5 0.9 1.1 1.1 1.8q0.2 0.7 0.3 1.4 0.1 0.7 0.2 1.4 0.1 0.7 0.2 1.4 0 0.7 0 1.4c0 1.6-0.1 3.2-0.1 4.8q0 0.8-0.3 1.4-0.3 0.7-0.8 1.2-0.5 0.5-1.2 0.8-0.7 0.3-1.4 0.3-0.7 0-1.4-0.3-0.7-0.3-1.2-0.8-0.5-0.5-0.8-1.2-0.3-0.6-0.3-1.4l0.1-3.2q0.1-0.5 0.1-0.9 0-0.4 0-0.8 0-0.4 0-0.8 0-0.4-0.1-0.8l0.2 0.9c-0.2-1-0.4-1.9-0.5-2.9z"/>
		<path id="Layer" class="s0" d="m382.9 173.6q0-0.3 0-0.5 0-0.3 0.1-0.5 0.1-0.2 0.1-0.4 0.1-0.3 0.3-0.5l0.5-0.7q0.2-0.2 0.4-0.3 0.2-0.2 0.4-0.3 0.2-0.1 0.4-0.2 0.2-0.1 0.5-0.2l0.9-0.1q0.4 0 0.8 0.1 0.3 0.1 0.7 0.2 0.3 0.2 0.6 0.4 0.3 0.2 0.6 0.4 0.1 0.1 0.3 0.3 0.1 0.1 0.2 0.3 0.1 0.1 0.1 0.3 0.1 0.1 0.2 0.3 0.1 0.2 0.1 0.3 0.1 0.2 0.1 0.4 0.1 0.2 0.1 0.4 0 0.2 0 0.4 0 0.1 0 0.3 0 0.2 0 0.4 0 0.2 0 0.4 0 0.1 0 0.3 0 0.3 0 0.5-0.1 0.3-0.1 0.5-0.1 0.2-0.2 0.4-0.1 0.3-0.2 0.5l-0.6 0.7q-0.1 0.2-0.3 0.3-0.2 0.2-0.4 0.3-0.2 0.1-0.5 0.2-0.2 0.1-0.4 0.2l-1 0.1q-0.2 0-0.4 0-0.1 0-0.3-0.1-0.2 0-0.4-0.1-0.2 0-0.3-0.1-0.2-0.1-0.4-0.1-0.1-0.1-0.3-0.2-0.1-0.1-0.3-0.2-0.1-0.1-0.2-0.3-0.2-0.1-0.3-0.2-0.1-0.2-0.2-0.3-0.1-0.2-0.2-0.3 0-0.2-0.1-0.4-0.1-0.1-0.1-0.3-0.1-0.2-0.2-0.4 0-0.2 0-0.4 0-0.1 0-0.3 0-0.2 0-0.4 0-0.2 0-0.4 0-0.1 0-0.3 0-0.2 0-0.4z"/>
		<path id="Layer" class="s0" d="m388.2 179.7q-0.2 0.1-0.4 0.3-0.2 0.1-0.4 0.2-0.2 0.2-0.4 0.2-0.2 0.1-0.4 0.2l-1 0.1q-0.3 0-0.5 0-0.2 0-0.5-0.1-0.2-0.1-0.4-0.1-0.3-0.1-0.5-0.3l-0.7-0.5q-0.1-0.2-0.3-0.3-0.1-0.1-0.2-0.3-0.1-0.1-0.1-0.3-0.1-0.2-0.2-0.3-0.1-0.4-0.2-0.7-0.1-0.4-0.1-0.7 0-0.4 0.1-0.8 0.1-0.3 0.2-0.7 0.1-0.1 0.2-0.3 0-0.1 0.1-0.3 0.1-0.1 0.2-0.3 0.2-0.1 0.3-0.2l-0.6 0.7q0 0 0.1-0.1 0 0 0-0.1 0.1 0 0.1-0.1 0-0.1 0-0.1l-0.3 0.9q0.1-0.3 0.2-0.5 0-0.2 0.1-0.5 0.1-0.2 0.2-0.5 0-0.2 0.1-0.5 0-0.2 0.1-0.4 0.1-0.2 0.2-0.4 0.2-0.2 0.3-0.4 0.2-0.2 0.3-0.4l0.8-0.6q0.2-0.1 0.4-0.2 0.2-0.1 0.5-0.1 0.2-0.1 0.4-0.1 0.3-0.1 0.5-0.1l1 0.2q0.3 0.1 0.7 0.2 0.3 0.2 0.5 0.4 0.3 0.2 0.6 0.5 0.2 0.3 0.4 0.6 0.1 0.1 0.2 0.3 0 0.1 0.1 0.3 0.1 0.2 0.1 0.4 0 0.2 0 0.3 0.1 0.2 0.1 0.4 0 0.2 0 0.4 0 0.2 0 0.3 0 0.2-0.1 0.4 0 0.2 0 0.3-0.1 0.2-0.1 0.4-0.1 0.1-0.1 0.3-0.1 0.2-0.2 0.3 0 0.1 0 0.2 0 0.1-0.1 0.1 0 0.1 0 0.2 0 0.1-0.1 0.1 0 0.2-0.1 0.3 0 0.2-0.1 0.3-0.1 0.1-0.1 0.3-0.1 0.1-0.1 0.2-0.1 0.2-0.2 0.3-0.1 0.1-0.2 0.2-0.1 0.2-0.2 0.3-0.1 0.1-0.2 0.2z"/>
		<path id="Layer" class="s0" d="m372 184.7q-0.4 0-0.7-0.1-0.4-0.1-0.7-0.2-0.4-0.1-0.7-0.3-0.3-0.2-0.5-0.5-0.5-0.5-0.8-1.2-0.3-0.6-0.3-1.4 0-0.7 0.3-1.4 0.3-0.6 0.8-1.2 0.2-0.2 0.5-0.4 0.3-0.2 0.7-0.4 0.3-0.1 0.6-0.2 0.4 0 0.8 0c1.1 0.1 2.2 0.1 3.4 0.1q0.4 0 0.8 0 0.4 0 0.9 0 0.4 0 0.8 0 0.4 0 0.8-0.1l-0.9 0.2q0.1-0.1 0.3-0.1 0.2-0.1 0.3-0.1 0.2-0.1 0.3-0.1 0.2-0.1 0.4-0.2 0.3-0.1 0.7-0.1 0.4-0.1 0.7-0.1 0.4 0 0.8 0.1 0.3 0 0.7 0.1c0.9 0.3 1.7 0.9 2.2 1.8 0.5 0.8 0.6 1.8 0.4 2.7-0.3 1-0.9 1.8-1.8 2.3-0.8 0.4-1.8 0.6-2.8 0.3q0 0 0 0-0.1 0-0.1 0 0 0-0.1 0 0 0 0 0l0.9 0.1h-0.2l1-0.1q-0.2 0-0.3 0.1-0.1 0-0.2 0-0.2 0.1-0.3 0.1-0.1 0.1-0.2 0.1-0.2 0.1-0.4 0.1-0.2 0.1-0.5 0.1-0.2 0.1-0.4 0.1-0.2 0-0.4 0.1-0.3 0-0.6 0-0.3 0-0.5 0-0.3 0-0.6 0.1-0.3 0-0.6-0.1c-1.5 0.1-3 0-4.5-0.1z"/>
		<path id="Layer" class="s0" d="m381.1 184.4q-0.2 0-0.5-0.1-0.2 0-0.5-0.1-0.2 0-0.4-0.1-0.2-0.1-0.5-0.2l-0.7-0.6q-0.2-0.2-0.3-0.4-0.2-0.2-0.3-0.4-0.1-0.2-0.2-0.4-0.1-0.2-0.1-0.4l-0.2-1q0-0.2 0-0.4 0-0.2 0.1-0.4 0-0.2 0.1-0.3 0.1-0.2 0.2-0.4 0.1-0.3 0.3-0.6 0.1-0.3 0.4-0.6 0.3-0.2 0.6-0.4 0.3-0.2 0.6-0.3 0.2-0.1 0.3-0.2 0.2 0 0.4-0.1 0.2 0 0.4 0 0.2 0 0.4 0h0.3q0.3 0 0.5 0 0.2 0 0.5 0.1 0.2 0.1 0.4 0.1 0.3 0.1 0.5 0.3l0.7 0.5q0.2 0.2 0.3 0.4 0.2 0.2 0.3 0.4 0.1 0.2 0.2 0.4 0.1 0.2 0.1 0.5l0.2 0.9q0 0.2 0 0.4 0 0.2-0.1 0.4 0 0.2-0.1 0.4-0.1 0.1-0.1 0.3-0.1 0.2-0.2 0.3 0 0.2-0.1 0.3-0.1 0.2-0.2 0.3-0.2 0.2-0.3 0.3-0.3 0.2-0.6 0.4-0.3 0.2-0.6 0.4-0.3 0.1-0.7 0.2-0.3 0-0.7 0.1h-0.3z"/>
		<path id="Layer" class="s0" d="m381.5 184.4q-0.2 0-0.4-0.1-0.3 0-0.5-0.1-0.3 0-0.5-0.1-0.2-0.1-0.4-0.2l-0.8-0.6q-0.1-0.2-0.3-0.4-0.1-0.2-0.2-0.4-0.2-0.2-0.2-0.4-0.1-0.2-0.2-0.4l-0.1-1q0-0.2 0-0.4 0-0.2 0-0.4 0.1-0.2 0.1-0.3 0.1-0.2 0.2-0.4 0.1-0.3 0.3-0.6 0.2-0.3 0.4-0.6 0.3-0.2 0.6-0.4 0.3-0.2 0.6-0.3 0.2-0.1 0.4-0.2 0.2 0 0.3-0.1 0.2 0 0.4 0 0.2 0 0.4 0h0.2q0.3 0 0.5 0 0.2 0 0.5 0.1 0.2 0.1 0.4 0.1 0.3 0.1 0.5 0.3l0.7 0.5q0.2 0.2 0.3 0.4 0.2 0.2 0.3 0.4 0.1 0.2 0.2 0.4 0.1 0.2 0.2 0.5l0.1 0.9q0 0.2 0 0.4 0 0.2-0.1 0.4 0 0.2-0.1 0.4 0 0.1-0.1 0.3-0.1 0.2-0.2 0.3 0 0.2-0.1 0.3-0.1 0.2-0.2 0.3-0.2 0.2-0.3 0.3-0.2 0.2-0.6 0.4-0.3 0.2-0.6 0.4-0.3 0.1-0.7 0.2-0.3 0-0.7 0.1h-0.2z"/>
		<path id="Layer" class="s0" d="m381.9 184.4c4.7 0 4.7-7.4 0-7.4-4.7 0-4.7 7.4 0 7.4z"/>
		<path id="Layer" class="s0" d="m383.8 160.8q0.6 0.3 1.1 0.8 0.5 0.5 0.8 1.2 0.3 0.6 0.3 1.3 0 0.8-0.3 1.4-0.2 0.7-0.8 1.2-0.5 0.5-1.1 0.8-0.7 0.3-1.4 0.3c-3-0.1-6.1-0.1-9.1-0.1q-0.7-0.1-1.4-0.3-0.6-0.3-1.2-0.8-0.5-0.6-0.8-1.2-0.2-0.7-0.3-1.4 0.1-0.4 0.1-0.7 0.1-0.4 0.2-0.7 0.2-0.4 0.4-0.7 0.2-0.3 0.4-0.5 0.3-0.3 0.6-0.5 0.3-0.2 0.6-0.3 0.4-0.1 0.7-0.2 0.4-0.1 0.7-0.1c3 0 6.1 0 9.1 0.2q0.7 0 1.4 0.3z"/>
		<path id="Layer" class="s0" d="m373.2 160.2q0.2 0 0.5 0.1 0.2 0 0.4 0.1 0.3 0 0.5 0.1 0.2 0.1 0.4 0.2l0.8 0.6q0.2 0.2 0.3 0.4 0.1 0.2 0.3 0.4 0.1 0.2 0.2 0.4 0.1 0.2 0.1 0.4l0.2 1q0 0.2 0 0.4-0.1 0.2-0.1 0.4 0 0.2-0.1 0.3-0.1 0.2-0.2 0.4-0.1 0.3-0.3 0.6-0.2 0.3-0.4 0.6-0.3 0.2-0.6 0.4-0.3 0.2-0.6 0.3-0.2 0.1-0.4 0.2-0.1 0-0.3 0.1-0.2 0-0.4 0-0.2 0.1-0.4 0h-0.2l-1.1-0.1-0.4-0.1q-0.2-0.1-0.5-0.2-0.2-0.1-0.4-0.2-0.2-0.1-0.4-0.2-0.2-0.2-0.3-0.4l-0.6-0.7q-0.1-0.2-0.2-0.4-0.1-0.3-0.2-0.5-0.1-0.2-0.1-0.5 0-0.2 0-0.4l0.1-1q0.1-0.2 0.1-0.4 0.1-0.1 0.2-0.3 0-0.2 0.1-0.3 0.2-0.1 0.3-0.3 0.2-0.3 0.4-0.5 0.3-0.3 0.6-0.4 0.3-0.2 0.7-0.3 0.3-0.1 0.7-0.2 0.1 0 0.3 0 0.2 0 0.4 0 0.2 0 0.4 0 0.2 0.1 0.3 0.1 0.1 0 0.2 0.1 0 0 0.1 0 0.1 0 0.1 0 0.1 0 0.2 0l-1-0.1h0.3z"/>
		<path id="Layer" class="s0" d="m371.4 166.6c4.7 0 4.7-7.4 0-7.4-4.7 0-4.7 7.4 0 7.4z"/>
		<path id="Layer" class="s0" d="m371.4 166.6q-0.3 0-0.5 0-0.2-0.1-0.5-0.1-0.2-0.1-0.4-0.2-0.3-0.1-0.5-0.2l-0.7-0.6q-0.2-0.1-0.3-0.3-0.2-0.2-0.3-0.4-0.1-0.2-0.2-0.4-0.1-0.3-0.2-0.5l-0.1-1q0-0.2 0-0.4 0-0.1 0.1-0.3 0-0.2 0.1-0.4 0-0.2 0.1-0.3 0.1-0.2 0.2-0.4 0-0.1 0.1-0.3 0.1-0.1 0.2-0.3 0.2-0.1 0.3-0.2 0.1-0.2 0.3-0.3 0.1-0.1 0.2-0.2 0.2-0.1 0.3-0.2 0.2 0 0.4-0.1 0.1-0.1 0.3-0.1 0.2-0.1 0.4-0.1 0.2-0.1 0.4-0.1 0.1 0 0.3 0h0.3q0.2 0 0.5 0 0.2 0.1 0.5 0.1 0.2 0.1 0.4 0.2 0.3 0.1 0.5 0.2l0.7 0.6q0.2 0.2 0.3 0.3 0.2 0.2 0.3 0.4 0.1 0.2 0.2 0.5 0.1 0.2 0.2 0.4l0.1 1q0 0.2 0 0.3 0 0.2-0.1 0.4 0 0.2-0.1 0.4 0 0.2-0.1 0.3-0.2 0.4-0.4 0.7-0.1 0.3-0.4 0.5-0.2 0.3-0.5 0.5-0.3 0.1-0.7 0.3-0.1 0.1-0.3 0.1-0.2 0.1-0.4 0.1-0.2 0.1-0.4 0.1-0.2 0-0.3 0h-0.3z"/>
		<path id="Layer" class="s0" d="m319.4 166.7c4.8 0 4.8-7.3 0-7.3-4.7 0-4.7 7.3 0 7.3z"/>
		<path id="Layer" class="s0" d="m319.4 166.7c4.8 0 4.8-7.3 0-7.3-4.7 0-4.7 7.3 0 7.3z"/>
		<path id="Layer" class="s0" d="m319 166.6q-0.3 0-0.5-0.1-0.3 0-0.5-0.1-0.2-0.1-0.4-0.2l-0.8-0.6q-0.2-0.3-0.4-0.6-0.2-0.3-0.4-0.6-0.1-0.3-0.2-0.7 0-0.4 0-0.7 0-0.4 0-0.7 0.1-0.4 0.3-0.7 0.1-0.4 0.3-0.7 0.2-0.3 0.4-0.5 0.3-0.3 0.6-0.5 0.3-0.2 0.6-0.3 0.4-0.1 0.7-0.2 0.4-0.1 0.7-0.1 1.1 0.2 2.2 0.3 1.1 0.1 2.2 0.1 1 0.1 2.1 0.1 1.1 0.1 2.2 0c0.7 0 1.4 0.2 2 0.6 0.6 0.4 1.1 1 1.4 1.7 0.3 0.7 0.3 1.4 0.2 2.1-0.1 0.7-0.5 1.4-1 1.9q-0.3 0.2-0.6 0.4-0.3 0.2-0.6 0.4-0.3 0.1-0.7 0.2-0.3 0.1-0.7 0.1-1.1 0-2.2 0-1.1-0.1-2.1-0.1-1.1-0.1-2.2-0.2-1.1-0.1-2.2-0.2-0.2 0-0.4-0.1z"/>
		<path id="Layer" class="s0" d="m328.3 167.2q-0.3 0-0.5-0.1-0.3 0-0.5-0.1-0.2 0-0.5-0.1-0.2-0.1-0.4-0.2l-0.7-0.6q-0.2-0.2-0.3-0.4-0.2-0.2-0.3-0.4-0.1-0.2-0.2-0.4-0.1-0.2-0.2-0.4l-0.1-1q0-0.4 0.1-0.7 0.1-0.4 0.2-0.7 0.1-0.3 0.3-0.6 0.2-0.3 0.5-0.6 0.1-0.1 0.2-0.3 0.2-0.1 0.3-0.2 0.2-0.1 0.3-0.1 0.2-0.1 0.4-0.2 0.1-0.1 0.3-0.1 0.2-0.1 0.4-0.1 0.1-0.1 0.3-0.1 0.2 0 0.4 0h1.3q0.3 0 0.5 0 0.2 0.1 0.5 0.1 0.2 0.1 0.4 0.2 0.3 0.1 0.5 0.2l0.7 0.6q0.2 0.2 0.3 0.3 0.2 0.2 0.3 0.4 0.1 0.2 0.2 0.5 0.1 0.2 0.1 0.4l0.2 1q0 0.2 0 0.4 0 0.2-0.1 0.3 0 0.2-0.1 0.4-0.1 0.2-0.1 0.4-0.1 0.1-0.2 0.3 0 0.1-0.1 0.3-0.1 0.1-0.2 0.3-0.2 0.1-0.3 0.2-0.1 0.2-0.2 0.3-0.2 0.1-0.3 0.2-0.2 0.1-0.3 0.2-0.2 0-0.4 0.1-0.1 0.1-0.3 0.1-0.2 0.1-0.4 0.2-0.2 0-0.4 0-0.2 0-0.3 0h-1.3z"/>
		<path id="Layer" class="s0" d="m329.9 166.7c4.7 0 4.7-7.3 0-7.3-4.7 0-4.7 7.3 0 7.3z"/>
		<path id="Layer" class="s0" d="m330.3 166.2c4.7 0 4.7-7.3 0-7.3-4.8 0-4.8 7.3 0 7.3z"/>
		<path id="Layer" class="s0" d="m331.4 164.8c4.8 0 4.8-7.3 0-7.3-4.7 0-4.7 7.3 0 7.3z"/>
		<path id="Layer" class="s0" d="m316.8 184.2c-0.7-0.7-1.1-1.6-1.1-2.6 0-1 0.4-1.9 1.1-2.6 0.7-0.7 1.6-1.1 2.6-1.1q5 0 10.1 0.2 0.7 0 1.4 0.3 0.7 0.2 1.2 0.8 0.5 0.5 0.8 1.1 0.2 0.7 0.3 1.4 0 0.8-0.3 1.4-0.3 0.7-0.8 1.2-0.5 0.5-1.2 0.8-0.7 0.3-1.4 0.3c-3.4-0.1-6.8-0.1-10.1-0.1-1 0-1.9-0.4-2.6-1.1z"/>
		<path id="Layer" class="s0" d="m329.5 177.9q0.3 0 0.5 0 0.2 0 0.5 0.1 0.2 0.1 0.4 0.2 0.2 0 0.5 0.2l0.7 0.5q0.2 0.2 0.3 0.4 0.2 0.2 0.3 0.4 0.1 0.2 0.2 0.4 0.1 0.2 0.1 0.5l0.2 0.9q0 0.2 0 0.4 0 0.2-0.1 0.4 0 0.2-0.1 0.4-0.1 0.1-0.1 0.3-0.1 0.2-0.2 0.3 0 0.2-0.1 0.3-0.1 0.2-0.2 0.3-0.2 0.2-0.3 0.3-0.1 0.1-0.2 0.2-0.2 0.1-0.3 0.2-0.2 0.1-0.3 0.2-0.2 0.1-0.4 0.1-0.1 0.1-0.3 0.2-0.2 0.1-0.4 0.1-0.2 0-0.4 0-0.2 0.1-0.4 0-0.1 0.1-0.3 0.1-0.2 0-0.4 0-0.2 0-0.4 0-0.1 0-0.3-0.1-0.3 0-0.6 0-0.3-0.1-0.6-0.1-0.3-0.1-0.6-0.1-0.3-0.1-0.6-0.2-0.2-0.1-0.5-0.2-0.2 0-0.4-0.2-0.2-0.1-0.4-0.2-0.2-0.2-0.3-0.3l-0.6-0.8q-0.1-0.2-0.2-0.4-0.1-0.2-0.2-0.5-0.1-0.2-0.1-0.4-0.1-0.3-0.1-0.5l0.2-1q0-0.2 0.1-0.3 0-0.2 0.1-0.4 0.1-0.1 0.2-0.3 0.1-0.1 0.2-0.2 0.1-0.2 0.2-0.3 0.1-0.2 0.3-0.3 0.1-0.1 0.2-0.2 0.2-0.1 0.3-0.2 0.2-0.1 0.4-0.2 0.1 0 0.3-0.1 0.2 0 0.3-0.1 0.2 0 0.4 0 0.2-0.1 0.4-0.1 0.1 0 0.3 0 0.2 0 0.4 0 0.2 0 0.4 0.1 0.1 0 0.3 0.1 0.1 0 0.3 0.1 0.2 0 0.3 0 0.2 0.1 0.3 0.1l-0.9-0.2q0.2 0.1 0.4 0.1 0.2 0 0.4 0 0.2 0 0.4 0 0.2 0 0.4-0.1z"/>
		<path id="Layer" class="s0" d="m330.2 178.4q0.4 0.1 0.7 0.2 0.3 0.2 0.6 0.4 0.3 0.2 0.6 0.4 0.2 0.3 0.4 0.6 0.2 0.3 0.4 0.6 0.1 0.3 0.2 0.7 0.1 0.3 0.1 0.7 0 0.4-0.1 0.7-0.1 0.4-0.2 0.7-0.2 0.3-0.4 0.6-0.2 0.3-0.4 0.6-0.3 0.3-0.6 0.5-0.3 0.2-0.6 0.3-0.3 0.1-0.7 0.2-0.3 0.1-0.7 0.1-1.4-0.1-2.7-0.2-1.4 0-2.8-0.1-1.3-0.2-2.7-0.3-1.3-0.2-2.7-0.3-0.3-0.1-0.6-0.3-0.4-0.2-0.6-0.4-0.3-0.2-0.6-0.5-0.2-0.2-0.4-0.5-0.3-0.7-0.4-1.4-0.1-0.7 0-1.4 0.2-0.7 0.7-1.3 0.4-0.6 1-1 0.4-0.1 0.7-0.2 0.4-0.2 0.7-0.2 0.4-0.1 0.7 0 0.4 0 0.8 0.1 0.7 0.1 1.4 0.2l-0.9-0.1c1.3 0.2 2.7 0.2 4.2 0.2 1.4 0.1 2.7 0.2 4.2 0.3q0.3 0 0.7 0.1z"/>
		<path id="Layer" class="s0" d="m319.5 177.6q0.2 0 0.5 0 0.2 0 0.4 0.1 0.3 0.1 0.5 0.1 0.2 0.1 0.4 0.3l0.8 0.5q0.1 0.2 0.3 0.4 0.1 0.2 0.3 0.4 0.1 0.2 0.2 0.4 0.1 0.2 0.1 0.5l0.2 0.9q0 0.2-0.1 0.4 0 0.2 0 0.4 0 0.2-0.1 0.4-0.1 0.1-0.2 0.3 0 0.2-0.1 0.3-0.1 0.2-0.2 0.3-0.1 0.2-0.2 0.3-0.1 0.2-0.2 0.3-0.3 0.2-0.6 0.4-0.3 0.2-0.6 0.3-0.4 0.2-0.7 0.3-0.4 0-0.7 0.1-0.3 0-0.5-0.1-0.2 0-0.5-0.1-0.2 0-0.4-0.1-0.3-0.1-0.5-0.2l-0.7-0.6q-0.2-0.2-0.3-0.4-0.2-0.2-0.3-0.4-0.1-0.2-0.2-0.4-0.1-0.2-0.2-0.4l-0.1-1q0-0.2 0-0.4 0-0.2 0.1-0.4 0-0.1 0.1-0.3 0-0.2 0.1-0.4 0.1-0.1 0.2-0.3 0-0.2 0.1-0.3 0.1-0.2 0.2-0.3 0.2-0.1 0.3-0.2 0.1-0.2 0.3-0.3 0.1-0.1 0.2-0.2 0.2-0.1 0.3-0.2 0.2-0.1 0.4-0.1 0.1-0.1 0.3-0.2 0.2 0 0.4-0.1 0.2 0 0.4 0 0.2 0 0.3 0z"/>
		<path id="Layer" class="s0" d="m319.4 184.9c4.7 0 4.7-7.4 0-7.4-4.7 0-4.8 7.4 0 7.4z"/>
		<path id="Layer" class="s0" d="m317.4 184.3c-0.6-0.4-1.1-1-1.4-1.7-0.3-0.6-0.3-1.4-0.2-2.1 0.1-0.7 0.5-1.4 1-1.9q0.3-0.2 0.6-0.4 0.3-0.2 0.6-0.4 0.3-0.1 0.7-0.2 0.3 0 0.7 0 1.2-0.1 2.5-0.1 1.2-0.1 2.4-0.1 1.2 0 2.5 0.1 1.2 0 2.4 0.1 0.4 0 0.7 0.1 0.4 0.1 0.7 0.2 0.4 0.2 0.7 0.4 0.3 0.2 0.5 0.4c0.5 0.5 0.9 1.2 1 1.9 0.2 0.7 0.1 1.4-0.2 2.1-0.3 0.7-0.7 1.2-1.3 1.6-0.6 0.5-1.3 0.7-2.1 0.7q-1.2-0.1-2.4-0.2-1.3 0-2.5 0-1.2 0-2.4 0-1.3 0-2.5 0.1c-0.7 0-1.4-0.2-2-0.6z"/>
		<path id="Layer" class="s0" d="m329.2 185q-0.2 0-0.5 0-0.2 0-0.4-0.1-0.3-0.1-0.5-0.1-0.2-0.1-0.4-0.3l-0.8-0.5q-0.1-0.2-0.3-0.4-0.1-0.2-0.3-0.4-0.1-0.2-0.2-0.4-0.1-0.2-0.1-0.5l-0.2-0.9q0-0.2 0-0.4 0.1-0.2 0.1-0.4 0-0.2 0.1-0.4 0.1-0.1 0.2-0.3 0-0.2 0.1-0.3 0.1-0.2 0.2-0.3 0.1-0.2 0.2-0.3 0.1-0.2 0.2-0.3 0.1-0.1 0.3-0.2 0.1-0.1 0.3-0.2 0.1-0.1 0.3-0.2 0.1-0.1 0.3-0.1 0.2-0.1 0.4-0.2 0.1-0.1 0.3-0.1 0.2 0 0.4 0 0.2-0.1 0.4 0h0.1q0.3 0 0.5 0 0.2 0 0.5 0.1 0.2 0 0.4 0.1 0.3 0.1 0.5 0.3l0.7 0.5q0.2 0.2 0.3 0.4 0.2 0.2 0.3 0.4 0.1 0.2 0.2 0.4 0.1 0.2 0.2 0.4l0.1 1q0 0.2 0 0.4 0 0.2-0.1 0.4 0 0.2-0.1 0.3 0 0.2-0.1 0.4-0.1 0.2-0.1 0.3-0.1 0.2-0.2 0.3-0.1 0.2-0.2 0.3-0.1 0.1-0.3 0.3-0.1 0.1-0.2 0.2-0.2 0.1-0.3 0.2-0.2 0.1-0.3 0.2-0.2 0.1-0.4 0.1-0.1 0.1-0.3 0.2-0.2 0.1-0.4 0.1-0.2 0-0.3 0-0.2 0.1-0.4 0.1h-0.1z"/>
		<path id="Layer" class="s0" d="m329.4 185.1c4.7 0 4.7-7.4 0-7.4-4.7 0-4.7 7.4 0 7.4z"/>
		<path id="Layer" class="s0" d="m329.6 185.3c4.7 0 4.7-7.3 0-7.3-4.8 0-4.8 7.3 0 7.3z"/>
	</g>
</svg>