<svg version="1.2" xmlns="http://www.w3.org/2000/svg" viewBox="0 0 720 720" width="720" height="720">
	<title>web-design-svg</title>
	<style>
		.s0 { fill: #325e64;stroke: #325e64;stroke-width: .6 } 
		.s1 { fill: none;stroke: #325e64;stroke-width: 8.8 } 
		.s2 { fill: #325e64 } 
	</style>
	<g id="Layer_1">
		<path id="Layer" class="s0" d="m608.9 188.6v315.2c0 3.4-0.7 6.8-2 9.9-1.2 3.1-3.1 5.9-5.5 8.3-2.4 2.4-5.2 4.3-8.3 5.6-3.2 1.2-6.5 1.9-9.9 1.9h-446.5c-3.4 0-6.7-0.7-9.8-1.9-3.2-1.3-6-3.2-8.4-5.6-2.4-2.4-4.2-5.2-5.5-8.3-1.3-3.1-2-6.5-2-9.9v-315.2c0-3.3 0.7-6.7 2-9.8 1.3-3.1 3.1-5.9 5.5-8.3 2.4-2.4 5.2-4.3 8.4-5.6 3.1-1.3 6.4-1.9 9.8-2h39.6v15h-39.6c-1.4 0-2.8 0.3-4.1 0.8-1.3 0.6-2.5 1.4-3.5 2.4-1 1-1.8 2.1-2.3 3.4-0.6 1.3-0.8 2.7-0.8 4.1v315.2c0 1.4 0.2 2.8 0.8 4.1 0.5 1.3 1.3 2.5 2.3 3.5 1 1 2.2 1.8 3.5 2.3 1.3 0.6 2.7 0.9 4.1 0.9h446.5c1.4 0 2.8-0.3 4.1-0.9 1.3-0.5 2.5-1.3 3.5-2.3 1-1 1.8-2.2 2.3-3.5 0.6-1.3 0.8-2.6 0.9-4.1v-315.2c-0.1-1.4-0.3-2.8-0.9-4.1-0.5-1.3-1.3-2.4-2.3-3.4-1-1-2.2-1.8-3.5-2.4-1.3-0.5-2.7-0.8-4.1-0.8h-52v-15h52c3.4 0.1 6.7 0.7 9.8 2 3.2 1.3 6 3.2 8.4 5.6 2.4 2.4 4.3 5.2 5.5 8.3 1.3 3.1 2 6.5 2 9.8z"/>
		<path id="Layer" fill-rule="evenodd" class="s0" d=""/>
		<path id="Layer" class="s0" d="m582.9 203.2v250.1h-445.9v-250.1l36.2 0.2v15l-21.2-0.2v220.2h36.6v3h357.9v-3h21.4v-220.2h-36.7v-15h51.7z"/>
		<path id="Layer" fill-rule="evenodd" class="s0" d="m440.4 604.3h-160.9c-1.3 0-2.7-0.3-3.8-1-1.2-0.8-2.2-1.8-2.8-3-0.6-1.2-0.9-2.6-0.8-3.9 0.1-1.4 0.5-2.7 1.3-3.8l2.6-3.8c14.4-20.5 20.8-43.3 18.5-66-0.1-1 0-2.1 0.4-3.1 0.3-1 0.8-1.9 1.5-2.7 0.7-0.7 1.6-1.3 2.5-1.8 1-0.4 2-0.6 3.1-0.6h115.9c1.1 0 2.1 0.2 3.1 0.6 0.9 0.5 1.8 1.1 2.5 1.8 0.7 0.8 1.2 1.7 1.5 2.7 0.4 1 0.5 2.1 0.4 3.1-2.3 22.7 4.1 45.5 18.5 66l2.6 3.8c0.8 1.1 1.3 2.4 1.3 3.8 0.1 1.3-0.1 2.7-0.8 3.9-0.6 1.2-1.6 2.2-2.7 3-1.2 0.7-2.6 1-3.9 1zm-130.5-74.8c0.5 20.6-5.1 41-16.4 59.9h133c-11.3-18.9-16.9-39.3-16.5-59.9z"/>
		<path id="Layer" fill-rule="evenodd" class="s0" d="m459.8 638h-199.7c-6.5 0-12.6-2.6-17.2-7.1-4.6-4.6-7.1-10.8-7.1-17.2 0-6.5 2.5-12.6 7.1-17.2 4.6-4.6 10.7-7.1 17.2-7.1h199.7c6.5 0 12.7 2.5 17.2 7.1 4.6 4.6 7.1 10.7 7.1 17.2 0 6.4-2.5 12.6-7.1 17.2-4.5 4.5-10.7 7.1-17.2 7.1zm-199.7-33.7c-2.5 0-4.9 1-6.6 2.8-1.8 1.7-2.8 4.1-2.8 6.6 0 2.5 1 4.8 2.8 6.6 1.7 1.8 4.1 2.7 6.6 2.7h199.7c2.5 0 4.9-0.9 6.6-2.7 1.8-1.8 2.8-4.1 2.8-6.6 0-2.5-1-4.9-2.8-6.6-1.7-1.8-4.1-2.8-6.6-2.8z"/>
	</g>
	<g id="Layer_2">
		<path id="Layer" class="s1" d="m531.2 137.4v23.7 14.9 8.4 67.2 169.3 21.7 3h-358v-308.1c0-16.3 8.8-25.1 25.1-25.1h307.6c16.4 0 25.2 8.7 25.3 25z"/>
		<path id="Layer" class="s1" d="m193.7 447.2c-4.2 0-5.4-0.9-5.4-5.3 0.1-59.8-0.2-129.9-0.3-189.7-0.1-4 0.8-5.4 5-5.3 9.2 0.3 18.4 0.2 27.5 0.1 4.5 0 8.1-1.4 9.3-6.3 1.1-4.8-2.6-8.8-8.5-8.9-9.6-0.2-19.3-0.2-28.9 0-3.5 0.1-4.4-0.9-4.4-4.3 0.1-26.5 0.1-53.1 0.1-79.7 0-7.6 2.7-10.3 10.4-10.3q153.8 0 307.6 0c7.5 0 10.2 2.8 10.2 10.5 0 26.1-0.1 52.1 0.1 78.2 0 4.4-1.1 5.6-5.6 5.6q-122.4-0.1-244.7-0.1-0.8 0-1.6 0-0.8 0-1.6 0.1-0.8 0-1.6 0.1-0.8 0.1-1.6 0.2c-3.7 1-5.9 3.5-5.7 7.5 0.2 3.7 2.2 6.2 5.9 6.9q0.8 0.1 1.7 0.2 0.8 0.1 1.7 0.2 0.8 0 1.7 0.1 0.8 0 1.7 0 121.6 0.1 243.2-0.1c5 0 6.5 1.1 6.5 6.3-0.2 59 0.2 128.3 0.2 187.3 0 7.4 1.1 6.6-6.4 6.6-52.6 0-105.4-1.5-158-1.5-52.9 0-105.6 1.5-158.5 1.6z"/>
		<path id="Layer" fill-rule="evenodd" class="s2" d="m209.8 348.1q0-33.2 0-66.4c0-7.5 2.5-10 10-10q66.4 0 132.7 0c7.7 0 10.4 2.7 10.4 10.3q0.1 66.1 0 132.2c0 7.9-2.8 10.7-10.7 10.7q-65.8 0-131.7 0c-8.2 0-10.7-2.6-10.7-11q0-32.9 0-65.8zm77.2-61.3c-19.2 0-38.3 0.1-57.5-0.1-3.6 0-4.8 1-4.7 4.7q0.2 29.2 0 58.5c0 3.9 0.7 4.6 4.6 3.4 12.7-3.9 24.9-2.9 36.1 4.8 7.5 5.2 14.6 11 22.2 16.2 8.9 6 18.3 6.4 27.5 0.3 2.3-1.5 4.7-3 7-4.5 6.6-4.1 13.6-6.5 21.4-5.7 3.4 0.4 4-0.6 4-3.7-0.1-23.1-0.1-46.2 0-69.3 0-3.7-1-4.7-4.7-4.6-18.6 0.1-37.3 0-55.9 0zm-1 122.7c19.1 0 38.3-0.1 57.5 0 3.1 0 4.3-0.8 4.1-4.1-0.2-7.2-0.1-14.4 0-21.6 0.1-2.9-0.9-3.9-3.8-4.2-7.4-0.9-12.8 2.8-18.5 6.6-15.1 10-30.5 10.9-45.9 0.6-5.7-3.8-11.1-8.1-16.4-12.4-10.5-8.4-21.7-10.8-34.3-4.9-2.6 1.2-4 2.7-3.9 5.9 0.2 9.8 0.2 19.6 0 29.5-0.1 3.7 1 4.7 4.7 4.6 18.8-0.1 37.6 0 56.5 0z"/>
		<path id="Layer" fill-rule="evenodd" class="s2" d="m242.7 212.2c-7.7 0-15.3 0.1-23 0-8.1-0.1-11.2-5.5-7.2-12.6q11.4-20 23-39.9c4.2-7 10.7-6.9 14.8 0.2q11.5 19.7 22.9 39.5c4.1 7.2 0.9 12.7-7.4 12.8-7.7 0.1-15.4 0-23.1 0zm11.7-15l-11.5-20c-4 6.9-7.6 13.2-11.5 20z"/>
		<path id="Layer" class="s2" d="m388.1 163.8q31.2 0 62.4 0c5.9 0 9.2 3.1 8.7 8.1-0.3 3.7-2.4 6-6.1 6.6q-0.6 0.1-1.2 0.2-0.6 0-1.2 0-0.6 0-1.2 0-0.6 0-1.3 0h-122.2c-6.6-0.1-10-2.7-9.9-7.6 0.1-4.7 3.5-7.3 9.7-7.3 8.8 0 17.6 0 26.5 0z"/>
		<path id="Layer" class="s2" d="m437.4 359c-17 0-34 0.1-51 0-2.2 0-5 0-6.5-1.2-2-1.5-3.9-4.4-3.8-6.7 0-2.2 2.1-4.9 4.1-6.4 1.6-1.1 4.4-1 6.6-1q50.6-0.1 101.1 0c2.1 0 4.8-0.2 6.2 0.9 2 1.7 4.4 4.4 4.4 6.7 0 2.3-2.3 5.1-4.4 6.7-1.4 1.2-4 1-6.1 1-16.9 0-33.7 0-50.6 0z"/>
		<path id="Layer" class="s2" d="m437 293.2c-17.2 0-34.4 0.1-51.5-0.2q-1.2-0.1-2.3-0.3-1.2-0.3-2.3-0.8-1.1-0.4-2-1.1-1-0.6-1.9-1.4c-3.1-3.4-1-9.3 3.5-10.7q0.9-0.3 1.7-0.4 0.8-0.2 1.7-0.3 0.8-0.1 1.7-0.1 0.8-0.1 1.7-0.1 50 0 100.1 0c1 0 2 0 2.9 0 5.5 0.5 8.5 3.2 8.5 7.7 0 4.6-3.2 7.6-8.8 7.6-17.7 0.1-35.3 0.1-53 0.1z"/>
		<path id="Layer" class="s2" d="m436.9 325.9q-24.7 0-49.5 0-0.7 0-1.4 0-0.6 0-1.3 0-0.7-0.1-1.4-0.1-0.6-0.1-1.3-0.2c-3.9-0.6-6.1-3.1-6.2-7-0.1-4.1 2.2-6.7 6.3-7.5q0.4-0.1 0.8-0.1 0.4-0.1 0.9-0.1 0.4 0 0.8 0 0.4 0 0.9 0.1h103.5c0.9 0 1.9-0.1 2.9 0 4.1 0.4 7 3.5 6.9 7.4-0.1 4.5-2.6 7.2-7 7.3-8.8 0.3-17.6 0.2-26.4 0.2-9.5 0-19 0-28.5 0z"/>
		<path id="Layer" class="s2" d="m437.2 391.7q-25 0-50 0-0.7 0-1.4 0-0.7 0-1.3 0-0.7 0-1.4-0.1-0.6 0-1.3-0.1c-3.9-0.7-6-3.3-6-7.2 0-3.9 2.1-6.5 5.9-7.3q0.6-0.1 1.1-0.1 0.6-0.1 1.1-0.1 0.6 0 1.1 0 0.6 0 1.1 0h102.5q1.5 0 3 0.1c4.4 0.3 6.9 2.6 7.2 7.1 0.3 4.2-2.6 7.5-7.1 7.6-11.3 0.2-22.6 0.1-33.9 0.1q-10.3 0-20.6 0z"/>
		<path id="Layer" class="s2" d="m352.4 195.5c8.7 0 17.4 0 26 0 6.2 0 9.6 2.7 9.8 7.4 0.1 4.8-3.5 7.9-9.8 7.9q-26.3 0.1-52.5 0c-6.4 0-9.9-3-9.8-7.9 0.2-4.6 3.6-7.4 9.7-7.4 8.9 0 17.8 0 26.6 0z"/>
		<path id="Layer" class="s2" d="m408.1 424.8h-21.1c-1.1 0-2.3 0.1-3.4 0-5-0.5-7.9-3.4-7.8-7.7 0-4.2 2.7-7.4 7.4-7.5q25.3-0.4 50.5 0c4.7 0.1 7.4 3.4 7.4 7.6-0.1 4.3-3 7.4-8 7.5-8.4 0.2-16.7 0.1-25 0.1z"/>
		<path id="Layer" fill-rule="evenodd" class="s2" d="m333.5 326.4c0 6.1-2.5 11.9-6.8 16.1-4.3 4.3-10.1 6.7-16.2 6.7-6-0.1-11.8-2.5-16.1-6.8-4.2-4.3-6.6-10.1-6.6-16.2 0-3 0.6-5.9 1.8-8.7 1.2-2.7 2.8-5.2 4.9-7.4 2.1-2.1 4.6-3.8 7.4-4.9 2.7-1.2 5.7-1.8 8.6-1.9 12.6-0.1 23 10.3 23 23.1zm-23 7.5c3.1 0 5.8-1.8 7-4.6 1.2-2.9 0.6-6.1-1.5-8.3-2.1-2.2-5.4-2.9-8.2-1.8-2.9 1.1-4.8 3.8-4.9 6.8q0 1.6 0.6 3 0.5 1.4 1.6 2.5 1.1 1.2 2.5 1.8 1.4 0.6 2.9 0.6z"/>
	</g>
</svg>