<svg version="1.2" xmlns="http://www.w3.org/2000/svg" viewBox="0 0 720 720" width="720" height="720">
	<title>web-dev-svg</title>
	<style>
		.s0 { fill: #325e64;stroke: #325e64;stroke-width: .6 } 
		.s1 { fill: #325e64 } 
	</style>
	<g id="Layer_2">
		<path id="Layer" class="s0" d="m406.5 523.4c0.1-1.1 0-2.1-0.4-3.1-0.3-1-0.8-1.9-1.5-2.7-0.7-0.8-1.6-1.4-2.5-1.8-1-0.4-2-0.7-3.1-0.6h47.6q1.1 1.1 2.1 2.2c8.7 8.8 8.9 9 18.6 1.2q0.5-0.5 1.2-1 0.6-0.5 1.2-0.9 0.7-0.4 1.4-0.8 0.7-0.4 1.4-0.7h6.5q0.3 0.1 0.6 0.3 0.4 0.2 0.7 0.4 0.3 0.2 0.6 0.4 0.4 0.2 0.7 0.4c1.7 1.3 4.1 1.9 6.2 2.5 2.1 0.6 2.9 1.7 3.1 3.7 0.3 2.4 0.6 4.8 1 7.2h-85.8q0.1-3.4 0.4-6.7z"/>
		<path id="Layer" class="s0" d="m404.6 517.6q0.5 0.6 0.9 1.3 0.4 0.6 0.7 1.4 0.2 0.7 0.3 1.5 0.1 0.8 0 1.6-0.3 3.3-0.4 6.7h-287.5c-3.4 0-6.7-0.7-9.8-2-3.1-1.3-6-3.2-8.3-5.5-2.4-2.4-4.3-5.2-5.6-8.3-1.3-3.1-1.9-6.5-2-9.8v-314.4c0.1-3.4 0.7-6.7 2-9.8 1.3-3.1 3.2-5.9 5.6-8.3 2.3-2.4 5.2-4.3 8.3-5.6 3.1-1.3 6.4-1.9 9.8-1.9h39.5v14.9h-39.5c-1.4 0-2.8 0.3-4.1 0.8-1.3 0.6-2.5 1.3-3.5 2.3-1 1-1.8 2.2-2.3 3.5-0.5 1.3-0.8 2.7-0.8 4.1v314.4c0 1.4 0.3 2.8 0.8 4.1 0.5 1.2 1.3 2.4 2.3 3.4 1 1 2.2 1.8 3.5 2.3 1.3 0.6 2.7 0.8 4.1 0.9h280.5q0.8 0 1.5 0.1 0.8 0.2 1.5 0.5 0.7 0.3 1.3 0.8 0.7 0.4 1.2 1z"/>
		<path id="Layer" class="s0" d="m446.6 515.2h25.9q-0.7 0.3-1.4 0.7-0.6 0.3-1.3 0.8-0.7 0.4-1.3 0.9-0.6 0.4-1.2 0.9c-9.7 7.9-9.9 7.7-18.6-1.1q-1-1.1-2.1-2.2z"/>
		<path id="Layer" class="s0" d="m581.1 352.4q0 0 0-0.1-0.1 0-0.1 0 0-0.1-0.1-0.1-0.4-0.3-0.9-0.5-0.5-0.2-1.1-0.2-0.5-0.1-1 0-0.5 0.1-1 0.3-0.1-0.9-0.2-1.8-0.1-0.5-0.3-0.9-0.1-0.4-0.4-0.8-0.3-0.4-0.6-0.8-0.3-0.3-0.7-0.5v-156.9c0-1.4-0.3-2.8-0.9-4.1-0.5-1.3-1.3-2.5-2.3-3.5-1-1-2.2-1.7-3.4-2.3-1.3-0.5-2.7-0.8-4.1-0.8h-51.9v-14.9h51.8c3.4 0 6.7 0.6 9.8 1.9 3.1 1.3 5.9 3.2 8.3 5.6 2.4 2.4 4.3 5.2 5.6 8.3 1.3 3.1 1.9 6.4 1.9 9.8v176.3q-0.4-0.5-0.8-1-0.4-0.5-0.8-1-0.4-0.5-0.9-1-0.4-0.4-0.9-0.9-0.1-0.4-0.4-0.8-0.3-0.4-0.6-0.7-0.4-0.4-0.8-0.6-0.4-0.2-0.9-0.3-0.5-2.8-1.2-5.6 0-0.3-0.1-0.5 0-0.3-0.2-0.6-0.1-0.2-0.3-0.4-0.1-0.3-0.3-0.5h-0.1q0-0.1-0.1-0.1z"/>
		<path id="Layer" class="s0" d="m542.7 518.9q-0.2 0.1-0.4 0.3-0.1 0.1-0.3 0.3-0.2 0.2-0.3 0.3 0.1-0.5 0.2-1.1 0.1-0.6 0.2-1.2 0.1-0.6 0.1-1.2 0-0.6 0-1.1h7v0.3q-0.6 0.2-1.1 0.4-0.5 0.3-1 0.6-0.6 0.2-1 0.6-0.5 0.3-1 0.7l-2 0.9q-0.2 0.1-0.4 0.2z"/>
		<path id="Layer" class="s0" d="m567.9 515.9q-0.1 0-0.2-0.1-0.1 0-0.2 0-0.1 0-0.1 0-0.1 0-0.2 0v-1.2q0.8-0.2 1.5-0.6 0.8-0.4 1.5-0.9 0.7-0.5 1.3-1 0.6-0.6 1.1-1.3 0.5 0.4 1 0.5 0.6 0.2 1.2 0.2 0.7 0 1.2-0.3 0.6-0.2 1-0.6c1.1 2.7 6 3.2 7.2-0.4q0.3-0.8 0.5-1.5 0.6 0.2 1.1 0.2 0.6 0 1.1-0.1 0.6-0.1 1-0.4 0.5-0.3 0.9-0.7 0.1 0 0.1 0 0.1 0 0.2 0 0-0.1 0.1-0.1 0.1 0 0.1 0-0.1 0.8-0.2 1.6-0.2 0.9-0.4 1.7-0.2 0.8-0.5 1.6-0.2 0.8-0.5 1.6-0.9-0.3-1.8-0.2-0.8 0.2-1.6 0.7-0.7 0.5-1.2 1.3-0.4 0.7-0.5 1.6c0 0.3-0.1 0.7-0.1 1.1-1.1 0.1-2.6 0.6-3 0.7q-0.3 0-0.5 0.1-0.3 0-0.5 0.1-0.3 0-0.5 0-0.3 0.1-0.6 0.1 0-0.3-0.2-0.6-0.1-0.3-0.2-0.5-0.2-0.3-0.4-0.5-0.2-0.3-0.4-0.5c-0.2-2.2-1.9-4.1-4.5-3-1.2 0.5-2.5 1-3.8 1.4z"/>
		<path id="Layer" class="s0" d="m540.6 526.7q-0.6 0.4-1 0.9-0.5 0.5-0.7 1.2-0.3 0.6-0.4 1.3h-1.5q0.1-0.1 0.1-0.2 0.1-0.1 0.2-0.2 0-0.1 0.1-0.1 0-0.1 0-0.2 0.6-0.8 1.1-1.6 0.3-0.2 0.5-0.3 0.3-0.2 0.6-0.3 0.2-0.2 0.5-0.4 0.2-0.1 0.5-0.3 0.2-0.2 0.4-0.4 0.3-0.2 0.4-0.5 0.2-0.2 0.4-0.5 0.1-0.2 0.2-0.5 0 0.2 0.1 0.4 0 0.1 0.1 0.3 0 0.2 0.1 0.4 0.1 0.1 0.2 0.3-0.1 0-0.2 0-0.1 0-0.1 0.1-0.1 0-0.2 0-0.1 0-0.1 0-0.7 0.2-1.3 0.6z"/>
		<path id="Layer" class="s0" d="m496.5 530.1h-4.5c-0.4-2.4-0.8-4.8-1-7.2-0.2-2.1-1-3.2-3.1-3.7-2.2-0.6-4.5-1.2-6.3-2.5q-0.3-0.2-0.6-0.4-0.3-0.3-0.6-0.5-0.4-0.1-0.7-0.3-0.3-0.2-0.7-0.3h16.9c-0.9 2.1-1.2 4.5 0 6.3l0.1 0.3q-0.2 0.3-0.3 0.6-0.2 0.3-0.3 0.6-0.1 0.4-0.2 0.7-0.1 0.4-0.2 0.7c-0.4 2.1-0.2 4.4 1.5 5.7z"/>
		<path id="Layer" class="s0" d="m477 439.2q0 0.4 0 0.8-0.1 0.3-0.1 0.7 0 0.4 0.1 0.8 0 0.3 0 0.7h-1.1q-0.1-0.3-0.2-0.7-0.1-0.3-0.2-0.6-0.2-0.3-0.3-0.6-0.2-0.3-0.3-0.6-0.2-0.3-0.4-0.5z"/>
		<path id="Layer" class="s0" d="m476.1 444.3q0-0.3 0-0.7 0-0.3-0.1-0.7-0.1-0.3-0.1-0.7h1.1q0 0.3 0.1 0.5 0 0.3 0 0.6 0.1 0.2 0.1 0.5 0.1 0.3 0.2 0.5 0.1 0.3 0.2 0.6 0.1 0.3 0.2 0.6 0.2 0.3 0.4 0.6 0.1 0.3 0.3 0.6-0.1 0.2-0.2 0.5-0.1 0.2-0.1 0.5-0.1 0.3-0.2 0.5-0.1 0.3-0.1 0.5 0 0.1 0 0.1 0 0 0 0 0 0.1 0 0.1 0 0 0 0-0.8-1.9-1.8-3.9 0-0.3 0-0.7z"/>
		<path id="Layer" class="s0" d="m436.6 454.1h-317.7v-249.5l36 0.2v14.9l-21.1-0.1v219.6h36.5v3h250.6c1.6 2.1 4.5 3.6 6.9 4.8q0.8 0.8 1.6 1.6 0.9 0.8 1.7 1.6 0.9 0.7 1.8 1.4 0.9 0.7 1.9 1.4 0 0 0.1 0.1 0.1 0 0.2 0.1 0 0 0.1 0.1 0.1 0 0.2 0c0.4 0.3 0.8 0.5 1.2 0.8z"/>
		<path id="Layer" class="s0" d="m562.9 355.6q-0.5-0.1-1 0-0.6 0-1 0.1-0.5 0.2-0.9 0.5-0.5 0.3-0.8 0.6l-0.3-0.3q-0.2-0.4-0.6-0.7-0.3-0.3-0.7-0.5-0.4-0.3-0.8-0.4-0.5-0.1-0.9-0.2c0.2-3.6-5-6.1-6.9-2.3q-0.2 0.4-0.3 0.8v-133.6h-36.7v-15h51.6v143.3q-0.1 0.2-0.1 0.4-0.1 0.1-0.1 0.3-0.1 0.1-0.1 0.3 0 0.1 0 0.3c-0.2 2.1-0.4 4.3-0.4 6.4z"/>
		<path id="Layer" class="s0" d="m561.2 426.2q0.4 0 0.9 0 0.4 0 0.8-0.1 0.3-0.2 0.7-0.4v15.5q-0.6 0.7-1.1 1.4-0.5 0.8-0.9 1.5-0.5 0.8-0.8 1.6-0.4 0.8-0.7 1.6c-0.6 1.6-1 3.3-1.8 4.8l-1.3 0.4q-0.3 0.1-0.6 0.3-0.3 0.1-0.6 0.3-0.2 0.2-0.5 0.5-0.2 0.2-0.4 0.5h-5q0.6-0.9 1-1.8 0.5-0.9 0.9-1.9 0.3-1 0.6-2 0.3-1 0.5-2c3.4-5.5 4.3-13.7 4.8-19.5q0.3 0 0.7 0 0.4-0.1 0.7-0.2 0.4-0.1 0.7-0.3 0.4-0.2 0.7-0.4 0.3 0.1 0.7 0.2z"/>
		<path id="Layer" fill-rule="evenodd" class="s0" d="m427.5 592.9c0.8 1.2 1.2 2.5 1.3 3.8 0.1 1.4-0.2 2.8-0.8 4-0.6 1.2-1.6 2.2-2.7 2.9-1.2 0.7-2.6 1.1-3.9 1.1h-160.4c-1.4 0-2.7-0.4-3.9-1.1-1.2-0.7-2.1-1.7-2.7-2.9-0.7-1.2-1-2.6-0.9-4 0.1-1.3 0.6-2.6 1.4-3.8l2.2-3.1 0.4-0.6c12.9-18.4 19.4-38.8 18.9-59.1q-0.1-3.4-0.5-6.7c-0.1-1.1 0.1-2.1 0.4-3.1 0.3-1 0.8-1.9 1.5-2.7 0.7-0.8 1.6-1.4 2.5-1.8 1-0.4 2-0.6 3.1-0.6h115.6c1.1-0.1 2.1 0.2 3.1 0.6 0.9 0.4 1.8 1 2.5 1.8 0.7 0.8 1.2 1.7 1.5 2.7 0.4 1 0.5 2 0.4 3.1q-0.4 3.3-0.4 6.7c-0.6 20.3 5.9 40.6 18.8 59.1l0.4 0.6 2.3 3.1zm-20-3.1c-11.2-18.9-16.8-39.2-16.4-59.7h-99.8c0.4 20.5-5.1 40.8-16.4 59.7z"/>
		<path id="Layer" fill-rule="evenodd" class="s0" d="m440.8 638.3h-199.2c-6.4 0-12.6-2.6-17.1-7.1-4.6-4.6-7.1-10.8-7.1-17.2 0-6.4 2.5-12.6 7.1-17.1 4.5-4.6 10.7-7.1 17.1-7.1h199.2c6.5 0 12.6 2.5 17.2 7.1 4.5 4.5 7.1 10.7 7.1 17.1 0 6.4-2.6 12.6-7.1 17.2-4.6 4.5-10.7 7.1-17.2 7.1zm-199.2-33.6c-2.4 0-4.8 1-6.6 2.7-1.7 1.8-2.7 4.1-2.7 6.6 0 2.5 1 4.9 2.7 6.6 1.8 1.8 4.2 2.7 6.6 2.7h199.2c2.5 0 4.9-0.9 6.6-2.7 1.8-1.7 2.8-4.1 2.8-6.6 0-2.5-1-4.8-2.8-6.6-1.7-1.7-4.1-2.7-6.6-2.7z"/>
		<path id="Layer" class="s0" d="m198.2 218.4q0 0.2-0.1 0.4 0 0.3-0.1 0.5 0 0.2 0 0.4h-43.1v-14.9h47.9q-0.8 0.6-1.4 1.2-0.7 0.7-1.3 1.4-0.6 0.7-1.1 1.5-0.6 0.7-1.1 1.5-0.5 0.9-0.7 1.9-0.2 1-0.2 2 0.1 1 0.4 1.9 0.4 1 1 1.8-0.1 0.2-0.2 0.4z"/>
		<path id="Layer" class="s0" d="m512 204.6v15h-52.5q0.1-0.6 0.2-1.2 0.2-0.6 0.3-1.2 0.1-0.6 0.1-1.2 0.1-0.7 0.1-1.3 0-0.1 0.1-0.3 0-0.1 0-0.3 0-0.2 0-0.3 0-0.2 0-0.3 0.1-0.5 0-0.9 0-0.4 0-0.8 0-0.5-0.1-0.9-0.1-0.4-0.1-0.8-0.1-0.7-0.2-1.4-0.1-0.7-0.3-1.4-0.1-0.6-0.3-1.3-0.2-0.7-0.4-1.3z"/>
		<path id="Layer" class="s0" d="m512 164.5v14.9h-59.1c-1.8-3.9-5.6-6.4-8.7-9.2q-3.4-2.9-6.8-5.7z"/>
		<path id="Layer" class="s0" d="m235.8 179.4h-77.7v-14.9h81.3c-2.8 3.2-4.8 7.6-3.7 10.8q0.1 0.1 0.1 0.1 0 0.1 0.1 0.2 0 0.1 0 0.2 0.1 0.1 0.1 0.2-0.1 1.7-0.2 3.4z"/>
		<path id="Layer" class="s0" d="m420.8 439.2v3h-11.8q0-1.5 0-3zm51.7 76q-0.7 0.3-1.4 0.7-0.7 0.4-1.3 0.8-0.7 0.4-1.3 0.9-0.6 0.5-1.2 1c-9.7 7.8-9.9 7.6-18.6-1.2q-1-1.1-2.1-2.2zm117-18.4v7.7q0 1.7-0.2 3.4-0.2 1.7-0.7 3.4-0.4 1.6-1.1 3.2-0.7 1.6-1.6 3.1-2.3 2.3-4.6 4.6c-2.6 2.6-5.4 2.7-8.3 0.5-3.3-2.4-6.7-4.7-9.7-7.4l-0.3-0.1c-1.7-1.5-3.3-1.6-5.3-0.5l-0.9 0.5c-2.3 1.2-4.6 2.5-7.1 2.9-4.8 0.9-6.1 3.9-6.5 8.2q-0.1 1.9-0.4 3.8-0.3 2.4-0.6 4.9c-0.6 4.1-2.3 6-6.3 6q-18.5 0.3-36.9 0c-4 0-5.7-1.9-6.3-6q-0.3-2.5-0.7-4.9c-0.4-2.4-0.7-4.8-1-7.2-0.2-2.1-1-3.2-3.1-3.7-2.2-0.6-4.5-1.2-6.3-2.5q-0.3-0.3-0.6-0.5-0.3-0.2-0.6-0.4-0.4-0.2-0.7-0.3-0.3-0.2-0.7-0.4h22.6q0.1 0.3 0.1 0.5c0.6 4.5 1.3 9 2 13.7h27.7c0.7-4.4 1.6-8.6 2-12.8q0-0.2 0-0.3 0-0.2 0.1-0.4 0-0.2 0-0.3 0.1-0.2 0.1-0.4c0.7-2.9 2.5-4.4 5.5-5.5 6-2.3 12.1-4.7 17.9-7.5 3.4-1.6 6.1-1.5 8.9 0.7 2.7 2.1 5.3 4.1 7.8 5.9l2.2 1.7zm0-30.2v15.7q-0.6-0.8-1.2-1.5c-2.4-3-2.7-5.8-0.9-9.5q1.1-2.3 2.1-4.7zm-1.4-83.3q0.7-1 1.4-1.9v15.7q-1.1-2.4-2.2-4.8c-1.6-3.4-1.5-6.1 0.8-9zm1.4-33.8v17.4l-13.7-13.6-1.2 1v-14.2c3.5-2 5.3-0.2 10.8 5.4z"/>
		<path id="Layer" class="s0" d="m501.6 515.2h-22.6q-0.8-0.4-1.6-0.6-0.8-0.1-1.6-0.1-0.9 0-1.7 0.1-0.8 0.2-1.6 0.6h-25.9c-6.9-7.2-13.8-14.5-20.7-21.7l-0.3-0.3q0.6-0.5 1.1-1 0.6-0.6 0.9-1.3 0.4-0.7 0.6-1.5 0.2-0.7 0.2-1.5 0-0.2 0-0.3 0.8-0.8 1.5-1.7 0.8-0.9 1.4-1.9 0.6-1 1.1-2 0.5-1.1 0.8-2.2c2.3-1.6 3.1-4.6 1.7-7.8q-0.6-1.2-1.1-2.4-0.5-1.2-1-2.5-0.5-1.2-1-2.5-0.5-1.2-0.9-2.5c-0.8-2.3-1.8-3.4-4.3-3.6-3.9-0.3-7.7-1.1-11.6-1.8-4.7-0.8-5.9-2.3-6-7.1q-0.1-3.7 0-7.4h11.8v3.5c4.5 0.8 8.8 1.6 13.1 2.1 3.5 0.4 5.3 2.3 6.5 5.6q3.3 9.1 7.4 18c1.5 3.3 1.6 6.1-0.7 9-2.7 3.5-5.2 7.1-7.6 10.3l19.6 19.8c3.4-2.5 7.1-5.1 10.6-7.9 2.7-2 5.2-2 8.1-0.6 6.2 2.7 12.5 5.3 18.8 7.7 2.7 1.1 4.5 2.6 5 5.5z"/>
		<path id="Layer" class="s0" d="m625.9 450.2c0 4.1-1.7 5.8-5.7 6.4-4.1 0.7-8.4 1.1-12.5 2.1q-0.5 0.1-1 0.4-0.5 0.2-0.9 0.6-0.4 0.3-0.8 0.8-0.3 0.4-0.6 0.9-0.6 1.4-1.3 2.8-0.6 1.5-1.3 3-0.6 1.4-1.1 2.9-0.6 1.5-1.1 3-0.1 0.5-0.2 1 0 0.6 0 1.1 0.1 0.6 0.3 1.1 0.1 0.5 0.4 1c2.3 3.5 4.9 6.9 7.5 10.2 2.4 3.2 2.1 6.1-0.5 8.8q-10.6 10.6-21.2 21.3 0.9-1.5 1.6-3.1 0.6-1.6 1.1-3.2 0.5-1.7 0.7-3.4 0.2-1.7 0.2-3.4v-7.7l6.2-6.1c-2-2.7-4-5.6-6.2-8.4v-15.6c1.9-4.4 3.6-8.9 5.2-13.3 1.2-3.2 2.9-5.2 6.5-5.6 4.5-0.4 8.9-1.4 13.2-2.1v-27.8c-4.6-0.7-8.9-1.4-13.2-2-3.6-0.4-5.3-2.4-6.5-5.6-1.6-4.5-3.3-8.9-5.2-13.2v-15.6c2.2-2.9 4.2-5.8 6.2-8.4l-6.2-6.2v-17.4c5.5 5.6 11.1 11.1 16.6 16.7 4.2 4.3 4.3 6.2 0.8 11-2.6 3.7-6.9 7.2-7.5 11.1-0.6 3.7 3.1 8 4.2 12.1 1 3.6 3.1 5 6.5 5.2 3.4 0.3 6.7 0.8 10.1 1.4 4.1 0.6 5.7 2.4 5.7 6.5q0.2 18.3 0 36.7z"/>
		<path id="Layer" class="s0" d=""/>
		<path id="Layer" class="s0" d="m574.6 340v14.3c-2.8 2.1-6 4.5-9.1 6.8-2.6 2-5.2 2-8.2 0.7-6-2.8-12.1-5.4-18.3-7.7-3.5-1.3-5.3-3.2-5.6-7-0.5-4.2-1.4-8.5-2.1-12.9-8.6 0-16.7 0-24.8 0-2.2 0-3.1 0.7-3.3 3-0.3 3.6-1 7.1-1.5 10.7-0.4 3.3-2.2 5-5.3 6.2-6.2 2.3-12.3 4.9-18.4 7.6-3.1 1.4-5.7 1.5-8.5-0.7-3.5-2.8-7.2-5.4-9.9-7.4l-20 19.7c2.3 3.1 4.8 6.5 7.4 9.8 2.2 2.9 2.4 5.7 0.9 9.1-2.7 5.9-5.3 11.8-7.5 18-1.2 3.5-3.2 5.4-6.8 5.8-4.3 0.6-8.6 1.3-12.9 2v21.2h-11.7q0-1 0-2 0.1-0.7 0.3-1.4 0.1-0.8 0.1-1.5 0.1-0.8 0.1-1.5 0-0.8 0-1.5c0 0.8 0-0.2 0.1-0.8q0.1-0.4 0.2-0.8 0-0.4 0.1-0.7 0-0.4 0.1-0.8 0-0.4 0-0.7 0-0.7 0-1.4-0.1-0.6-0.3-1.3-0.1-0.6-0.3-1.3-0.3-0.6-0.6-1.2c0.1-2.8 0.1-5.6 0.2-8.5 0.1-4.4 1.7-6.2 5.9-6.8 3.1-0.5 6.1-0.9 9.2-1.2 3.8-0.4 6.6-1.5 7.5-5.9 0.6-3.1 2.2-6.1 3.7-9 1-1.8 0.8-3.2-0.5-4.8-2.6-3.3-5-6.8-7.5-10.1-2.3-3-2.2-5.8 0.4-8.4q13-13.2 26.1-26.2c2.4-2.5 5.1-2.7 7.9-0.6 3 2.2 6.1 4.3 9 6.7 2.4 2.1 4.5 2.9 7.6 0.9q1.1-0.6 2.3-1.2 1.1-0.6 2.3-1 1.2-0.5 2.4-0.9 1.2-0.4 2.4-0.8c2.3-0.6 3.2-1.8 3.4-4 0.5-3.9 1.1-7.8 1.6-11.6 0.4-3 1.4-5.6 4.6-6.1q0.1 0 0.3-0.1 0.1 0 0.2 0 0.1-0.1 0.2-0.1 0.1 0 0.3-0.1 0.3 0.2 0.7 0.4 0.4 0.2 0.8 0.3 0.4 0.1 0.8 0.1 0.4 0.1 0.8 0.1c3.3-0.1 6.5-0.9 9.8-0.8q0.1 0 0.3 0 0.1 0 0.2 0 0.1 0 0.2 0 0.1-0.1 0.2-0.1h18.5c10.7 0 11.6 0.5 12.4 11.4 0.4 6.5 2.6 10.1 9.2 12.9 7 2.9 11.2 2 16.6-2.5q0.7-0.6 1.4-1.1 0.7-0.6 1.4-1.1 0.8-0.6 1.5-1.1 0.7-0.5 1.5-1z"/>
		<path id="Layer" fill-rule="evenodd" class="s0" d="m464.6 231.1q-0.3 0.6-0.5 1.2-0.2 0.7-0.2 1.4-0.1 0.6 0 1.3-0.3 0.5-0.6 1.1c-10 20.1-26 32.4-48.4 34.7-12 1.2-24.2 0.6-36.4 0.8-1.7 0-3.4 0.2-5.3 0.3 0 9.5 0 18.5 0 27.4 0 0.8 0.1 1.6 0.3 2.9 2.7 0 5.3-0.2 7.8 0 3.8 0.4 5.8-0.7 7.5-4.7 5.1-12.3 19.6-17.7 31.7-12.5 3 1.2 5.7 3 8 5.3 2.2 2.3 4 5 5.3 8 1.2 2.9 1.9 6.1 2 9.3 0 3.2-0.6 6.4-1.7 9.4-3.7 9.5-12.9 16.1-23 15.9-10.5-0.2-18.4-5.1-22.5-14.9-1.5-3.5-3.3-4.6-6.9-4.3-3.8 0.3-7.7 0.1-11.6 0.1-6.5-0.1-8.4-1.9-8.4-8.4q0-14.2 0-28.4c0-1.7-0.2-3.4-0.3-5.1h-26.1v38.7c14.1 5.4 20.5 15.8 18.2 29.2-1.9 11.3-12.5 20-24.2 20-11.6 0-21.9-8.3-24.3-19.4-2.5-11.3 2.7-24.8 18.2-29.9v-38.5h-26.6v5.6c0 9.2 0.1 18.3 0 27.4 0 7.1-1.6 8.8-8.5 8.8-3.7 0-7.6 0.2-11.2-0.1-3.6-0.2-5.7 0.7-7.2 4.5-0.9 2.3-2.2 4.4-3.8 6.3-1.6 1.9-3.5 3.5-5.6 4.9-2.1 1.3-4.4 2.3-6.8 2.9-2.4 0.6-4.9 0.8-7.4 0.7-11-0.9-20-8.2-22.7-18.4-0.7-2.5-0.9-5-0.8-7.6 0.1-2.5 0.6-5.1 1.4-7.5 0.9-2.4 2.2-4.7 3.7-6.7 1.6-2 3.5-3.8 5.6-5.3 13-9.1 30.4-3.9 36.9 11 0.7 1.4 2 3.4 3.1 3.5 3.8 0.5 7.6 0.2 11.5 0.2v-30.6h-5.7c-14.1 0-28.2 0.1-42.3 0-20.7-0.3-38.3-12.7-45.1-31.9q-0.5-1.4-1-2.9 0.3-0.3 0.5-0.6 0.2-0.3 0.4-0.6 0.1-0.3 0.3-0.7 0.1-0.3 0.2-0.7 0.2-0.8 0.3-1.6 0.2-0.8 0.3-1.7 0.2-0.8 0.3-1.6 0.1-0.9 0.1-1.7 0.1-1.2-0.1-2.3-0.1-1.1-0.4-2.2-0.4-1.1-0.9-2.1-0.6-1-1.3-1.9-0.1-0.2-0.2-0.3-0.2-0.1-0.3-0.3-0.1-0.1-0.3-0.2-0.1-0.1-0.3-0.2c0.6-2.5 1-4.9 1.7-7.2 4.9-16.7 15.6-27.9 32.2-33 3.5-1.1 4.7-2.6 5-6.3 1.7-21.6 21.1-41.9 42.7-44.5q2.2-0.2 4.5-0.3 2.3-0.1 4.6 0 2.3 0 4.6 0.2 2.3 0.2 4.6 0.5c2.8 0.3 4-0.4 5.5-2.4 12.6-17.1 29.3-27.7 50.2-31.5 36.6-6.8 74.1 14.1 87 49.2 2.7 7.4 6.3 12.7 12.9 17.5 17.4 12.7 25.4 30.7 24.5 52.5 0 1.6-0.1 3.3-0.2 5.2q-0.4 0.4-0.8 0.7-0.3 0.4-0.6 0.8-0.3 0.5-0.5 0.9-0.2 0.5-0.4 1-0.3 1-0.6 2-0.3 1.1-0.5 2.2-0.1 1.1-0.3 2.1-0.1 1.1-0.1 2.2-0.4 0.6-0.7 1.2zm-207.8 86.5c2.6-2.5 4-5.9 4.1-9.5 0-3.5-1.4-7-3.9-9.5-2.5-2.6-5.9-4-9.4-4.1-3.6 0-7 1.4-9.6 3.9-2.5 2.5-4 5.9-4 9.4 0 3.6 1.3 7 3.8 9.6 2.5 2.5 5.9 4 9.5 4 3.6 0 7-1.3 9.5-3.8zm154.1-23c-1.7 0-3.4 0.4-5 1.1-1.6 0.7-3.1 1.7-4.3 2.9-1.2 1.3-2.2 2.7-2.9 4.3-0.6 1.7-1 3.4-1 5.1 0.1 5.5 3.4 10.4 8.4 12.4 5.1 2.1 10.8 0.9 14.6-3 3.9-3.9 4.9-9.7 2.8-14.7-2.1-5-7.1-8.2-12.5-8.2zm-69.3 35.6c-0.7-1.6-1.6-3.1-2.8-4.4-1.2-1.2-2.6-2.3-4.2-3-1.6-0.7-3.3-1.1-5.1-1.1-3.5-0.2-6.9 1.1-9.5 3.6-2.6 2.4-4.1 5.7-4.2 9.2-0.1 3.6 1.2 7 3.6 9.6 2.4 2.5 5.8 4 9.3 4.2 1.8 0 3.5-0.3 5.1-0.9 1.7-0.6 3.2-1.6 4.4-2.8 1.3-1.2 2.3-2.6 3-4.2 0.8-1.6 1.2-3.3 1.2-5 0.1-1.8-0.2-3.5-0.8-5.2zm115.6-129.3c-0.9-5.1-2.6-10-5-14.6-2.4-4.6-5.5-8.8-9.1-12.4-3.7-3.6-7.9-6.7-12.5-9-4-2-5.6-4.8-6.7-8.9-7.7-28.5-26.2-46.4-55-51-28.7-4.6-51.6 6.6-67.9 31.1-3.3 5-4.4 5.5-10.4 3.7-26.3-7.8-52 11.8-51.8 39.5 0 6.6-0.8 7.5-7.2 8.5-22.1 3.4-36 24.9-29.9 46.1 4.5 15.5 18.5 26 35.4 26.1 14.6 0.1 29.2 0 43.8 0 1.2 0 2.4-0.2 4.1-0.4 0-7.5 0-20.1 0-27.6 0-1.1-0.1-2.3 0-3.4 0.3-3.8 2.5-6.2 5.5-6.3 3.2-0.2 5.8 2.4 5.9 6.4 0.1 8.6 0 17.2 0 25.9 0.1 1.7 0.2 3.4 0.3 5.2h26.5c0-1.9 0.2-3.5 0.2-5 0-6.1-0.1-12.1 0-18.1 0-4 2.4-6.6 5.6-6.7 3.2 0 5.7 2.6 5.8 6.5 0.2 4.4 0.1 8.8 0.1 13.2 0 3.4 0 6.7 0 10.1h26.3c0.2-1.3 0.3-2.1 0.3-2.9 0-8.8 0-17.6 0-26.4 0.1-5.2 2.1-8.1 5.7-8.2 3.7-0.2 5.8 2.7 5.8 7.9q0 12.5 0 24.9c0 1.6 0.1 3.1 0.2 4.9 9.2 0 17.8 0.1 26.4 0 6.1-0.2 12.4 0 18.3-1.2 20.9-4.2 36.8-21.6 39.6-42.5 0.7-5.1 0.6-10.3-0.3-15.4z"/>
		<path id="Layer" class="s0" d="m361.9 122.9c21.6 1.5 40 17.5 44.3 38.1 0.9 4.3-1.2 7.9-4.3 8.5-3.3 0.6-5.8-1.3-7-5.8-3.8-15.1-13.2-24.6-28.2-28.4-2.3-0.6-4.8-0.7-7.2-1-4.5-0.5-6.9-2.7-6.8-6.1 0.2-3.6 3-5.6 7.7-5.4 0.5 0 1 0 1.5 0.1z"/>
		<path id="Layer" class="s0" d="m482.6 442.2h-11.8q-0.4-1.5-0.6-3h11.6q0.4 1.5 0.8 3z"/>
		<path id="Layer" class="s0" d="m565.4 432c-0.1 26.4-22 48.2-48.2 48.1-22.5-0.2-41.7-16.5-46.4-37.9h11.8c4.5 15.1 18.4 26.3 34.7 26.3 4.8 0 9.6-0.9 14-2.8 4.4-1.8 8.5-4.5 11.8-7.9 3.4-3.4 6.1-7.4 8-11.8 1.8-4.4 2.8-9.2 2.8-14 0-20.1-16.5-36.7-36.5-36.7-19.9 0-36.5 16.9-36.3 36.8q0 0.9 0 1.8 0.1 0.9 0.2 1.8 0.1 0.9 0.2 1.7 0.1 0.9 0.3 1.8h-11.6q-0.2-0.9-0.3-1.8-0.1-0.9-0.2-1.8 0-0.9-0.1-1.8 0-0.9 0-1.9c-0.1-26.2 21.9-48.3 48-48.2 26.4 0.1 48 21.9 47.8 48.3z"/>
		<path id="Layer" class="s0" d="m436.5 486.5c0 0-5.5 10.6-10.9 6.7-5.5-3.9 7.6-13.4 7.6-13.4z"/>
		<path id="Layer" class="s0" d="m408.8 422.3l1.8-0.5 1.8 16-3.4-0.6-0.2-14.9z"/>
		<path id="Layer" class="s0" d="m498.3 322.6h13l-1.1 3.8-12.2-1.9 0.3-1.9z"/>
		<path id="Layer" class="s0" d="m469.1 218.1c0 0-2.4 14.6-5.2 16.9-2.7 2.4-1.2-12.2-1.2-12.2z"/>
		<path id="Layer" class="s0" d="m190.6 217.4l7 10.1c0 0-4.2 16.4-6.9 9.3-2.6-7.2-1.3-18.7-1.3-18.7z"/>
		<path id="Layer" class="s0" d="m170.3 439.2h242.1v14.9h-242.1z"/>
		<path id="Layer" class="s1" d="m117 179.1q-0.2 0.3-0.4 0.6-0.3 0.2-0.6 0.4-0.4 0.1-0.8 0.1-0.3 0-0.7-0.1-0.3-0.2-0.6-0.4-0.2-0.3-0.4-0.6-0.1-0.4-0.1-0.7 0.1-1.5 0.1-3 0.1-1.5 0-3 0-1.5-0.1-3 0-1.5-0.2-3c0-0.5 0.2-0.9 0.6-1.3 0.3-0.3 0.8-0.5 1.3-0.5 0.5 0 1 0.2 1.3 0.5 0.4 0.4 0.6 0.8 0.6 1.3q0.1 1.5 0.2 3 0 1.5 0.1 3 0 1.5-0.1 3 0 1.5-0.1 3 0 0.3-0.1 0.7z"/>
		<path id="Layer" class="s1" d="m115.1 168.1q-0.4 0-0.8-0.1-0.3-0.2-0.6-0.4-0.2-0.3-0.4-0.6-0.1-0.4-0.1-0.8 0-0.3 0.1-0.7 0.2-0.3 0.4-0.6 0.3-0.2 0.6-0.4 0.4-0.1 0.8-0.1c8.1 0.8 16 2.8 24.1 4.2q5.3 0.9 10.6 1.5 5.4 0.7 10.8 1.2 5.3 0.5 10.7 0.7 5.4 0.3 10.8 0.4c14.5 0.3 29-0.1 43.5-0.5 2.4 0 2.4 3.7 0 3.8-5.3 0.1-10.5 0.3-15.7 0.1-18.2-0.7-36.1-5.7-54.4-4.1q-0.3 0-0.7-0.1-0.3-0.1-0.6-0.4-0.2-0.3-0.4-0.6-0.1-0.4-0.1-0.7 0-0.4 0.1-0.7 0.2-0.4 0.4-0.6 0.3-0.3 0.6-0.4 0.4-0.2 0.7-0.2 2-0.1 3.9-0.2 1.9-0.1 3.8-0.1 2 0 3.9 0 1.9 0.1 3.8 0.3c9.1 0.6 18.1 2.1 27.2 3.1 4.5 0.5 9 0.9 13.6 1 4.6 0.1 9.3 0 13.9-0.2v3.8c-8.2 0.2-16.3 0.4-24.5 0.5q-5.4 0.1-10.8 0.1-5.4-0.1-10.8-0.3-5.4-0.1-10.8-0.4-5.4-0.4-10.8-0.8c-7.3-0.7-14.6-1.7-21.7-2.9-7-1.3-14-3.1-21.2-3.8z"/>
		<path id="Layer" class="s1" d="m156.3 166.1c0-0.5 0.2-1 0.5-1.3 0.4-0.4 0.8-0.6 1.3-0.6 0.5 0 1 0.2 1.3 0.6 0.4 0.3 0.6 0.8 0.6 1.3v5.4q0 0.7 0 1.3 0 0.3 0 0.6c0 0.1 0 0.8 0 0.5q0.1 0.3 0.1 0.7 0.1 0.3 0.1 0.7 0.1 0.3 0.1 0.7 0.1 0.3 0.1 0.7c0 0.5-0.2 0.9-0.6 1.3-0.3 0.3-0.8 0.5-1.3 0.5-0.5 0-0.9-0.2-1.3-0.5-0.3-0.4-0.5-0.8-0.5-1.3q0-0.1 0-0.1 0-0.1 0-0.1 0-0.1 0-0.1 0-0.1 0-0.1c0 0.2 0 0.1 0-0.1-0.1-0.2-0.2-0.4-0.2-0.6q0-0.1 0-0.3-0.1-0.2-0.1-0.4 0-0.2-0.1-0.4 0-0.2 0-0.4 0-0.3-0.1-0.6 0-0.4 0-0.7 0-0.3 0-0.6 0-0.3 0-0.7v-5.4z"/>
		<path id="Layer" class="s1" d="m157.8 164.2q0.4 0.1 0.7 0.2 0.3 0.1 0.6 0.4 0.3 0.3 0.4 0.6 0.1 0.3 0.2 0.7l0.7 5.6q0.1 1.4 0.3 2.8 0.1 0.3 0.1 0.7 0 0.3 0 0.7 0 0.3-0.1 0.7-0.1 0.3-0.2 0.7-0.1 0.3-0.3 0.6-0.3 0.3-0.6 0.5-0.3 0.1-0.7 0.2-0.3 0-0.7-0.1-0.3 0-0.6-0.3-0.3-0.2-0.5-0.5-0.2-0.3-0.2-0.7-0.1-0.4 0-0.7c0.1-0.1 0.2-0.8 0.2-0.4q0-0.1 0-0.1 0-0.1 0-0.2 0 0 0-0.1 0-0.1 0-0.1-0.1-0.6-0.2-1.2l-0.3-2.7-0.7-5.4c-0.1-1 1-1.8 1.9-1.9z"/>
		<path id="Layer" class="s1" d="m156.8 176.3q0-0.1 0.1-0.2 0-0.1 0.1-0.2 0-0.1 0.1-0.2 0.1-0.1 0.2-0.2l0.4-0.3q0.1 0 0.2-0.1 0.1 0 0.2-0.1 0.1 0 0.3 0 0.1 0 0.2 0h0.5q0.1 0.1 0.2 0.1 0.1 0 0.1 0.1 0.1 0 0.2 0.1 0.1 0 0.1 0.1 0.1 0 0.2 0.1 0 0 0.1 0.1 0.1 0.1 0.1 0.2 0.1 0 0.1 0.1 0.1 0.1 0.1 0.2 0 0 0.1 0.1 0 0.1 0 0.2 0 0.1 0 0.2 0.1 0.1 0.1 0.2 0 0.1 0 0.2 0 0.1 0 0.2 0 0-0.1 0.1l-0.2 0.9q0 0.2 0 0.3-0.1 0.1-0.1 0.2-0.1 0.1-0.2 0.2-0.1 0.1-0.1 0.2l-0.4 0.2q-0.1 0.1-0.2 0.2-0.2 0-0.3 0-0.1 0.1-0.2 0.1-0.1 0-0.3 0l-0.5-0.1q0 0-0.1 0-0.1 0-0.2-0.1-0.1 0-0.1-0.1-0.1 0-0.2-0.1-0.1-0.1-0.3-0.2-0.1-0.2-0.2-0.3-0.1-0.2-0.1-0.4-0.1-0.1-0.1-0.3 0-0.1 0-0.2 0-0.1 0-0.2 0-0.1 0-0.2 0-0.1 0-0.2l0.2-0.9z"/>
		<path id="Layer" class="s1" d="m158.5 179.8c2.4 0 2.4-3.7 0-3.7-2.4 0-2.4 3.7 0 3.7z"/>
		<path id="Layer" class="s1" d="m140.1 206.9q-0.1-0.4-0.1-0.7 0.1-0.4 0.3-0.7 0.2-0.4 0.4-0.6 0.3-0.2 0.7-0.3 0.3-0.1 0.7-0.1 0.4 0.1 0.7 0.3 0.3 0.1 0.5 0.4 0.3 0.3 0.4 0.7c0.3 1.9 0 3.8-0.1 5.8q-0.1 0.7-0.1 1.4 0 0.7 0 1.4 0 0.8 0 1.5 0 0.7 0.1 1.4c0 0.5-0.2 1-0.6 1.3-0.3 0.4-0.8 0.6-1.3 0.6-0.5 0-1-0.2-1.3-0.6-0.4-0.3-0.6-0.8-0.6-1.3q0-0.7 0-1.4-0.1-0.7-0.1-1.3 0-0.7 0.1-1.4 0-0.7 0-1.4 0.1-1.3 0.2-2.6c0.1-0.5 0.1-0.9 0.1-1.4q0-0.1 0-0.1 0-0.1 0-0.2 0-0.1 0-0.1 0-0.1 0-0.2 0-0.2 0-0.3 0-0.4 0-0.1z"/>
		<path id="Layer" class="s1" d="m139.8 217.6q0-0.1 0-0.3 0.1-0.1 0.1-0.2 0-0.1 0.1-0.2 0-0.1 0.1-0.3l0.3-0.3q0-0.1 0.1-0.2 0.1-0.1 0.2-0.1 0.2-0.1 0.3-0.1 0.1-0.1 0.2-0.1l0.5-0.1q0.1 0 0.2 0 0.1 0 0.2 0.1 0.1 0 0.2 0 0 0 0.1 0.1 0.2 0 0.4 0.1 0.1 0.1 0.2 0.3 0.2 0.1 0.3 0.2 0.1 0.2 0.1 0.4 0.1 0.1 0.1 0.1 0 0.1 0 0.2 0.1 0.1 0.1 0.2 0 0.1 0 0.2v0.2q0 0.1 0 0.3-0.1 0.1-0.1 0.2 0 0.1-0.1 0.2 0 0.2-0.1 0.3l-0.3 0.3q-0.1 0.1-0.1 0.2-0.1 0.1-0.2 0.1-0.2 0.1-0.3 0.1-0.1 0.1-0.2 0.1l-0.5 0.1q-0.2 0-0.3-0.1-0.2 0-0.4-0.1-0.2 0-0.3-0.1-0.2-0.1-0.3-0.3-0.1 0-0.1-0.1-0.1-0.1-0.1-0.1-0.1-0.1-0.1-0.2-0.1-0.1-0.1-0.2 0-0.1-0.1-0.1 0-0.1 0-0.2 0-0.1 0-0.2-0.1-0.1-0.1-0.2v-0.2z"/>
		<path id="Layer" class="s1" d="m141.7 219.9c2.4 0 2.4-3.8 0-3.8-2.4 0-2.4 3.8 0 3.8z"/>
		<path id="Layer" class="s1" d="m141.7 219.9c2.4 0 2.4-3.8 0-3.8-2.4 0-2.4 3.8 0 3.8z"/>
		<path id="Layer" class="s1" d="m152.9 205.7q0.1-0.3 0.4-0.6 0.3-0.2 0.6-0.4 0.4-0.1 0.7-0.1 0.4 0 0.7 0.1 0.4 0.2 0.6 0.4 0.3 0.3 0.4 0.6 0.2 0.4 0.2 0.7 0.1 1.4 0.2 2.8 0.1 1.4 0.1 2.7 0.1 1.4 0.1 2.8 0 1.4-0.1 2.8 0 0.3-0.1 0.7-0.2 0.3-0.4 0.6-0.3 0.2-0.6 0.4-0.4 0.1-0.7 0.1-0.4 0-0.7-0.1-0.4-0.2-0.7-0.4-0.2-0.3-0.4-0.6-0.1-0.4-0.1-0.7 0-1.4 0.1-2.8 0-1.4-0.1-2.8 0-1.3-0.1-2.7-0.1-1.4-0.2-2.8 0-0.3 0.1-0.7z"/>
		<path id="Layer" class="s1" d="m153 217.7q0-0.2 0-0.3 0-0.1 0.1-0.2 0-0.2 0.1-0.3 0-0.1 0.1-0.2l0.3-0.4q0-0.1 0.1-0.1 0.1-0.1 0.2-0.2 0.1 0 0.3-0.1 0.1 0 0.2 0l0.5-0.1q0.1 0 0.2 0 0.1 0 0.2 0 0.1 0 0.1 0.1 0.1 0 0.2 0.1 0.2 0 0.3 0.1 0.2 0.1 0.3 0.2 0.2 0.2 0.3 0.3 0 0.2 0.1 0.3 0.1 0.1 0.1 0.2 0 0.1 0 0.2 0.1 0.1 0.1 0.2 0 0.1 0 0.2v0.3q0 0.1 0 0.3-0.1 0.1-0.1 0.2 0 0.1-0.1 0.2 0 0.2-0.1 0.3l-0.3 0.3q-0.1 0.1-0.2 0.2-0.1 0.1-0.2 0.1-0.1 0.1-0.2 0.1-0.1 0.1-0.2 0.1l-0.5 0.1q-0.2 0-0.4-0.1-0.1 0-0.3-0.1-0.2 0-0.3-0.1-0.2-0.1-0.3-0.3-0.1 0-0.1-0.1-0.1-0.1-0.1-0.1-0.1-0.1-0.1-0.2-0.1-0.1-0.1-0.2 0-0.1-0.1-0.1 0-0.1 0-0.2-0.1-0.1-0.1-0.2 0-0.1 0-0.2v-0.3z"/>
		<path id="Layer" class="s1" d="m154.9 220c2.4 0 2.4-3.7 0-3.7-2.4 0-2.4 3.7 0 3.7z"/>
		<path id="Layer" class="s1" d="m154.9 220c2.4 0 2.4-3.7 0-3.7-2.4 0-2.4 3.7 0 3.7z"/>
		<path id="Layer" class="s1" d="m154.9 220c2.4 0 2.4-3.7 0-3.7-2.4 0-2.4 3.7 0 3.7z"/>
		<path id="Layer" class="s1" d="m573.7 342.9q-0.3-0.3-0.4-0.6-0.2-0.4-0.2-0.8 0-0.3 0.2-0.7 0.1-0.3 0.4-0.6 0.2-0.2 0.6-0.4 0.3-0.1 0.7-0.1 0.4 0 0.7 0.1 0.3 0.2 0.6 0.4 0.3 0.3 0.5 0.6 0.1 0.3 0.3 0.7 0.1 0.3 0.1 0.7 0.1 0.4 0 0.7v7.5c0 0.5-0.2 1-0.5 1.3-0.4 0.4-0.8 0.6-1.3 0.6-0.5 0-1-0.2-1.4-0.6-0.3-0.3-0.5-0.8-0.5-1.3v-6.7c0-0.4 0-0.7 0-1.1 0-0.5 0 0.1 0 0q-0.1-0.3 0.1 0.1 0.3 0.3 0.1 0.1z"/>
		<path id="Layer" class="s1" d="m573.4 350.5q0-0.1 0.1-0.2 0-0.1 0-0.2 0-0.2 0.1-0.3 0-0.1 0.1-0.2l0.3-0.4q0.1-0.1 0.2-0.1 0.1-0.1 0.2-0.2 0.1 0 0.2-0.1 0.1 0 0.2-0.1h0.5q0.1 0 0.2 0 0.1 0 0.2 0 0.1 0 0.2 0.1 0.1 0 0.2 0 0.1 0.1 0.3 0.2 0.1 0.1 0.3 0.2 0.1 0.2 0.2 0.3 0.1 0.2 0.1 0.3 0.1 0.1 0.1 0.2 0 0.1 0.1 0.2 0 0.1 0 0.2 0 0.1 0 0.2v1.3q0 0.1 0 0.3 0 0.1-0.1 0.2 0 0.1 0 0.2-0.1 0.1-0.2 0.3l-0.2 0.3q-0.1 0.1-0.2 0.2-0.1 0.1-0.2 0.1-0.1 0.1-0.2 0.1-0.2 0.1-0.3 0.1l-0.5 0.1q-0.1 0-0.3-0.1-0.2 0-0.4-0.1-0.1 0-0.3-0.1-0.2-0.1-0.3-0.3-0.1 0-0.1-0.1-0.1-0.1-0.1-0.1-0.1-0.1-0.1-0.2 0-0.1-0.1-0.2 0-0.1 0-0.1-0.1-0.1-0.1-0.2 0-0.1 0-0.2 0-0.1 0-0.2v-1.4z"/>
		<path id="Layer" class="s1" d="m575.4 353.9c2.4 0 2.4-3.7 0-3.7-2.4 0-2.4 3.7 0 3.7z"/>
		<path id="Layer" class="s1" d="m410.8 441.2c-0.5 0-1-0.2-1.3-0.5-0.4-0.4-0.5-0.9-0.5-1.3 0-0.5 0.1-1 0.5-1.4 0.3-0.3 0.8-0.5 1.3-0.5q1.1-0.1 2.3-0.1 1.1 0 2.2 0.1 1.1 0.1 2.2 0.2 1.2 0.1 2.3 0.3c1 0.1 1.5 1.4 1.3 2.3q-0.1 0.2-0.2 0.3 0 0.2-0.1 0.3-0.2 0.2-0.3 0.3-0.1 0.1-0.3 0.2-0.1 0.1-0.3 0.1-0.2 0.1-0.4 0.1-0.2 0-0.4 0-0.1 0-0.3 0l-0.6-0.1h-0.2q0.3 0 0 0l-1-0.2c-0.7 0-1.4-0.1-2-0.1q-0.5 0-1.1 0-0.5 0-1 0-0.5 0-1 0-0.6 0-1.1 0z"/>
		<path id="Layer" class="s1" d="m409.4 444.5q-0.3-0.2-0.6-0.4-0.2-0.3-0.4-0.6-0.1-0.4-0.1-0.7 0-0.4 0.1-0.7 0.2-0.4 0.4-0.6 0.3-0.3 0.6-0.5 0.4-0.1 0.7-0.1 4.6 0.1 9.2 0.5 0.3 0 0.7 0.2 0.3 0.1 0.6 0.4 0.2 0.2 0.4 0.6 0.1 0.3 0.1 0.7 0 0.4-0.1 0.7-0.2 0.3-0.4 0.6-0.3 0.3-0.6 0.4-0.4 0.2-0.7 0.2-4.6-0.5-9.2-0.6-0.3 0-0.7-0.1z"/>
		<path id="Layer" class="s1" d="m410.9 441.2q-0.1 0-0.3-0.1-0.2 0-0.4 0-0.2-0.1-0.3-0.2-0.2-0.1-0.3-0.2-0.2-0.1-0.3-0.3-0.1-0.1-0.2-0.3 0-0.1-0.1-0.3 0-0.2 0-0.4-0.1-0.1 0-0.3 0-0.2 0-0.4 0.1-0.2 0.2-0.3 0.1-0.2 0.2-0.3 0.1-0.2 0.3-0.3 0.1-0.1 0.3-0.2 0.1 0 0.3-0.1c3-0.4 6-0.8 9-0.5q0.3 0.1 0.7 0.2 0.3 0.1 0.6 0.4 0.2 0.3 0.4 0.6 0.1 0.3 0.1 0.7 0 0.4-0.1 0.7-0.1 0.4-0.4 0.6-0.3 0.3-0.6 0.4-0.3 0.2-0.7 0.2-0.5-0.1-1-0.1-0.6 0-1.1 0-0.5-0.1-1 0-0.5 0-1.1 0-1 0.1-2 0.2l-1 0.1-0.6 0.1h-0.2q-0.2 0-0.4 0.1z"/>
		<path id="Layer" class="s1" d="m471.9 441.5c-0.5 0-1-0.2-1.3-0.6-0.4-0.3-0.6-0.8-0.6-1.3 0-0.5 0.2-1 0.6-1.3 0.3-0.4 0.8-0.6 1.3-0.6q1.1 0 2.2 0 1.2 0 2.3 0.1 1.1 0.1 2.2 0.2 1.2 0.1 2.3 0.3c1 0.1 1.5 1.4 1.3 2.3q-0.1 0.1-0.2 0.3 0 0.2-0.1 0.3-0.2 0.1-0.3 0.3-0.1 0.1-0.3 0.2-0.1 0.1-0.3 0.1-0.2 0.1-0.4 0.1-0.2 0-0.4 0-0.1 0-0.3 0l-0.6-0.1q-0.2 0 0.1 0l-0.4-0.1c-0.3 0-0.6-0.1-0.9-0.1-0.7 0-1.4-0.1-2-0.1q-2.1-0.1-4.2 0z"/>
		<path id="Layer" class="s1" d="m480.5 441.9c2.4 0 2.4-3.7 0-3.7-2.4 0-2.4 3.7 0 3.7z"/>
		<path id="Layer" class="s1" d="m499.8 521.7c2.4 0 2.4 3.7 0 3.7-7-0.1-13.9-0.4-20.9-0.9q-1.2-0.1-2.5-0.1-1.3-0.1-2.6-0.1-1.2 0-2.5 0.1-1.3 0-2.6 0.1c-3.3 0.3-6.7 0.8-10 0.5q-0.4 0-0.7-0.1-0.4-0.2-0.6-0.4-0.3-0.3-0.4-0.6-0.2-0.4-0.2-0.7 0-0.4 0.2-0.7 0.1-0.4 0.4-0.6 0.2-0.3 0.6-0.5 0.3-0.1 0.7-0.1c3.4 0.3 6.8-0.2 10.2-0.5q1.3-0.1 2.5-0.2 1.3 0 2.5 0 1.3 0 2.5 0 1.3 0.1 2.5 0.2c7 0.4 13.9 0.7 20.9 0.8z"/>
		<path id="Layer" class="s1" d="m484 520.2c2.3 0.6 1.3 4.2-1 3.6-9.7-2.9-19.7-3.8-29.7-4.6-0.4 0-0.8-0.2-1.2-0.5-0.3-0.3-0.5-0.7-0.6-1.1 0-0.4 0.1-0.9 0.3-1.3 0.3-0.3 0.6-0.6 1-0.7 6.7-2.6 13.9-2.7 20.9-2.7l-1 3.5q-0.4-0.2-0.9-0.3-0.5-0.2-1-0.2-0.5-0.1-0.9-0.1-0.5-0.1-1 0-2.4-0.1-4.7-0.1c-3.2 0-6.4 0.1-9.5 0.3v-3.8q10.9 0.3 21.9 0.5c3.6 0 7.1 0 10.7 0h5.6q0.6 0.1 1.3 0.1 0.6 0 1.2-0.1 0.7 0 1.3-0.1 0.7 0 1.3-0.1v3.6q-1-0.3-2-0.5-0.9-0.3-1.9-0.4-1-0.2-2-0.3-1-0.1-2-0.2-4.3-0.4-8.6-0.7c-5.9-0.4-11.7-0.8-17.6-0.8l0.5-3.6c6.6 1.4 13.4-0.1 20.2-0.2l-0.5 3.6q-1.6-0.3-3.1-0.5-1.5-0.3-3.1-0.4-1.5-0.2-3-0.3-1.6-0.2-3.1-0.2c-2.4-0.1-2.4-3.7 0-3.7q2.2-0.1 4.4-0.1 2.2 0.1 4.4 0.2 2.2 0.1 4.4 0.2 2.2 0.2 4.4 0.4c0.5 0 1 0.2 1.3 0.5 0.4 0.4 0.6 0.9 0.6 1.4 0 0.5-0.2 0.9-0.6 1.3-0.3 0.3-0.8 0.5-1.3 0.5l-19.4 1 1-3.5c1.7 1 3.8 1 5.8 1.1q3.4 0.1 6.9 0.2l14.1 0.4v3.7c-3.8-0.2-7.5-0.3-11.3-0.3-6.6-0.1-13.2 0-19.8-0.1q-5-0.2-9.9-0.6c-2.6-0.2-5.5-0.5-7.8 0.8l0.3-2.9c0.7 0.7 1.7 0.8 2.7 1q1.9 0.3 3.9 0.5c2.7 0.3 5.6 0.5 8.4 0.6 2.3 0.2 2.4 3.9 0 3.8-3.2-0.2-6.4-0.4-9.5-0.8-2.7-0.3-6.1-0.3-8.1-2.5q-0.3-0.3-0.4-0.7-0.2-0.4-0.1-0.8 0-0.5 0.3-0.8 0.2-0.4 0.6-0.6c3-1.7 6.5-1.5 9.8-1.3 13.6 1.1 27.3 0.2 40.9 1 2.4 0.1 2.4 3.8 0 3.7l-14.9-0.4c-2.4-0.1-4.8-0.1-7.3-0.2q-0.8-0.1-1.7-0.2-0.8 0-1.6-0.2-0.9-0.2-1.7-0.5-0.8-0.3-1.5-0.6c-1.8-0.9-0.8-3.4 0.9-3.5l19.4-1v3.7q-2.2-0.2-4.4-0.3-2.2-0.2-4.4-0.3-2.2-0.1-4.4-0.1-2.2 0-4.4 0v-3.7q1.6 0 3.3 0.2 1.7 0.1 3.3 0.3 1.7 0.2 3.4 0.5 1.6 0.2 3.2 0.6c2.2 0.4 1.6 3.6-0.4 3.6-7.1 0.2-14.2 1.6-21.2 0.1-2.1-0.5-1.5-3.7 0.5-3.7 6 0 11.9 0.4 17.9 0.8q4.5 0.4 9 0.8 1 0 2.1 0.2 1 0.1 2 0.3 1.1 0.1 2.1 0.4 1 0.2 2 0.5c1.7 0.5 2 3.2 0 3.6-3.5 0.6-7.3 0.4-10.9 0.4q-5.5-0.1-11.1-0.1-11.2-0.2-22.3-0.5c-2.4 0-2.4-3.5 0-3.7 3.4-0.2 6.9-0.2 10.3-0.2 3.3 0 6.6-0.2 9.7 1.1 1.8 0.8 0.8 3.5-1 3.5-6.7 0-13.5 0.1-19.8 2.5l-0.5-3.6c10.3 0.8 20.6 1.7 30.6 4.7z"/>
		<path id="Layer" class="s1" d="m591.1 467.2q0.1-0.3 0.4-0.6 0.2-0.2 0.6-0.4 0.3-0.1 0.7-0.1 0.4 0 0.7 0.1 0.3 0.1 0.6 0.4 0.3 0.3 0.4 0.6 0.2 0.4 0.2 0.7-0.3 2.2-0.3 4.3 0 2.2 0.3 4.3 0.3 2.2 0.9 4.3 0.6 2 1.4 4 0.2 0.4 0.2 0.7 0.1 0.4 0 0.7-0.1 0.4-0.3 0.7-0.3 0.3-0.6 0.5-0.3 0.2-0.7 0.2-0.3 0.1-0.7 0-0.3-0.1-0.6-0.3-0.3-0.3-0.5-0.6-1-2.2-1.7-4.5-0.6-2.3-1-4.7-0.4-2.4-0.4-4.8 0-2.4 0.2-4.8 0-0.3 0.2-0.7z"/>
		<path id="Layer" class="s1" d="m598.4 488.6q0.2 0.3 0.2 0.7 0.1 0.4 0 0.7-0.1 0.4-0.3 0.7-0.2 0.3-0.6 0.5-0.3 0.1-0.6 0.2-0.4 0-0.8-0.1-0.3 0-0.6-0.3-0.3-0.2-0.5-0.5c-1.4-3.2-2.8-6.4-3.2-9.9q-0.2-1.3-0.2-2.6-0.1-1.3-0.1-2.6 0-1.3 0.1-2.6 0.1-1.3 0.3-2.6c0.3-3.3 0.6-6.7 2-9.8 0.6-1.4 1.4-2.7 2.1-4.1q0.3-0.6 0.5-1.1 0.2-0.6 0.4-1.2 0.1-0.5 0.3-1.1 0.1-0.6 0.1-1.2 0-0.3 0.2-0.7 0.1-0.3 0.4-0.6 0.2-0.2 0.6-0.4 0.3-0.1 0.7-0.1 0.4 0 0.7 0.1 0.3 0.1 0.6 0.4 0.3 0.3 0.4 0.6 0.2 0.4 0.2 0.7-0.1 0.7-0.2 1.3-0.1 0.6-0.2 1.2-0.2 0.6-0.4 1.2-0.2 0.6-0.4 1.2-0.2 0.6-0.5 1.1-0.3 0.6-0.5 1.1-0.3 0.6-0.6 1.1-0.3 0.5-0.6 1c-1.4 2.7-1.8 5.7-2.1 8.6-0.3 3.4-0.6 6.8-0.3 10.2 0.4 3.1 1.6 6 2.9 8.9z"/>
		<path id="Layer" class="s1" d="m597.6 493.8c-3.3 5-6.5 10-9.7 15.1-2.5 4.1-5.4 8.3-9.8 10.5-2.2 1.1-4.1-2.1-1.9-3.2 4-2 6.5-6 8.8-9.7q4.6-7.4 9.3-14.6c1.4-2 4.6-0.2 3.3 1.9z"/>
		<path id="Layer" class="s1" d="m575.3 514.6c2.1 1.1 0.2 4.3-1.9 3.2-5.4-2.8-9-8-12.4-12.9-0.8-1.2 0.3-2.8 1.6-2.8 2.8-0.1 5.4 2.3 7.4 4.2 1.9 1.9 4 3.9 4.8 6.6q0.1 0.4 0 0.9-0.1 0.4-0.4 0.7-0.2 0.4-0.6 0.6-0.4 0.2-0.8 0.2c-3.3-0.3-6.2-1.7-8.9-3.4-1.4-0.8-2.6-1.5-4-2.3q-0.1-0.1-0.2-0.1-0.1-0.1-0.2-0.1-0.1-0.1-0.2-0.1-0.1 0-0.2-0.1c0.3 0.1-0.3 0.2-0.5 0.3-0.8 0.4-1.6 0.8-2.3 1.2l-1-3.4q1-0.1 1.9 0 1 0.1 1.9 0.3 1 0.2 1.9 0.4 0.9 0.3 1.8 0.7 0.8 0.3 1.5 0.8 0.8 0.4 1.6 0.8 0.7 0.5 1.4 1 0.7 0.5 1.4 1 0.4 0.2 0.6 0.5 0.2 0.3 0.3 0.7 0.1 0.3 0 0.7 0 0.4-0.2 0.7-0.2 0.3-0.5 0.5-0.3 0.3-0.6 0.4-0.4 0-0.8 0-0.3 0-0.6-0.2-0.7-0.5-1.3-1-0.7-0.4-1.4-0.9-0.6-0.4-1.3-0.8-0.7-0.4-1.4-0.8-0.8-0.3-1.5-0.5-0.8-0.2-1.5-0.4-0.8-0.1-1.6-0.2-0.8 0-1.6 0c-1.8 0-2.5-2.6-0.9-3.5 1.6-0.9 3.4-2.2 5.4-1.9 1.6 0.3 3 1.3 4.4 2.2 2.6 1.6 5.4 3.5 8.6 3.7l-1.8 2.4c-0.5-1.9-2.3-3.4-3.6-4.8q-0.3-0.2-0.6-0.5-0.3-0.3-0.6-0.5-0.3-0.3-0.6-0.6-0.3-0.2-0.6-0.5c-0.7-0.4-1.6-1.2-2.6-1.2l1.6-2.8c3.1 4.4 6.2 9 11.1 11.6z"/>
		<path id="Layer" class="s1" d="m577.7 512.4q2.4-2.2 4.8-4.2 2.4-2 5-3.9 2.5-1.9 5.2-3.6 2.6-1.8 5.4-3.4c2.1-1.2 4 2.1 1.9 3.3q-2.7 1.5-5.2 3.2-2.6 1.6-5 3.5-2.5 1.8-4.8 3.7-2.4 2-4.6 4c-1.8 1.6-4.4-1-2.7-2.6z"/>
	</g>
</svg>