<svg version="1.2" xmlns="http://www.w3.org/2000/svg" viewBox="0 0 720 720" width="720" height="720">
	<title>starter-graphics-svg</title>
	<style>
		.s0 { fill: none;stroke: #325e64;stroke-width: 8.8 } 
		.s1 { fill: #325e64;stroke: #325e64;stroke-width: .6 } 
	</style>
	<g id="Папка 1">
		<path id="Layer" class="s0" d="m235.2 318.9v-21.5h-21.5v-21.6h21.5v-21.5h21.6v21.5h21.5v21.6h-21.5v21.5h-21.6z"/>
		<path id="Layer" class="s0" d="m451.7 323.6l-1.3 16.8h21.5v21.5h21.5v21.5h21.5v21.5h21.5v21.5h21.5v21.5h-21.5-21.5-21.5-21.5-21.5-21.5-21.6-21.5-21.5-21.5-21.5-21.5-21.5-21.5-21.6-21.5-21.5-21.5-21.5-21.5v-21.5-21.5-21.5-21.5h21.5v-21.5h21.5v-21.5h21.5v21.5h21.5v21.5h21.5v21.5h21.6v-21.5h21.5v-21.5h21.5v-21.5h21.5v-21.5h21.5v-21.6h21.5v-21.5h21.5v21.5h21.5v21.6h16.7"/>
		<path id="Layer" class="s1" d="m550.9 438.9v-193.7q7.5-8.1 14.9-16.4v225h-445.6v-250h377.5q-7.8 7.4-15.5 15h-347v220.1"/>
		<path id="Layer" fill-rule="evenodd" class="s1" d="m591.8 199v305.3c0 3.4-0.6 6.7-1.9 9.8-1.3 3.1-3.2 5.9-5.6 8.3-2.4 2.4-5.2 4.3-8.3 5.6-3.1 1.3-6.5 1.9-9.8 1.9h-158.2c-0.5 20.5 5.9 40.8 18.9 59.3l0.4 0.6h15.5c6.4 0 12.6 2.5 17.2 7.1 4.5 4.5 7.1 10.7 7.1 17.2 0 6.4-2.6 12.6-7.1 17.1-4.6 4.6-10.8 7.2-17.2 7.2h-199.6c-6.5 0-12.6-2.6-17.2-7.2-4.6-4.5-7.1-10.7-7.1-17.1 0-6.5 2.5-12.7 7.1-17.2 4.6-4.6 10.7-7.1 17.2-7.1h15.5l0.4-0.6c12.9-18.5 19.4-38.8 18.9-59.3h-158.1c-3.4 0-6.7-0.6-9.9-1.9-3.1-1.3-5.9-3.2-8.3-5.6-2.4-2.4-4.3-5.2-5.5-8.3-1.3-3.1-2-6.4-2-9.8v-315c0-3.4 0.7-6.8 2-9.9 1.2-3.1 3.1-5.9 5.5-8.3 2.4-2.4 5.2-4.3 8.3-5.6 3.2-1.2 6.5-1.9 9.9-1.9h422.8l-16.1 14-1.1 0.9h-405.6c-1.5 0-2.8 0.3-4.1 0.9-1.3 0.5-2.5 1.3-3.5 2.3-1 1-1.8 2.2-2.3 3.5-0.6 1.3-0.9 2.6-0.9 4.1v315c0 1.4 0.3 2.8 0.9 4.1 0.5 1.3 1.3 2.5 2.3 3.5 1 0.9 2.2 1.7 3.5 2.3 1.3 0.5 2.6 0.8 4.1 0.8h446.3c1.4 0 2.8-0.3 4.1-0.8 1.3-0.6 2.4-1.4 3.4-2.3 1-1 1.8-2.2 2.3-3.5 0.6-1.3 0.9-2.7 0.9-4.1v-288.2zm-348.7 405.8c-2.4 0-4.8 1-6.6 2.7-1.7 1.8-2.7 4.1-2.7 6.6 0 2.5 1 4.9 2.7 6.6 1.8 1.8 4.2 2.8 6.6 2.8h199.7c2.4 0 4.8-1 6.6-2.8 1.7-1.7 2.7-4.1 2.7-6.6 0-2.5-1-4.8-2.7-6.6-1.8-1.7-4.2-2.7-6.6-2.7zm49.8-74.8c0.4 20.6-5.2 41-16.5 59.8h132.9c-11.2-18.8-16.8-39.2-16.4-59.8z"/>
		<path id="Layer" fill-rule="evenodd" class="s1" d="m576.9 193.4v22.7l-5.5 6.3q-2.8 3.2-5.6 6.4v-22.7zm-86.7 91.2q10.6-9.8 20.8-19.9 10.3-10.1 20.3-20.5 9.9-10.4 19.6-21.2v22.2q-9.2 9.8-18.6 19.4-9.5 9.6-19.2 18.9-9.7 9.3-19.6 18.4-10 9-20.2 17.8l-0.3 0.3q-17.8 15.2-36.2 29.4l-2.1 2c0.8 3.8 1.1 7.7 0.9 11.6-0.1 4-0.8 7.8-1.9 11.6-1.1 3.7-2.7 7.4-4.7 10.7-2 3.4-4.4 6.5-7.1 9.3-2.3 2.5-23 23.8-61.3 23.8q-2.6 0-5.1-0.1-2.5-0.1-5-0.3-2.5-0.3-5-0.6-2.5-0.4-5-0.8c-16.1-2.9-28-5.6-35.1-7.8-4.7-1.5-11.8-3.8-12.4-10.2q-0.1-1.4 0.3-2.7 0.3-1.3 1.1-2.5 0.7-1.1 1.8-1.9 1-0.9 2.3-1.3c4-1.4 8.1-1.8 12.1-2.2q0.8-0.1 1.7-0.2 0.8-0.1 1.6-0.2 0.8-0.1 1.7-0.3 0.8-0.1 1.6-0.3c7-1.6 18.7-4.3 22.4-10.3 1.7-2.7 1.6-6.1 1.2-11.3q-0.2-1.4-0.3-2.8 0-1.4 0-2.8 0-1.4 0-2.8 0.1-1.4 0.3-2.8c0.9-6.4 3.1-12.6 6.5-18.1 3.4-5.6 7.9-10.4 13.3-14.1 5.3-3.8 11.3-6.4 17.7-7.7 6.4-1.4 13-1.4 19.3 0l2-2.1q14.3-18.5 29.4-36.2 0.2-0.2 0.4-0.4 25.3-29.5 52.9-56.8h21.4q-30.7 29.4-58.6 61.5l23.6 23.6q10.9-9.5 21.5-19.3zm-32.9 29.1l-21.9-22q-11.8 13.9-23 28.3 2.6 1.5 4.9 3.3 2.4 1.9 4.5 4 2.1 2.1 3.9 4.4 1.8 2.4 3.3 4.9 14.4-11.2 28.3-22.9z"/>
		<path id="Layer" class="s1" d="m565.4 163.6l-17.2 14.9h-22.7l1.1-0.9 16.1-14z"/>
		<path id="Layer" class="s1" d="m591.8 189.3v9.7l-14.9 17.2v-22.8l12.7-14.6q0.5 1.2 1 2.5 0.4 1.3 0.7 2.6 0.2 1.3 0.4 2.7 0.1 1.3 0.1 2.7z"/>
		<path id="Layer" class="s1" d="m565.8 206.1v22.7q-7.4 8.3-14.9 16.4v-22.2q4.6-5.1 9.2-10.4z"/>
		<path id="Layer" class="s1" d="m519.6 203.8q-8 7.4-15.9 15h-21.5q7.7-7.6 15.5-15z"/>
		<path id="Layer" class="s1" d="m624.5 161.5l-32.7 37.5v-9.7q0-1.4-0.1-2.7-0.2-1.4-0.4-2.7-0.3-1.3-0.7-2.6-0.5-1.3-1-2.5l19.1-21.9-16.6-16.6-26.7 23.3h-22.8l44.9-39.1q1.1-1 2.4-1.4 1.4-0.5 2.8-0.5 1.4 0.1 2.7 0.7 1.3 0.5 2.3 1.5l26.5 26.4q1 1.1 1.6 2.4 0.5 1.3 0.6 2.7 0 1.4-0.5 2.7-0.4 1.4-1.4 2.5z"/>
		<path id="Layer" class="s1" d="m548.2 178.5l-11.8 10.4q-8.5 7.3-16.8 14.9h-21.9q13.7-12.9 27.8-25.3z"/>
		<path id="Layer" class="s0" d="m235.2 318.9v-21.5h-21.5v-21.6h21.5v-21.5h21.6v21.5h21.5v21.6h-21.5v21.5h-21.6z"/>
		<path id="Layer" class="s0" d="m451.7 323.6l-1.3 16.8h21.5v21.5h21.5v21.5h21.5v21.5h21.5v21.5h21.5v21.5h-21.5-21.5-21.5-21.5-21.5-21.5-21.6-21.5-21.5-21.5-21.5-21.5-21.5-21.5-21.6-21.5-21.5-21.5-21.5-21.5v-21.5-21.5-21.5-21.5h21.5v-21.5h21.5v-21.5h21.5v21.5h21.5v21.5h21.5v21.5h21.6v-21.5h21.5v-21.5h21.5v-21.5h21.5v-21.5h21.5v-21.6h21.5v-21.5h21.5v21.5h21.5v21.6h16.7"/>
		<path id="Layer" class="s1" d="m550.9 438.9v-193.7q7.5-8.1 14.9-16.4v225h-445.6v-250h377.5q-7.8 7.4-15.5 15h-347v220.1"/>
		<path id="Layer" fill-rule="evenodd" class="s1" d="m591.8 199v305.3c0 3.4-0.6 6.7-1.9 9.8-1.3 3.1-3.2 5.9-5.6 8.3-2.4 2.4-5.2 4.3-8.3 5.6-3.1 1.3-6.5 1.9-9.8 1.9h-158.2c-0.5 20.5 5.9 40.8 18.9 59.3l0.4 0.6h15.5c6.4 0 12.6 2.5 17.2 7.1 4.5 4.5 7.1 10.7 7.1 17.2 0 6.4-2.6 12.6-7.1 17.1-4.6 4.6-10.8 7.2-17.2 7.2h-199.6c-6.5 0-12.6-2.6-17.2-7.2-4.6-4.5-7.1-10.7-7.1-17.1 0-6.5 2.5-12.7 7.1-17.2 4.6-4.6 10.7-7.1 17.2-7.1h15.5l0.4-0.6c12.9-18.5 19.4-38.8 18.9-59.3h-158.1c-3.4 0-6.7-0.6-9.9-1.9-3.1-1.3-5.9-3.2-8.3-5.6-2.4-2.4-4.3-5.2-5.5-8.3-1.3-3.1-2-6.4-2-9.8v-315c0-3.4 0.7-6.8 2-9.9 1.2-3.1 3.1-5.9 5.5-8.3 2.4-2.4 5.2-4.3 8.3-5.6 3.2-1.2 6.5-1.9 9.9-1.9h422.8l-16.1 14-1.1 0.9h-405.6c-1.5 0-2.8 0.3-4.1 0.9-1.3 0.5-2.5 1.3-3.5 2.3-1 1-1.8 2.2-2.3 3.5-0.6 1.3-0.9 2.6-0.9 4.1v315c0 1.4 0.3 2.8 0.9 4.1 0.5 1.3 1.3 2.5 2.3 3.5 1 0.9 2.2 1.7 3.5 2.3 1.3 0.5 2.6 0.8 4.1 0.8h446.3c1.4 0 2.8-0.3 4.1-0.8 1.3-0.6 2.4-1.4 3.4-2.3 1-1 1.8-2.2 2.3-3.5 0.6-1.3 0.9-2.7 0.9-4.1v-288.2zm-348.7 405.8c-2.4 0-4.8 1-6.6 2.7-1.7 1.8-2.7 4.1-2.7 6.6 0 2.5 1 4.9 2.7 6.6 1.8 1.8 4.2 2.8 6.6 2.8h199.7c2.4 0 4.8-1 6.6-2.8 1.7-1.7 2.7-4.1 2.7-6.6 0-2.5-1-4.8-2.7-6.6-1.8-1.7-4.2-2.7-6.6-2.7zm49.8-74.8c0.4 20.6-5.2 41-16.5 59.8h132.9c-11.2-18.8-16.8-39.2-16.4-59.8z"/>
		<path id="Layer" fill-rule="evenodd" class="s1" d="m576.9 193.4v22.7l-5.5 6.3q-2.8 3.2-5.6 6.4v-22.7zm-86.7 91.2q10.6-9.8 20.8-19.9 10.3-10.1 20.3-20.5 9.9-10.4 19.6-21.2v22.2q-9.2 9.8-18.6 19.4-9.5 9.6-19.2 18.9-9.7 9.3-19.6 18.4-10 9-20.2 17.8l-0.3 0.3q-17.8 15.2-36.2 29.4l-2.1 2c0.8 3.8 1.1 7.7 0.9 11.6-0.1 4-0.8 7.8-1.9 11.6-1.1 3.7-2.7 7.4-4.7 10.7-2 3.4-4.4 6.5-7.1 9.3-2.3 2.5-23 23.8-61.3 23.8q-2.6 0-5.1-0.1-2.5-0.1-5-0.3-2.5-0.3-5-0.6-2.5-0.4-5-0.8c-16.1-2.9-28-5.6-35.1-7.8-4.7-1.5-11.8-3.8-12.4-10.2q-0.1-1.4 0.3-2.7 0.3-1.3 1.1-2.5 0.7-1.1 1.8-1.9 1-0.9 2.3-1.3c4-1.4 8.1-1.8 12.1-2.2q0.8-0.1 1.7-0.2 0.8-0.1 1.6-0.2 0.8-0.1 1.7-0.3 0.8-0.1 1.6-0.3c7-1.6 18.7-4.3 22.4-10.3 1.7-2.7 1.6-6.1 1.2-11.3q-0.2-1.4-0.3-2.8 0-1.4 0-2.8 0-1.4 0-2.8 0.1-1.4 0.3-2.8c0.9-6.4 3.1-12.6 6.5-18.1 3.4-5.6 7.9-10.4 13.3-14.1 5.3-3.8 11.3-6.4 17.7-7.7 6.4-1.4 13-1.4 19.3 0l2-2.1q14.3-18.5 29.4-36.2 0.2-0.2 0.4-0.4 25.3-29.5 52.9-56.8h21.4q-30.7 29.4-58.6 61.5l23.6 23.6q10.9-9.5 21.5-19.3zm-32.9 29.1l-21.9-22q-11.8 13.9-23 28.3 2.6 1.5 4.9 3.3 2.4 1.9 4.5 4 2.1 2.1 3.9 4.4 1.8 2.4 3.3 4.9 14.4-11.2 28.3-22.9z"/>
		<path id="Layer" class="s1" d="m565.4 163.6l-17.2 14.9h-22.7l1.1-0.9 16.1-14z"/>
		<path id="Layer" class="s1" d="m591.8 189.3v9.7l-14.9 17.2v-22.8l12.7-14.6q0.5 1.2 1 2.5 0.4 1.3 0.7 2.6 0.2 1.3 0.4 2.7 0.1 1.3 0.1 2.7z"/>
		<path id="Layer" class="s1" d="m565.8 206.1v22.7q-7.4 8.3-14.9 16.4v-22.2q4.6-5.1 9.2-10.4z"/>
		<path id="Layer" class="s1" d="m519.6 203.8q-8 7.4-15.9 15h-21.5q7.7-7.6 15.5-15z"/>
		<path id="Layer" class="s1" d="m624.5 161.5l-32.7 37.5v-9.7q0-1.4-0.1-2.7-0.2-1.4-0.4-2.7-0.3-1.3-0.7-2.6-0.5-1.3-1-2.5l19.1-21.9-16.6-16.6-26.7 23.3h-22.8c0 0 52.4-41.6 55.1-38.8l26.5 26.4q1 1.1 1.6 2.4 0.5 1.3 0.6 2.7 0 1.4-0.5 2.7-0.4 1.4-1.4 2.5z"/>
		<path id="Layer" class="s1" d="m548.2 178.5l-11.8 10.4q-8.5 7.3-16.8 14.9h-21.9q13.7-12.9 27.8-25.3z"/>
		<path id="Layer" class="s1" d="m597.7 124.8l26.5 26.5c5.3 5.3 1.8 7.6 0.3 10.2-1.5 2.6-47.6 54.6-73.6 83.7-26.1 29.1-77.6 74.5-77.6 74.5l-4.6-15.8c45.3-35.4 140-147 140-147l-16.6-16.6-88.4 78.5c-5.8 2.7-91.3 101.2-91.3 101.2l-12.9-7.8c12.8-21.3 82.7-93.4 82.7-93.4 0.8-6.4 105.4-94.3 105.4-94.3 5.8-5 10.1 0.3 10.1 0.3z"/>
	</g>
</svg>