<svg version="1.2" xmlns="http://www.w3.org/2000/svg" viewBox="0 0 720 720" width="720" height="720">
	<title>unity-lab-svg</title>
	<style>
		.s0 { fill: #325e64;stroke: #325e64;stroke-width: .6 } 
		.s1 { fill: #325e64 } 
	</style>
	<g id="Layer_2">
		<path id="Layer" class="s0" d="m610 186.9v316.6c0 3.4-0.7 6.8-2 9.9-1.3 3.1-3.2 6-5.6 8.3-2.4 2.4-5.2 4.3-8.3 5.6-3.2 1.3-6.5 2-9.9 2h-448.5c-3.4 0-6.7-0.7-9.9-2-3.1-1.3-5.9-3.2-8.3-5.5-2.4-2.4-4.3-5.3-5.6-8.4-1.3-3.1-2-6.5-2-9.9v-316.6c0-3.3 0.7-6.7 2-9.8 1.3-3.2 3.2-6 5.5-8.4 2.4-2.4 5.3-4.3 8.4-5.6 3.1-1.3 6.5-2 9.9-2h39.8v15.1h-39.8c-1.4 0-2.8 0.3-4.1 0.8-1.3 0.5-2.5 1.3-3.5 2.3-1 1-1.8 2.2-2.4 3.5-0.5 1.3-0.8 2.7-0.8 4.1v316.6c0 1.4 0.3 2.8 0.8 4.1 0.6 1.3 1.4 2.5 2.4 3.5 1 1 2.2 1.8 3.5 2.4 1.3 0.5 2.7 0.8 4.1 0.8h448.5c1.4 0 2.8-0.3 4.1-0.8 1.3-0.6 2.5-1.4 3.5-2.4 1-1 1.8-2.2 2.3-3.5 0.6-1.3 0.9-2.7 0.9-4.1v-316.6c0-1.4-0.3-2.8-0.9-4.1-0.5-1.3-1.3-2.5-2.3-3.5-1-1-2.2-1.8-3.5-2.3-1.3-0.5-2.7-0.8-4.1-0.8h-52.2v-15.1h52.2c3.4 0 6.7 0.7 9.8 2 3.2 1.3 6 3.2 8.4 5.6 2.4 2.4 4.3 5.2 5.6 8.4 1.3 3.1 2 6.4 2 9.8z"/>
		<path id="Layer" fill-rule="evenodd" class="s0" d=""/>
		<path id="Layer" class="s0" d="m583.9 201.6v251.2h-447.9v-251.2l36.3 0.2v15l-21.2-0.2v221.2h36.7v3h359.6v-3h21.4v-221.2h-36.9v-15h52z"/>
		<path id="Layer" fill-rule="evenodd" class="s0" d="m279.2 604.5c-1.4 0-2.7-0.4-3.9-1.1-1.2-0.8-2.1-1.8-2.8-3-0.6-1.2-0.9-2.6-0.8-4 0.1-1.3 0.5-2.6 1.3-3.8l2.7-3.7c14.4-20.6 20.8-43.6 18.6-66.3-0.2-1.1 0-2.1 0.3-3.1 0.3-1 0.9-2 1.6-2.7 0.7-0.8 1.5-1.4 2.5-1.9 1-0.4 2-0.6 3.1-0.6h116.4c1.1 0 2.1 0.2 3.1 0.7 0.9 0.4 1.8 1 2.5 1.8 0.7 0.8 1.2 1.7 1.6 2.7 0.3 1 0.4 2 0.3 3.1-2.3 22.7 4.1 45.7 18.6 66.3l2.6 3.7c0.8 1.2 1.3 2.5 1.4 3.8 0.1 1.4-0.2 2.8-0.9 4-0.6 1.2-1.6 2.2-2.7 3-1.2 0.7-2.6 1.1-3.9 1.1zm30.5-75.2c0.4 20.7-5.2 41.2-16.5 60.1h133.5c-11.4-18.9-17-39.4-16.6-60.1z"/>
		<path id="Layer" fill-rule="evenodd" class="s0" d="m460.3 638.3h-200.6c-6.5 0-12.7-2.6-17.3-7.2-4.6-4.6-7.2-10.8-7.2-17.3 0-6.4 2.6-12.6 7.2-17.2 4.6-4.6 10.8-7.2 17.3-7.2h200.6c6.4 0 12.7 2.6 17.2 7.2 4.6 4.6 7.2 10.8 7.2 17.2 0 6.5-2.6 12.7-7.2 17.3-4.5 4.6-10.8 7.2-17.2 7.2zm-200.6-33.8c-2.5 0-4.9 0.9-6.7 2.7-1.8 1.8-2.7 4.2-2.7 6.6 0 2.5 0.9 4.9 2.7 6.7 1.8 1.7 4.2 2.7 6.7 2.7h200.6c2.5 0 4.8-1 6.6-2.7 1.8-1.8 2.8-4.2 2.8-6.7 0-2.4-1-4.8-2.8-6.6-1.8-1.8-4.1-2.7-6.6-2.7z"/>
		<path id="Layer" class="s0" d="m172.3 201.7h359.6v15h-359.6z"/>
		<path id="Layer" class="s0" d="m175.5 176.2v-15.1h356.5v15.1h-356.5z"/>
		<path id="Layer" class="s1" d="m474.9 335.5q-1 0.4-2 0.7-1 0.3-1.9 0.5-1 0.3-2.1 0.5-1 0.1-2 0.3-0.1 0-0.2 0-0.1 0-0.1 0-0.1 0.1-0.2 0.1-0.1 0-0.2 0.1 0.1-0.1 0.2-0.2 0-0.1 0.1-0.2 0.1-0.1 0.2-0.2 0-0.1 0.1-0.2c0.3-0.4 0.4-0.8 0.7-1.3q0-0.1 0.1-0.2 0-0.1 0.1-0.2 0-0.1 0-0.3 0.1-0.1 0.1-0.2 0-0.1 0-0.2 0.1-0.1 0.1-0.2 0-0.1 0-0.2 0-0.1 0-0.3 0.9-0.1 1.7-0.3 0.8-0.2 1.7-0.4 0.8-0.2 1.6-0.5 0.8-0.3 1.6-0.6 0.2 1.8 0.4 3.5zm-2.8-23.4q0.1 0.9 0.2 1.7h-2.9c-1.8 0-2.1-0.3-2.6-2q0-0.2-0.1-0.4 0-0.1 0-0.2 0-0.1 0-0.2 0-0.1 0-0.3 0-0.1-0.1-0.2-0.1-0.2-0.1-0.5-0.1-0.2-0.1-0.4-0.1-0.3-0.2-0.5 0-0.2 0-0.5 0-0.2 0-0.4 0-0.3-0.1-0.5 0-0.2 0-0.5 0-0.2 0-0.4 2.4 0.6 3.9 3.5h1.9q0.1 0.9 0.2 1.8zm-2.6-23.5c0.5 3.3 0.8 6.6 1.2 9.9q-0.3 0.3-0.7 0.4-0.4 0.2-0.8 0.3-0.4 0.1-0.8 0.2-0.4 0.1-0.9 0.1 0 0-0.1-0.1-0.1 0-0.2 0-0.1 0-0.1 0-0.1 0-0.2 0 0-1.8-0.1-3.5 0.1 0 0.2 0.1 0.1 0 0.2 0 0.1 0 0.2 0 0.1 0.1 0.2 0.1 0.4-0.1 0.8-0.2 0.4-0.2 0.7-0.5 0.3-0.3 0.5-0.7 0.2-0.3 0.2-0.8 0-0.4-0.1-0.8-0.2-0.4-0.5-0.8-0.3-0.3-0.7-0.5-0.4-0.1-0.8-0.1-0.2 0-0.4 0-0.1 0-0.3 0-0.1 0.1-0.3 0.1-0.1 0.1-0.2 0.2-0.1-0.4-0.1-0.7-0.1-0.4-0.2-0.7-0.1-0.4-0.1-0.7-0.1-0.4-0.2-0.7 0-0.1-0.1-0.2 0 0 0-0.1-0.1-0.1-0.1-0.2 0-0.1-0.1-0.1 0.3-0.1 0.5-0.2 0.3-0.1 0.5-0.1 0.3-0.1 0.5-0.1 0.3 0 0.6 0 0.2 0 0.4 0 0.3 0 0.5 0.1 0.2 0 0.5 0.1 0.2 0.1 0.4 0.1z"/>
		<path id="Layer" fill-rule="evenodd" class="s1" d="m475.3 385.3c-9.5 21.8-38.7 24.7-52.9 5-2.7-3.6-4.5-8-6.1-12.3-2.7-6.9-4.8-14.1-7.2-21.1-0.3-0.9-1.2-1.5-2.1-2.6-4.2 10.5-10.6 15.4-19.3 15.3-9.7-0.2-15.9-5.4-19.2-14.5h-29.5c-3.5 9.6-10.1 15.1-20.5 14.4-9-0.5-14.6-5.8-17.9-15.1-1 1.1-2 1.7-2.3 2.6-2.8 8.3-5.3 16.8-8.5 25-6.8 18.2-26.9 26.6-43.5 18.3-9.9-4.9-14.8-13.5-16.8-24q0-0.2-0.1-0.4 0-0.3-0.1-0.5-0.1-0.2-0.1-0.4-0.1-0.3-0.2-0.5v-10.2c0.7-4.8 1.4-9.6 2-14.4 1.9-16.2 3.7-32.4 5.7-48.6 0.8-7.4 1.3-14.9 2.9-22.1 4.3-18.3 21.9-32 41-32q73.1-0.2 146.2 0 4.1 0 8.2 0.8 4 0.9 7.9 2.4 3.8 1.6 7.2 3.9 3.5 2.3 6.4 5.2-0.1 0.1-0.3 0.1-0.2 0.1-0.3 0.2-0.2 0.1-0.3 0.2-0.2 0.1-0.3 0.3-0.3 0.3-0.6 0.6-0.2 0.4-0.3 0.7-0.2 0.4-0.2 0.8-0.1 0.5-0.1 0.9 0 4.6 0 9.3c-6.1-9.2-16.7-15.8-27.9-15.6-11 0.2-21.9 0-32.9 0h-2.8c0 3.9 0 7.4 0 10.8 0 5.3 0.2 10.6-0.3 15.9-0.5 6.7-6.8 12.2-13.5 12.4-3.4 0.1-5.6-1.7-5.9-4.5-0.2-2.8 1.8-4.8 5.1-5.3 2.5-0.3 4.5-1.6 4.6-4.2 0.2-8.3 0.1-16.5 0.1-24.9h-53.4c-0.1 0.2-0.2 0.4-0.2 0.5q-0.1 11-0.1 21.9c0 4.9 0.8 5.9 5.6 6.8q0.9 0.1 1.7 0.6 0.8 0.5 1.4 1.2 0.5 0.8 0.8 1.6 0.3 0.9 0.2 1.8 0 1-0.4 1.8-0.4 0.8-1.1 1.4-0.7 0.7-1.6 1-0.8 0.3-1.8 0.3-0.4 0-0.9 0-0.4 0-0.9-0.1-0.4 0-0.9-0.1-0.4-0.1-0.9-0.2c-7-1.8-11.1-7.5-11.1-15.2-0.1-7.7 0-15.4 0-23.4h-2.3c-11.5 0-23-0.1-34.6 0-13.5 0.1-27.5 10.3-30.5 23.6-2.2 9.6-2.8 19.5-4 29.3-1.9 16.1-3.8 32.2-5.6 48.3-0.7 6.2-1.7 12.2-0.3 18.4 2.9 12.1 13.3 19.1 25 16.3 8.9-2.2 14.1-8.5 16.9-16.9 2.9-8.9 6-17.7 8.8-26.6 1-3.2 3-4.6 6.2-4.5 1.5 0.1 2.9 0 4.2 0 3.2-8.9 9.2-14.3 18.5-14.6 10-0.2 16.4 5.3 19.8 14.6h29.4c3.2-9 9.3-14.4 18.8-14.5 9.8-0.1 16.1 5.3 19.4 14.6h3.2c5.1 0 6 0.7 7.6 5.4 3.1 9.3 6 18.7 9.3 27.9 4.4 11.9 16.7 18 27.8 14 9.4-3.2 15.3-13.9 14-25.3-3.1-26.9-6.7-53.7-9.3-80.7q-0.1-1.2-0.4-2.5-0.2-1.2-0.5-2.4-0.4-1.2-0.8-2.4-0.5-1.1-1-2.3 0.2-0.3 0.4-0.7 0.1-0.4 0.2-0.8 0.2-0.3 0.2-0.7 0.1-0.5 0.1-0.9c0.2-3.1 0.1-6.2 0.2-9.4q0-0.7 0-1.5h2q1.7 2.1 3.1 4.3 1.4 2.2 2.5 4.6 1.1 2.4 1.9 4.9 0.8 2.5 1.2 5.1 0.6 3.4 1.1 6.9-0.2-0.1-0.5-0.2-0.2 0-0.4-0.1-0.3 0-0.5 0-0.2-0.1-0.5-0.1-0.2 0-0.5 0-0.3 0.1-0.5 0.1-0.3 0.1-0.5 0.1-0.3 0.1-0.5 0.2 0 0.1 0.1 0.2 0 0 0 0.1 0.1 0.1 0.1 0.2 0 0.1 0.1 0.2 0.1 0.3 0.1 0.6 0.1 0.4 0.2 0.7 0.1 0.4 0.1 0.7 0.1 0.4 0.1 0.7 0.2-0.1 0.3-0.1 0.2-0.1 0.3-0.1 0.2-0.1 0.3-0.1 0.2 0 0.3 0 0.5 0 0.9 0.2 0.4 0.2 0.7 0.5 0.3 0.3 0.4 0.7 0.2 0.4 0.2 0.9 0 0.4-0.2 0.8-0.2 0.4-0.5 0.7-0.3 0.3-0.7 0.4-0.4 0.2-0.8 0.2-0.1 0-0.2 0-0.1 0-0.2 0-0.1-0.1-0.2-0.1-0.1 0-0.2-0.1 0.1 1.8 0.1 3.6 0 0 0.1 0 0.1 0 0.2 0 0.1 0 0.1 0 0.1 0 0.2 0 0.4 0 0.8-0.1 0.5 0 0.9-0.1 0.4-0.1 0.8-0.3 0.3-0.2 0.7-0.4c0.4 3.9 0.8 7.8 1.2 11.7h-1.9q-1.5-2.9-3.9-3.5 0 0.2 0 0.4 0 0.3 0 0.5 0.1 0.2 0.1 0.5 0 0.2 0 0.4 0 0.3 0 0.5 0.1 0.2 0.2 0.5 0 0.2 0.1 0.4 0 0.3 0.1 0.5 0.1 0.1 0.1 0.2 0 0.2 0 0.3 0 0.1 0 0.2 0 0.1 0 0.2c0.1 0.2 0.1 0.3 0.1 0.4 0.5 1.7 0.8 2 2.6 2h2.9q1.1 9.1 2.2 18.2-0.8 0.3-1.6 0.6-0.8 0.3-1.6 0.5-0.9 0.2-1.7 0.4-0.8 0.2-1.7 0.4 0 0.1 0 0.2 0 0.1 0 0.2 0 0.1-0.1 0.2 0 0.1 0 0.2 0 0.1-0.1 0.3 0 0.1 0 0.2-0.1 0.1-0.1 0.2-0.1 0.1-0.1 0.3c-0.3 0.4-0.4 0.8-0.7 1.2q-0.1 0.1-0.1 0.2-0.1 0.1-0.2 0.2-0.1 0.1-0.1 0.2-0.1 0.1-0.2 0.2 0.1-0.1 0.2-0.1 0.1 0 0.2-0.1 0 0 0.1 0 0.1 0 0.2 0 1-0.2 2-0.3 1.1-0.2 2.1-0.5 0.9-0.2 1.9-0.5 1-0.3 2-0.7 1.4 12.4 2.9 24.7c1.1 8.6 1.1 17-2.5 25.1zm-151.6-26.3c1.1-0.5 2.2-1.2 3.1-2.1 0.9-0.9 1.6-2 2.1-3.2 0.5-1.1 0.7-2.4 0.7-3.7 0.1-2.6-0.9-5.1-2.7-7-1.8-1.9-4.3-2.9-6.9-2.9-2.7 0-5.2 1-7 2.9-1.8 1.9-2.8 4.4-2.7 7 0 1.3 0.2 2.6 0.7 3.7 0.5 1.2 1.2 2.3 2.1 3.2 0.9 0.9 2 1.6 3.1 2.1 1.2 0.5 2.5 0.8 3.8 0.8 1.2 0 2.5-0.3 3.7-0.8zm63.9 0.8c1.3 0 2.5-0.3 3.7-0.7 1.2-0.5 2.3-1.2 3.2-2.1 0.9-1 1.6-2 2.1-3.2 0.5-1.2 0.7-2.4 0.7-3.7 0.1-2.6-0.9-5.2-2.7-7.1-1.8-1.8-4.3-2.9-6.9-2.9-2.6 0-5.1 1-7 2.9-1.8 1.8-2.8 4.4-2.8 7 0 1.3 0.3 2.5 0.8 3.7 0.4 1.2 1.2 2.3 2 3.2 0.9 0.9 2 1.6 3.2 2.1 1.1 0.5 2.4 0.8 3.7 0.8z"/>
		<path id="Layer" fill-rule="evenodd" class="s1" d="m298.4 291.1c8.5 1.1 14.1 6.6 14.4 14 0.4 8.2-4.5 13.6-14.3 15.7-1 9.1-7.2 14.6-15.3 14.6-7.7 0-12.3-4.8-14.8-14.5-10.9-1.3-14.8-9.6-14.4-15.9 0.5-7.5 5.9-12.7 14.4-13.9 3-10.7 7.6-14.9 16.3-14.5 7 0.3 12 5.6 13.7 14.5zm-14.9 34.3q0.8 0 1.6-0.3 0.8-0.3 1.5-0.8 0.6-0.6 1-1.4 0.4-0.7 0.5-1.6c0.2-1.7 0.1-3.5 0.2-5.3 0.2-3.4 2.1-5.1 5.4-5.3 1.5 0 3.1 0.1 4.7 0 2.7-0.2 4.3-1.9 4.5-4.5 0.1-2.6-1.2-4.5-3.8-4.9q-0.6-0.1-1.3-0.2-0.7 0-1.3-0.1-0.7 0-1.4 0-0.6 0-1.3 0c-3.6-0.1-5.3-1.8-5.5-5.4-0.1-1.5 0-3.1-0.1-4.6 0-1.2-0.6-2.5-1.4-3.3-0.9-0.9-2.2-1.4-3.4-1.4-1.3 0-2.5 0.5-3.4 1.4-0.9 0.9-1.4 2.1-1.3 3.4-0.1 1.5 0 3.1-0.1 4.6-0.2 3.4-2 5.2-5.4 5.3q-0.6 0-1.3 0-0.7 0-1.4 0-0.6 0-1.3 0.1-0.7 0-1.3 0.1c-2.7 0.5-4.1 2.3-3.9 5 0.2 2.8 1.8 4.3 4.6 4.5 1.4 0.1 2.9 0 4.3 0 3.6 0 5.6 1.9 5.7 5.5 0.1 1.6 0 3.1 0.1 4.6q0 1 0.3 1.8 0.4 0.9 1.1 1.5 0.7 0.7 1.5 1 0.9 0.3 1.9 0.3z"/>
		<path id="Layer" class="s1" d="m445.2 310.4q1.3-0.1 2.6 0 1.2 0.1 2.4 0.4 1.3 0.2 2.5 0.6-0.5 1.1-1.1 2-0.6 1-1.4 1.8-0.7 0.9-1.6 1.5-0.9 0.7-1.9 1.3-0.9 0.5-1.8 0.9-0.9 0.4-1.9 0.8-0.9 0.3-1.8 0.6-1 0.3-2 0.6c-1.7 6.4-4.4 10.6-8.1 12.8q-0.8 0.5-1.7 0.8-0.9 0.4-1.8 0.6-0.9 0.2-1.9 0.3-0.9 0.1-1.9 0-1.9 0-3.7-0.6-1.8-0.5-3.4-1.5-1.6-1-2.9-2.4-1.3-1.3-2.1-3h12.7q0.3-1.4 0.8-2.6c2.1-0.4 3.6-2.1 3.7-4.6q0.2-1.5 0.2-2.7c3.2-4 7.7-6.5 13.6-7.4q1.3-0.2 2.5-0.2zm-29.1-31.3q0.6-0.3 1.1-0.5 0.6-0.3 1.1-0.5 0.6-0.2 1.2-0.4 0.5-0.2 1.1-0.3-2.3 2.6-4.4 5.4-2 2.9-3.7 5.9-1.7 3.1-3 6.4-1.4 3.2-2.3 6.6c-1.7 0.7-2.5 2.3-2.5 4.4q0 0.4 0.1 0.8 0 0.3 0.1 0.7 0.2 0.3 0.3 0.6 0.2 0.4 0.4 0.6-0.1 0.5-0.1 1-0.2 1.2-0.3 2.4-0.1 1.2-0.2 2.4-0.1 1.3-0.1 2.5-0.1 1.2 0 2.4-1.1-0.4-2.2-0.9-1-0.5-1.9-1.2-1-0.6-1.8-1.4-0.9-0.8-1.6-1.7 0.1-2.6 0.5-5.3 0.3-2.7 0.9-5.3 0.5-2.6 1.3-5.2 0.8-2.5 1.8-5 0.8-0.5 1.7-0.9 0.9-0.4 1.9-0.7 0.9-0.3 1.9-0.5 0.9-0.2 1.9-0.3c0.5-5 2.2-9.6 6.8-12z"/>
		<path id="Layer" class="s1" d="m425.2 325.3q-0.5 1.2-0.8 2.6h-12.7q-0.5-0.8-0.9-1.7-0.3-0.9-0.6-1.7-0.3-0.9-0.6-1.8-0.2-0.9-0.4-1.8-0.5-0.2-1.1-0.3-0.5-0.2-1.1-0.3-0.5-0.2-1.1-0.4-0.5-0.2-1-0.4 0-1.2 0-2.4 0-1.2 0.1-2.4 0.1-1.3 0.2-2.5 0.1-1.2 0.3-2.4 0-0.5 0.1-0.9 0.4 0.4 0.8 0.7 0.4 0.4 0.9 0.6 0.5 0.3 1.1 0.4 0.5 0.1 1.1 0.1c1.5 0.1 3 0 4.6 0 3.1 0.1 5 1.9 5.2 5 0.2 1.7 0 3.4 0.2 5.1 0.2 2.9 2.1 4.6 4.9 4.5q0.1 0 0.2 0 0.1 0 0.2 0 0.1 0 0.2 0 0.1 0 0.2 0z"/>
		<path id="Layer" class="s1" d="m401.8 293.5q-0.9 2.5-1.7 5-0.8 2.6-1.4 5.2-0.5 2.7-0.9 5.3-0.3 2.7-0.4 5.4-3-3.9-2.6-9.5 0.1-1.8 0.6-3.4 0.5-1.7 1.4-3.2 1-1.5 2.2-2.7 1.3-1.3 2.8-2.1z"/>
		<path id="Layer" class="s1" d="m453.6 305.9q0 0.7 0 1.4-0.1 0.7-0.2 1.4-0.1 0.7-0.3 1.4-0.2 0.7-0.5 1.3-1.2-0.4-2.4-0.6-1.2-0.3-2.5-0.4-1.2-0.1-2.5 0-1.2 0-2.5 0.2c-5.9 0.9-10.4 3.4-13.6 7.4 0.6-6.6 1.5-6.7 9.9-7.3q1 0 1.9-0.4 0.9-0.4 1.5-1.2 0.7-0.7 1-1.6 0.3-1 0.2-2 0-0.8-0.3-1.5-0.2-0.7-0.8-1.3-0.5-0.6-1.2-1-0.7-0.4-1.5-0.4-0.7-0.1-1.4-0.2-0.6 0-1.3 0-0.7-0.1-1.3-0.1-0.7 0-1.4 0c-3.4-0.1-5.2-1.8-5.4-5.2-0.1-1.6 0-3.3-0.1-4.9q0-0.9-0.4-1.8-0.4-0.8-1-1.4-0.7-0.7-1.6-1-0.8-0.3-1.8-0.3c-2.6 0.2-4.4 1.6-4.6 4.4-0.2 1.7 0 3.5-0.2 5.3-0.2 3.2-2 4.8-5.2 4.9q-0.7 0-1.3 0-0.7 0-1.4 0.1-0.6 0-1.3 0-0.7 0.1-1.3 0.1-0.3 0.1-0.5 0.1-0.2 0-0.3 0.1-0.2 0.1-0.4 0.1-0.2 0.1-0.4 0.2 0.9-3.4 2.3-6.6 1.3-3.3 3-6.3 1.7-3.1 3.7-5.9 2.1-2.9 4.4-5.5 0.7-0.2 1.3-0.3 0.6-0.1 1.3-0.2 0.6-0.1 1.3-0.1 0.6-0.1 1.3-0.1c6.9 0.1 11.7 5.6 13.2 14.2 10.2 2.9 14.6 7.4 14.6 15z"/>
		<path id="Layer" class="s1" d="m353.8 305.9q6.7 0 13.3 0c3.4 0 5.6 1.9 5.7 4.7 0.1 3-2 5.1-5.5 5.2q-13.5 0.1-27 0c-3.5 0-5.6-2.1-5.5-5.2 0.1-3 2.3-4.7 5.8-4.8q6.6 0 13.2 0.1z"/>
		<path id="Layer" class="s1" d="m353.8 325.4c1.9 0 3.9-0.1 5.8 0 3.1 0.2 5.3 2.3 5.3 5 0 2.7-2.2 4.9-5.3 5q-5.8 0.1-11.7 0c-3.1-0.1-5.2-2.3-5.2-5 0-2.7 2.1-4.8 5.2-5 2-0.1 3.9 0 5.9 0z"/>
		<path id="Layer" class="s1" d="m358.7 291.2c0 1.2-0.5 2.5-1.4 3.4-0.9 1-2.1 1.5-3.4 1.6-1.2 0-2.5-0.5-3.4-1.4-1-0.8-1.5-2.1-1.6-3.3 0-1.3 0.5-2.6 1.3-3.5 0.9-1 2.2-1.5 3.4-1.6 1.3 0 2.6 0.5 3.5 1.4 1 0.8 1.5 2.1 1.6 3.4z"/>
		<path id="Layer" fill-rule="evenodd" class="s0" d="m532.6 350.7q-0.7 1-1.6 1.7-0.9 0.8-2 1.3-1.1 0.5-2.3 0.8-1.1 0.2-2.3 0.2c-6.7-0.1-13.3 0-20-0.1q-0.5 0-0.9 0.1-0.5 0.1-0.9 0.3-0.5 0.2-0.8 0.5-0.4 0.3-0.7 0.7-1.2 1.6-2.7 3.1-1.5 1.4-3.1 2.6-1.7 1.2-3.5 2.2-1.8 1-3.7 1.8-0.2-1.8-0.4-3.6 1.3-0.5 2.6-1.3 1.3-0.7 2.5-1.5 1.2-0.9 2.3-1.8 1.1-1 2-2.1 1.2-1.2 2.2-2.5 1-1.4 1.8-2.8 0.8-1.5 1.5-3 0.6-1.5 1-3.2l-31.8-0.5c-0.1-0.6-0.1-1.1-0.2-1.7q-0.1-0.9-0.2-1.8l32.9 0.5q0.2-0.5 0.3-1 0-0.6 0.1-1.1 0-0.6 0-1.1 0-0.6 0-1.1c-0.4-12.2-6.2-20.9-17.4-25.9-3.4-1.6-5.2-4-5.2-7.9 0-3.1 0-6.1 0-9.3h-9.2q-0.3-0.5-0.7-0.9-0.4-0.4-0.8-0.8-0.4-0.5-0.7-0.9-0.4-0.4-0.8-0.8 0.1 0 0.2 0 0.2-0.1 0.3-0.1 0.2 0 0.3 0 0.2-0.1 0.3-0.1c3.7 0 7.3 0 10.9 0q0.8 0 1.5 0.3 0.6 0.2 1.2 0.8 0.5 0.5 0.7 1.2 0.3 0.7 0.2 1.4 0 4.7 0 9.4 0 0.7 0.2 1.4 0.1 0.7 0.5 1.3 0.4 0.6 1 1 0.5 0.4 1.2 0.7 1.3 0.5 2.5 1.1 1.3 0.7 2.5 1.5 1.2 0.7 2.3 1.6 1.2 0.8 2.2 1.8 0.1 0 0.1 0.1 0.1 0 0.1 0 0.1 0.1 0.1 0.1 0.1 0.1 0.1 0.1c0.8-1.6 1.5-3.2 2.3-4.7q0.6-1.1 1-2.2 0.4-1.1 0.6-2.2 0.3-1.2 0.4-2.3 0.1-1.2 0-2.4c-0.1-14.4 0-28.9 0-43.3q0-0.5 0-1 0-0.8 0.2-1.4 0.3-0.6 0.8-1.1 0.5-0.5 1.2-0.8 0.6-0.3 1.3-0.3 3.9 0 7.7 0 0.7 0 1.4 0.3 0.6 0.2 1.1 0.7 0.5 0.4 0.8 1.1 0.3 0.6 0.4 1.3 0 0.6 0 1.2 0 23.1 0 46.2 0 0.5 0 0.9 0.1 0.5 0.1 0.9 0.1 0.5 0.3 0.9 0.1 0.4 0.3 0.8 7.8 16.6 15.6 33.2c1.9 4.1 1.6 8-1.2 11.5zm-2.1-2.8q0.6-1.1 0.9-2.3 0.3-1.2 0.1-2.4-0.2-1.2-0.7-2.3-4-8.5-7.9-16.9-0.2-0.4-0.4-0.7h-10.4c-1.4 0-2.1-0.6-2.1-1.7 0-1.1 0.7-1.7 2.1-1.7h8.8c-0.2-0.6-0.3-0.9-0.5-1.2-1.7-3.7-3.4-7.4-5.1-11q-0.3-0.6-0.6-1.3-0.2-0.7-0.4-1.4-0.1-0.7-0.2-1.4-0.1-0.7-0.1-1.4c0-15.2 0-31.8 0-47h-8v1.4q-0.1 23 0 46 0 0.6-0.1 1.2 0 0.6-0.2 1.2-0.1 0.6-0.3 1.2-0.2 0.6-0.5 1.2c-1.2 2.5-2.4 5.2-3.6 7.8-0.2 0.3-0.3 0.6-0.4 0.9 8.3 11 9.4 22.6 3.7 35q0 0 0.1 0 0 0.1 0.1 0.1 0 0 0.1 0 0 0 0.1 0 10 0 19.9 0 0.6 0 1.1-0.1 0.5-0.1 1.1-0.3 0.5-0.2 0.9-0.5 0.5-0.3 0.9-0.6 1-0.8 1.6-1.8z"/>
		<path id="Layer" class="s0" d="m470.9 293.1q0 0.8 0 1.5c-0.1 3.2 0 6.3-0.2 9.4q0.1 0.4 0 0.7 0 0.4-0.1 0.8-0.1 0.3-0.2 0.6-0.2 0.4-0.4 0.7-0.2-0.6-0.5-1.1-0.3-0.5-0.6-1.1-0.3-0.5-0.6-1-0.3-0.5-0.7-1.1c0-3.1-0.2-5.8-0.2-9q0-0.4 0-0.8 0.1-0.4 0.2-0.8 0.2-0.4 0.4-0.7 0.3-0.4 0.5-0.7 0.2-0.1 0.3-0.2 0.2-0.1 0.3-0.2 0.2-0.1 0.4-0.2 0.1-0.1 0.3-0.1 0.4 0.4 0.8 0.8 0.4 0.4 0.8 0.8 0.4 0.4 0.8 0.8 0.3 0.5 0.7 0.9z"/>
		<path id="Layer" fill-rule="evenodd" class="s0" d="m493.2 279.8c4.3 0.3 6.6 2.5 6.4 6q0 1.1-0.5 2.1-0.5 1-1.3 1.7-0.8 0.8-1.8 1.2-1 0.4-2.1 0.3c-3.5 0-5.4-2.5-5.5-7.2-3.4 1.2-6.7 0.9-9.6-1.3q-0.6-0.5-1.2-1-0.5-0.6-1-1.2-0.4-0.7-0.7-1.4-0.4-0.7-0.6-1.4c-0.6-2-0.5-4.2 0.2-6.2 0.7-1.9 2-3.6 3.8-4.8 1.7-1.1 3.8-1.7 5.9-1.6 2.1 0.1 4.1 0.9 5.7 2.2 2.9 2.4 5.1 7 2.3 12.6zm-2.2-5q0-1.3-0.4-2.4-0.5-1.2-1.4-2.1-0.9-0.9-2-1.4-1.2-0.5-2.5-0.5c-1.7 0-3.3 0.7-4.5 1.9-1.1 1.2-1.8 2.8-1.8 4.5 0 1.7 0.7 3.3 1.8 4.5 1.2 1.2 2.8 1.8 4.5 1.8q1.3 0 2.5-0.4 1.1-0.5 2-1.4 0.9-0.9 1.4-2.1 0.4-1.1 0.4-2.4zm5.2 10.7c0-0.6-0.2-1.2-0.6-1.6-0.4-0.4-1-0.7-1.6-0.7-0.6 0-1.2 0.3-1.6 0.7-0.4 0.4-0.6 1-0.6 1.6q0 0.5 0.2 0.9 0.1 0.3 0.4 0.7 0.3 0.3 0.7 0.4 0.4 0.2 0.8 0.2 0.5 0 0.9-0.1 0.4-0.2 0.8-0.5 0.3-0.3 0.4-0.7 0.2-0.4 0.2-0.9z"/>
		<path id="Layer" class="s0" d="m479.2 323.8q0 0.7-0.2 1.4-0.1 0.7-0.5 1.3-0.3 0.6-0.8 1.1-0.5 0.5-1 0.9-0.4 0.2-0.8 0.4-0.4 0.2-0.8 0.3-0.4 0.1-0.8 0.2-0.4 0-0.8 0-0.1 0-0.2 0-0.1 0-0.2 0 0 0-0.1 0-0.1 0-0.2 0 0-1.8 0-3.5 0.1 0 0.2 0 0.1 0.1 0.1 0.1 0.1 0 0.2 0 0.1 0 0.2 0 0.5 0 0.9-0.1 0.3-0.2 0.7-0.5 0.3-0.3 0.4-0.7 0.2-0.4 0.2-0.8 0.1-0.4-0.1-0.9-0.2-0.4-0.5-0.7-0.3-0.3-0.7-0.5-0.4-0.1-0.8-0.2-0.2 0-0.3 0.1-0.2 0-0.3 0-0.2 0.1-0.3 0.1-0.2 0.1-0.3 0.2-0.1-0.4-0.1-0.7-0.1-0.4-0.2-0.7 0-0.4-0.1-0.7-0.1-0.4-0.2-0.7 0-0.1 0-0.2-0.1-0.1-0.1-0.1 0-0.1-0.1-0.2 0-0.1-0.1-0.2 0.3-0.1 0.5-0.1 0.3-0.1 0.5-0.1 0.3-0.1 0.6-0.1 0.2 0 0.5 0 0.2 0 0.5 0 0.2 0 0.4 0.1 0.3 0 0.5 0.1 0.2 0 0.4 0.1 0.9 0.3 1.6 0.9 0.7 0.5 1.2 1.2 0.5 0.7 0.7 1.5 0.3 0.9 0.3 1.7z"/>
		<path id="Layer" fill-rule="evenodd" class="s0" d="m481 257q0 1.1-0.4 2.1-0.4 1.1-1.2 1.9-0.8 0.8-1.8 1.2-1.1 0.4-2.2 0.4c-2.3 0.1-4.4-1.3-5.3-3.4-0.9-2.1-0.4-4.5 1.2-6.2 1.6-1.6 4.1-2.1 6.2-1.3 2.1 0.9 3.5 3 3.5 5.3zm-7.8 0q0 0.4 0.1 0.8 0.2 0.4 0.5 0.8 0.3 0.3 0.7 0.4 0.4 0.2 0.9 0.2 0.4 0 0.8-0.1 0.4-0.2 0.8-0.5 0.3-0.4 0.4-0.8 0.2-0.4 0.2-0.8 0-0.5-0.2-0.8-0.1-0.4-0.4-0.7-0.3-0.4-0.7-0.5-0.4-0.2-0.8-0.2-0.5-0.1-0.9 0.1-0.4 0.1-0.7 0.5-0.4 0.3-0.5 0.7-0.2 0.4-0.2 0.8z"/>
		<path id="Layer" fill-rule="evenodd" class="s0" d="m470 271.3c-1.8 0-3.5-1.1-4.2-2.9-0.7-1.7-0.3-3.7 1-5 1.4-1.3 3.3-1.7 5.1-0.9 1.7 0.7 2.8 2.4 2.8 4.2q0 1-0.4 1.8-0.4 0.8-1 1.5-0.7 0.6-1.5 1-0.9 0.3-1.8 0.3zm0.1-5.8q-0.2 0-0.5 0.1-0.2 0.1-0.3 0.2-0.2 0.2-0.3 0.4-0.1 0.2-0.1 0.4 0 0.3 0 0.5 0.1 0.2 0.3 0.4 0.1 0.2 0.4 0.3 0.2 0.1 0.4 0.1 0.3 0 0.5-0.1 0.2-0.1 0.4-0.2 0.2-0.2 0.3-0.4 0-0.3 0-0.5 0-0.2 0-0.5-0.1-0.2-0.3-0.3-0.1-0.2-0.4-0.3-0.2-0.1-0.4-0.1z"/>
		<path id="Layer" class="s1" d="m456.6 259.5l3.1 3.3-1.5 14.6-1.6-0.6q-0.2-0.6-0.5-1.1-0.3-0.6-0.6-1.1-0.3-0.5-0.6-1.1-0.3-0.5-0.7-1c-1.6-2.2-1.6-13-1.6-13z"/>
		<path id="Layer" class="s0" d="m488.1 365.8q-1.6 0.7-3.1 1.2-1.6 0.6-3.2 1.1-1.6 0.5-3.3 0.9-1.6 0.3-3.2 0.6l0.6-3.9c3.4 0.2 11.8-3.4 11.8-3.4z"/>
	</g>
</svg>