<svg version="1.2" xmlns="http://www.w3.org/2000/svg" viewBox="0 0 720 720" width="720" height="720">
	<title>unity-svg</title>
	<style>
		.s0 { fill: #325e64;stroke: #325e64;stroke-width: .6 } 
		.s1 { fill: #325e64 } 
	</style>
	<g id="Layer_2">
		<path id="Layer" class="s0" d="m608.4 188.6v314.3c0 3.3-0.6 6.7-1.9 9.8-1.3 3.1-3.2 5.9-5.6 8.3-2.4 2.4-5.2 4.3-8.3 5.5-3.1 1.3-6.4 2-9.8 2h-445.2c-3.4 0-6.7-0.7-9.8-2-3.1-1.2-5.9-3.1-8.3-5.5-2.4-2.4-4.3-5.2-5.5-8.3-1.3-3.1-2-6.4-2-9.8v-314.3c0-3.4 0.7-6.7 2-9.8 1.3-3.1 3.1-5.9 5.5-8.3 2.4-2.3 5.2-4.2 8.3-5.5 3.1-1.3 6.4-2 9.8-2h39.5v15h-39.5c-1.4 0-2.8 0.2-4.1 0.8-1.3 0.5-2.5 1.3-3.5 2.3-0.9 1-1.7 2.2-2.3 3.5-0.5 1.3-0.8 2.6-0.8 4v314.3c0 1.4 0.3 2.8 0.8 4.1 0.6 1.3 1.3 2.4 2.3 3.4 1 1 2.2 1.8 3.5 2.4 1.3 0.5 2.7 0.8 4.1 0.8h445.2c1.4 0 2.8-0.3 4.1-0.8 1.3-0.6 2.5-1.4 3.5-2.3 1-1 1.7-2.2 2.3-3.5 0.5-1.3 0.8-2.7 0.8-4.1v-314.3c0-1.4-0.3-2.8-0.8-4.1-0.6-1.3-1.4-2.4-2.4-3.4-0.9-1-2.1-1.8-3.4-2.3-1.3-0.6-2.7-0.8-4.1-0.8h-51.9v-15h51.9c3.3 0 6.7 0.7 9.8 2 3.1 1.3 5.9 3.1 8.3 5.5 2.4 2.4 4.2 5.2 5.5 8.3 1.3 3.1 2 6.4 2 9.8z"/>
		<path id="Layer" fill-rule="evenodd" class="s0" d=""/>
		<path id="Layer" class="s0" d="m582.5 203.1v249.4h-444.6v-249.4l36.1 0.3v14.9l-21.1-0.2v219.5h36.5v3h356.8v-3h21.3v-219.5h-36.6v-15h51.6z"/>
		<path id="Layer" fill-rule="evenodd" class="s0" d="m440.4 603.1h-160.4c-1.3 0-2.7-0.4-3.8-1.1-1.2-0.7-2.2-1.7-2.8-2.9-0.6-1.2-0.9-2.6-0.8-4 0.1-1.3 0.5-2.6 1.3-3.8l2.6-3.7c14.4-20.4 20.7-43.2 18.5-65.8-0.1-1 0-2.1 0.3-3.1 0.3-1 0.9-1.9 1.6-2.6 0.7-0.8 1.5-1.4 2.5-1.9 0.9-0.4 2-0.6 3-0.6h115.6c1.1 0 2.1 0.2 3.1 0.6 0.9 0.5 1.8 1.1 2.5 1.8 0.7 0.8 1.2 1.7 1.5 2.7 0.4 1 0.5 2.1 0.4 3.1-2.3 22.6 4.1 45.4 18.4 65.8l2.6 3.7c0.8 1.2 1.3 2.5 1.4 3.8 0.1 1.4-0.2 2.8-0.9 4-0.6 1.2-1.6 2.2-2.7 2.9-1.2 0.7-2.5 1.1-3.9 1.1zm-130.1-74.6c0.5 20.5-5.1 40.9-16.4 59.7h132.5c-11.2-18.8-16.8-39.2-16.4-59.7z"/>
		<path id="Layer" fill-rule="evenodd" class="s0" d="m459.8 636.7h-199.2c-6.4 0-12.6-2.6-17.1-7.1-4.5-4.6-7.1-10.8-7.1-17.2 0-6.4 2.6-12.6 7.1-17.1 4.5-4.6 10.7-7.1 17.1-7.1h199.2c6.4 0 12.6 2.5 17.1 7.1 4.6 4.5 7.1 10.7 7.1 17.1 0 6.4-2.5 12.6-7.1 17.2-4.5 4.5-10.7 7.1-17.1 7.1zm-199.2-33.6c-2.4 0-4.8 1-6.6 2.7-1.7 1.8-2.7 4.1-2.7 6.6 0 2.5 1 4.9 2.7 6.6 1.8 1.8 4.2 2.7 6.6 2.7h199.2c2.5 0 4.8-0.9 6.6-2.7 1.7-1.7 2.7-4.1 2.7-6.6 0-2.5-1-4.8-2.7-6.6-1.8-1.7-4.1-2.7-6.6-2.7z"/>
		<path id="Layer" class="s0" d="m174 203.2h356.9v15h-356.9z"/>
		<path id="Layer" class="s0" d="m177.1 177.9v-14.9h353.9l-0.1 14.9h-353.8z"/>
		<path id="Layer" fill-rule="evenodd" class="s1" d="m217.3 377.8c0.8-5.5 1.6-11 2.3-16.5 2.2-18.6 4.3-37.1 6.5-55.7 1-8.4 1.5-17.1 3.4-25.3 4.9-21 25-36.6 47-36.7q83.7-0.2 167.4 0c23.3 0.1 43.8 17 47.8 39.6 2 11.5 2.8 23.2 4.2 34.8 2.2 18.4 4.2 36.8 6.5 55.1 1.2 9.8 1.3 19.5-2.8 28.7-11 25-44.4 28.3-60.7 5.8-3.1-4.2-5.2-9.2-7-14.1-3-8-5.4-16.2-8.2-24.2-0.3-1-1.4-1.7-2.4-2.9-4.9 11.9-12.2 17.6-22.1 17.5-11.2-0.2-18.3-6.2-22.1-16.6h-33.7c-4.1 10.9-11.7 17.2-23.6 16.5-10.2-0.7-16.8-6.7-20.5-17.4-1.1 1.3-2.2 2-2.5 3-3.4 9.6-6.2 19.3-9.8 28.7-7.8 20.8-30.9 30.4-49.9 21-11.3-5.7-17-15.4-19.2-27.5q-0.1-0.3-0.1-0.5-0.1-0.3-0.2-0.5 0-0.3-0.1-0.5-0.1-0.3-0.2-0.6zm100.8-122.8h-2.6c-13.2 0-26.4-0.1-39.6 0-15.6 0-31.6 11.8-35 27-2.5 11-3.2 22.4-4.6 33.7-2.2 18.4-4.4 36.9-6.5 55.3-0.8 7-1.9 14-0.3 21.1 3.3 13.8 15.2 21.8 28.6 18.6 10.2-2.5 16.2-9.6 19.4-19.3 3.4-10.1 6.8-20.2 10.1-30.4 1.1-3.7 3.4-5.3 7.1-5.2 1.7 0.1 3.3 0 4.8 0 3.7-10.3 10.5-16.4 21.1-16.7 11.6-0.3 18.9 6 22.7 16.6h33.8c3.7-10.3 10.7-16.4 21.6-16.6 11.2-0.2 18.4 6.1 22.2 16.7h3.7c5.8 0 6.8 0.8 8.6 6.2 3.6 10.7 6.9 21.4 10.8 32 5 13.7 19 20.6 31.8 16.1 10.7-3.8 17.5-16 15.9-29-3.5-30.9-7.6-61.6-10.6-92.5-1.7-17.8-19.2-34.1-37.9-33.7-12.5 0.3-25.1 0-37.7 0h-3.1c0 4.4 0 8.4 0 12.4-0.1 6.1 0.1 12.1-0.4 18.1-0.6 7.7-7.8 14-15.4 14.3-4 0.1-6.5-1.8-6.8-5.1-0.2-3.3 2-5.6 5.9-6.1 2.9-0.4 5.1-1.9 5.2-4.9 0.2-9.4 0-18.9 0-28.5h-61.1c-0.2 0.3-0.3 0.4-0.3 0.6q0 12.6-0.1 25.1c0 5.6 0.9 6.7 6.5 7.8q1 0.2 1.9 0.7 0.9 0.5 1.6 1.4 0.6 0.8 0.9 1.8 0.4 1 0.3 2.1-0.1 1-0.5 2-0.5 0.9-1.3 1.6-0.8 0.8-1.8 1.1-1 0.4-2 0.4-0.5 0-1.1 0-0.5-0.1-1-0.1-0.5-0.1-1-0.2-0.5-0.1-1-0.2c-8.1-2-12.8-8.4-12.8-17.4-0.1-8.9 0-17.6 0-26.8zm14.5 106.5c0-2.9-1.2-5.8-3.3-7.8-2.1-2.1-4.9-3.3-7.8-3.3-3 0-5.8 1.2-7.9 3.3-2.1 2-3.2 4.9-3.2 7.8 0 2.9 1.1 5.8 3.2 7.8 2.1 2.1 4.9 3.3 7.9 3.3 2.9 0 5.7-1.2 7.8-3.3 2.1-2 3.3-4.9 3.3-7.8zm66.5-11.1c-1.5 0-2.9 0.3-4.3 0.8-1.4 0.5-2.6 1.3-3.7 2.4-1 1-1.8 2.2-2.4 3.6-0.5 1.3-0.8 2.8-0.8 4.3 0 2.9 1.1 5.7 3.2 7.8 2.1 2.1 4.9 3.3 7.8 3.3 3 0 5.8-1.1 7.9-3.2 2.1-2.1 3.3-4.9 3.3-7.8 0-1.5-0.2-2.9-0.8-4.3-0.5-1.4-1.3-2.6-2.4-3.6-1-1.1-2.2-1.9-3.6-2.5-1.3-0.5-2.8-0.8-4.2-0.8z"/>
		<path id="Layer" fill-rule="evenodd" class="s1" d="m296.7 293.9c9.8 1.2 16.2 7.5 16.6 16 0.4 9.5-5.1 15.6-16.4 18.1-1.1 10.4-8.3 16.7-17.6 16.6-8.8 0-14.1-5.4-16.9-16.5-12.5-1.5-16.9-11.1-16.5-18.2 0.5-8.6 6.7-14.6 16.4-16 3.4-12.3 8.8-17.1 18.7-16.6 8.1 0.4 13.8 6.4 15.7 16.6zm-17.1 39.3q1 0.1 2-0.3 0.9-0.3 1.6-0.9 0.8-0.7 1.2-1.6 0.5-0.8 0.6-1.8c0.2-2.1 0-4.1 0.2-6.2 0.2-3.8 2.4-5.8 6.2-5.9 1.8-0.1 3.6 0.1 5.3-0.1 3.2-0.2 5-2.1 5.2-5.2 0.2-2.9-1.3-5-4.3-5.6q-0.8-0.1-1.5-0.1-0.8-0.1-1.6-0.1-0.7-0.1-1.5-0.1-0.8 0-1.5 0c-4.1-0.1-6.1-2-6.4-6.1 0-1.8 0.1-3.6-0.1-5.3-0.2-3.2-2.6-5.5-5.6-5.4q-1 0.1-2 0.5-1 0.5-1.7 1.2-0.7 0.8-1.1 1.7-0.4 1-0.5 2.1c0 1.7 0 3.5 0 5.3-0.2 3.9-2.3 5.9-6.2 6q-0.8 0-1.5 0-0.8 0-1.5 0.1-0.8 0-1.6 0.1-0.7 0-1.5 0.1c-3.1 0.5-4.7 2.6-4.5 5.7 0.2 3.2 2.1 4.9 5.2 5.1 1.7 0.1 3.4 0 5.1 0.1 4.1 0.1 6.3 2.2 6.5 6.3 0 1.8-0.1 3.6 0 5.3q0.1 1.1 0.5 2.1 0.4 0.9 1.2 1.6 0.8 0.8 1.8 1.1 1 0.4 2 0.3z"/>
		<path id="Layer" fill-rule="evenodd" class="s1" d="m423.7 328c-11.6-2.7-17-8.8-16.5-18.3 0.5-8.4 7-14.7 16.6-15.8 0.6-5.6 2.6-11 7.9-13.7q1.2-0.7 2.6-1.2 1.3-0.5 2.7-0.8 1.4-0.4 2.9-0.5 1.4-0.2 2.8-0.2c7.9 0 13.4 6.3 15.2 16.2 11.7 3.3 16.7 8.5 16.7 17.2 0 8.8-5.1 14.1-16.5 17.2-3.2 11.5-8.9 17-17.7 16.6-8.8-0.4-14.7-6.2-16.7-16.7zm39.5-17.5q0-0.9-0.4-1.8-0.3-0.9-0.9-1.5-0.6-0.7-1.5-1.1-0.8-0.4-1.7-0.5-0.8-0.1-1.5-0.2-0.8 0-1.6-0.1-0.7 0-1.5 0-0.7 0-1.5 0c-3.9-0.1-6-2.1-6.2-6-0.1-1.9 0-3.7-0.1-5.6-0.2-3-2.6-5.4-5.5-5.2-3 0.3-5.1 1.8-5.3 5-0.2 2.1 0 4.1-0.2 6.2-0.3 3.6-2.3 5.5-6 5.6q-0.8 0-1.5 0-0.8 0-1.6 0-0.7 0.1-1.5 0.1-0.7 0.1-1.5 0.1c-3.1 0.5-4.7 2.6-4.7 5.7 0 2.9 2.4 5.1 5.5 5.2 1.7 0.1 3.5 0 5.3 0.1 3.5 0.1 5.7 2.1 5.9 5.6 0.2 2 0 3.9 0.2 5.9 0.2 3.3 2.5 5.3 5.6 5.2 3-0.1 5.1-2.2 5.3-5.4 0.7-10.7 0.7-10.7 11.5-11.4 3.3-0.2 5.4-2.5 5.4-5.9z"/>
		<path id="Layer" class="s1" d="m360.2 310.8q7.7 0 15.4 0c3.8 0.1 6.3 2.2 6.4 5.5 0.1 3.5-2.2 5.9-6.3 5.9q-15.4 0.2-30.9 0c-4.1 0-6.4-2.4-6.3-5.9 0.1-3.4 2.6-5.4 6.7-5.5 5 0 10 0 15 0z"/>
		<path id="Layer" class="s1" d="m360.2 333.3c2.2 0 4.5-0.1 6.7 0 3.6 0.1 6.1 2.5 6.1 5.6 0 3.2-2.5 5.7-6 5.8-4.5 0.1-8.9 0.1-13.4 0-3.5-0.1-6-2.6-6-5.7 0-3.1 2.4-5.5 6-5.7 2.2-0.1 4.4 0 6.6 0z"/>
		<path id="Layer" class="s1" d="m365.8 294c0.1 1.5-0.5 2.9-1.5 4-1 1-2.4 1.7-3.9 1.7-1.5 0.1-2.9-0.5-4-1.5-1.1-1-1.7-2.4-1.7-3.9-0.1-1.5 0.4-3 1.4-4.1 1-1.1 2.4-1.8 4-1.9 1.5 0 2.9 0.6 4 1.6 1.1 1.1 1.7 2.6 1.7 4.1z"/>
	</g>
</svg>